<?xml version="1.0" encoding="UTF-8" standalone="no"?>
<!-- Generator: Adobe Illustrator 19.0.0, SVG Export Plug-In . SVG Version: 6.00 Build 0)  -->

<svg
   xmlns:dc="http://purl.org/dc/elements/1.1/"
   xmlns:cc="http://creativecommons.org/ns#"
   xmlns:rdf="http://www.w3.org/1999/02/22-rdf-syntax-ns#"
   xmlns:svg="http://www.w3.org/2000/svg"
   xmlns="http://www.w3.org/2000/svg"
   xmlns:sodipodi="http://sodipodi.sourceforge.net/DTD/sodipodi-0.dtd"
   xmlns:inkscape="http://www.inkscape.org/namespaces/inkscape"
   version="1.1"
   id="Capa_1"
   x="0px"
   y="0px"
   viewBox="0 0 512.004 512.004"
   style="enable-background:new 0 0 512.004 512.004;"
   xml:space="preserve"
   width="512px"
   height="512px"
   sodipodi:docname="connect.svg"
   inkscape:version="0.92.3 (d244b95, 2018-08-02)"><metadata
   id="metadata103"><rdf:RDF><cc:Work
       rdf:about=""><dc:format>image/svg+xml</dc:format><dc:type
         rdf:resource="http://purl.org/dc/dcmitype/StillImage" /><dc:title></dc:title></cc:Work></rdf:RDF></metadata><defs
   id="defs101" /><sodipodi:namedview
   pagecolor="#ffffff"
   bordercolor="#666666"
   borderopacity="1"
   objecttolerance="10"
   gridtolerance="10"
   guidetolerance="10"
   inkscape:pageopacity="0"
   inkscape:pageshadow="2"
   inkscape:window-width="734"
   inkscape:window-height="480"
   id="namedview99"
   showgrid="false"
   inkscape:pagecheckerboard="true"
   inkscape:zoom="0.4609375"
   inkscape:cx="256"
   inkscape:cy="256"
   inkscape:window-x="2669"
   inkscape:window-y="277"
   inkscape:window-maximized="0"
   inkscape:current-layer="Capa_1" />
<g
   id="g6">
	<g
   id="g4">
		<path
   d="M509.502,25.744L486.214,2.457c-3.2-3.2-8.866-3.2-12.066,0l-69.871,69.871c-3.336,3.336-3.336,8.73,0,12.066    l23.287,23.287c1.596,1.604,3.772,2.5,6.033,2.5s4.429-0.896,6.033-2.5l69.871-69.871    C512.838,34.474,512.838,29.081,509.502,25.744z M433.598,89.582l-11.221-11.221l57.805-57.805l11.221,11.221L433.598,89.582z"
   fill="#FFFFFF"
   id="path2" />
	</g>
</g>
<g
   id="g12">
	<g
   id="g10">
		<path
   d="M445.033,101.025l-34.099-34.099c-9.984-9.984-26.214-9.984-36.198,0l-11.23,11.221c-1.604,1.596-2.5,3.763-2.5,6.033    c0,2.261,0.896,4.429,2.5,6.033l58.232,58.231c1.596,1.604,3.772,2.5,6.033,2.5c2.27,0,4.437-0.905,6.042-2.5l11.221-11.221    C455.017,127.239,455.017,111.009,445.033,101.025z M432.958,125.149l-5.188,5.188l-46.157-46.165l5.188-5.188    c3.328-3.311,8.738-3.328,12.066,0l34.091,34.099C436.286,116.411,436.286,121.821,432.958,125.149z"
   fill="#FFFFFF"
   id="path8" />
	</g>
</g>
<g
   id="g18">
	<g
   id="g16">
		<path
   d="M438.155,140.722l-66.935-66.935c-12.894-12.894-30.029-19.994-48.265-19.994c-18.227,0-35.362,7.1-48.256,19.994    l-50.935,50.935c-1.604,1.596-2.5,3.763-2.5,6.033c0,2.27,0.896,4.429,2.5,6.033l151.39,151.398c1.664,1.664,3.849,2.5,6.033,2.5    c2.185,0,4.369-0.836,6.033-2.5l50.935-50.935C464.762,210.636,464.762,167.329,438.155,140.722z M426.089,225.185l-44.902,44.902    L241.862,130.755l44.902-44.894c9.668-9.668,22.519-14.993,36.19-14.993c13.679,0,26.53,5.325,36.198,14.993l66.935,66.935    C446.039,172.748,446.039,205.226,426.089,225.185z"
   fill="#FFFFFF"
   id="path14" />
	</g>
</g>

<g
   id="g30">
	<g
   id="g28">
		<path
   d="M107.727,427.51l-23.287-23.287c-1.596-1.604-3.772-2.5-6.033-2.5c-2.261,0-4.429,0.896-6.033,2.5L2.502,474.094    c-3.336,3.337-3.336,8.73,0,12.066l23.287,23.287c1.596,1.604,3.772,2.5,6.033,2.5c2.27,0,4.437-0.896,6.033-2.5l69.871-69.871    C111.063,436.24,111.063,430.847,107.727,427.51z M31.823,491.348l-11.221-11.221l57.805-57.805l11.221,11.221L31.823,491.348z"
   fill="#FFFFFF"
   id="path26" />
	</g>
</g>
<g
   id="g36">
	<g
   id="g34">
		<path
   d="M148.482,421.699l-58.231-58.231c-1.596-1.604-3.772-2.5-6.033-2.5s-4.429,0.896-6.033,2.5l-11.221,11.221    c-9.984,9.984-9.984,26.214,0,36.198l34.099,34.099c4.992,4.992,11.546,7.484,18.099,7.484s13.107-2.492,18.091-7.484    l11.23-11.221c1.604-1.596,2.5-3.763,2.5-6.033C150.982,425.471,150.086,423.304,148.482,421.699z M125.212,432.912    c-3.328,3.311-8.738,3.328-12.066,0l-34.099-34.099c-3.328-3.328-3.328-8.738,0-12.066l5.188-5.188l46.165,46.165L125.212,432.912    z"
   fill="#FFFFFF"
   id="path32" />
	</g>
</g>
<g
   id="g42">
	<g
   id="g40">
		<path
   d="M299.881,363.451l-151.39-151.39c-3.2-3.2-8.866-3.2-12.066,0l-62.583,62.583c-26.607,26.615-26.607,69.922,0,96.529    l66.935,66.935c12.894,12.894,30.029,19.994,48.265,19.994s35.371-7.1,48.265-20.002l62.575-62.583    C303.217,372.18,303.217,366.787,299.881,363.451z M225.231,426.043c-9.668,9.668-22.519,14.993-36.19,14.993    c-13.679,0-26.53-5.325-36.198-14.993l-66.935-66.935c-19.951-19.951-19.951-52.429,0-72.388l56.55-56.55l139.315,139.324    L225.231,426.043z"
   fill="#FFFFFF"
   id="path38" />
	</g>
</g>
<g
   id="g48">
	<g
   id="g46">
		<path
   d="M247.494,182.962c-9.455-9.446-25.924-9.455-35.362,0l-52.412,52.403c-1.604,1.596-2.5,3.763-2.5,6.033    s0.896,4.429,2.5,6.033l23.287,23.287c1.664,1.664,3.849,2.5,6.033,2.5s4.369-0.836,6.05-2.5l52.403-52.403    c4.719-4.719,7.322-11,7.322-17.681S252.213,187.681,247.494,182.962z M235.403,206.241l-46.37,46.37l-11.221-11.221l46.37-46.37    c2.995-3.004,8.218-3.004,11.221,0.009c1.493,1.493,2.321,3.482,2.321,5.598C237.724,202.751,236.905,204.739,235.403,206.241z"
   fill="#FFFFFF"
   id="path44" />
	</g>
</g>
<g
   id="g54">
	<g
   id="g52">
		<path
   d="M329.005,264.473c-9.754-9.754-25.609-9.762-35.362,0l-52.403,52.403c-1.604,1.596-2.5,3.763-2.5,6.033    c0,2.27,0.896,4.429,2.5,6.033l23.287,23.287c1.664,1.664,3.849,2.5,6.033,2.5c2.185,0,4.369-0.828,6.033-2.492l52.412-52.403    C338.75,290.081,338.75,274.226,329.005,264.473z M316.93,287.76l-46.37,46.37l-11.221-11.221l46.37-46.37    c3.004-3.004,8.226-3.004,11.221,0C320.019,279.628,320.019,284.671,316.93,287.76z"
   fill="#FFFFFF"
   id="path50" />
	</g>
</g>


<g
   id="g68">
</g>
<g
   id="g70">
</g>
<g
   id="g72">
</g>
<g
   id="g74">
</g>
<g
   id="g76">
</g>
<g
   id="g78">
</g>
<g
   id="g80">
</g>
<g
   id="g82">
</g>
<g
   id="g84">
</g>
<g
   id="g86">
</g>
<g
   id="g88">
</g>
<g
   id="g90">
</g>
<g
   id="g92">
</g>
<g
   id="g94">
</g>
<g
   id="g96">
</g>
</svg>