<svg xmlns="http://www.w3.org/2000/svg" xmlns:xlink="http://www.w3.org/1999/xlink" version="1.1" x="0px" y="0px" viewBox="0 0 100 125" enable-background="new 0 0 100 100" xml:space="preserve"><path d="M69,85c0,1.2-1.6,2.4-3.1,2.4H23.8c-1.4,0-2.5-1.1-2.5-2.4V23.1c0-1.3,1.1-2.4,2.5-2.4h42.1c1.4,0,2.5,1.1,2.5,2.4v25.8H71  V23.1c0-2.8-2.3-5-5.1-5H48.9c0.6-0.8,1-1.8,1-3c0-2.8-2.3-5.1-5.1-5.1s-5.1,2.3-5.1,5.1c0,1.1,0.4,2.1,1,3h-17  c-2.8,0-5.1,2.3-5.1,5V85c0,2.8,2.3,5,5.1,5h42.1c2.7,0,5.7-2.2,5.7-5v-7.7H69V85z M44.8,12.6c1.4,0,2.5,1.1,2.5,2.5  c0,1.4-1.1,2.5-2.5,2.5s-2.5-1.1-2.5-2.5C42.4,13.7,43.5,12.6,44.8,12.6z M33,33h-5.2v-2.6H33V33z M33,43.4h-5.2v-2.6H33V43.4z   M33,53.8h-5.2v-2.6H33V53.8z M33,64.2h-5.2v-2.6H33V64.2z M27.8,72H33v2.6h-5.2V72z M61.6,33H38.2v-2.6h23.4V33z M38.2,40.8h23.4  v2.6H38.2V40.8z M59.3,53.8H38.2v-2.6h21.1V53.8z M55.4,64.2H38.2v-2.6h17.2V64.2z M38.2,72H53v2.6H38.2V72z M59.1,75.5l11.7-1.8  l17.9-17.9l-9.9-9.9L60.9,63.8L59.1,75.5z M85,55.8L71.7,69.1l-6.2-6.2l13.3-13.3L85,55.8z M63.4,65l0.3-0.3l6.2,6.2l-0.3,0.3  l-7.4,1.2L63.4,65z"/><text x="0" y="115" fill="#000000" font-size="5px" font-weight="bold" font-family="'Helvetica Neue', Helvetica, Arial-Unicode, Arial, Sans-serif">Created by Anton Scherbik</text><text x="0" y="120" fill="#000000" font-size="5px" font-weight="bold" font-family="'Helvetica Neue', Helvetica, Arial-Unicode, Arial, Sans-serif">from the Noun Project</text></svg>