<?xml version="1.0" encoding="UTF-8" standalone="no"?>
<svg
   xmlns:dc="http://purl.org/dc/elements/1.1/"
   xmlns:cc="http://creativecommons.org/ns#"
   xmlns:rdf="http://www.w3.org/1999/02/22-rdf-syntax-ns#"
   xmlns:svg="http://www.w3.org/2000/svg"
   xmlns="http://www.w3.org/2000/svg"
   xmlns:xlink="http://www.w3.org/1999/xlink"
   xmlns:sodipodi="http://sodipodi.sourceforge.net/DTD/sodipodi-0.dtd"
   xmlns:inkscape="http://www.inkscape.org/namespaces/inkscape"
   version="1.1"
   x="0px"
   y="0px"
   viewBox="0 0 100 100"
   xml:space="preserve"
   id="svg4667"
   sodipodi:docname="fallback_reactive.svg"
   width="100"
   height="100"
   inkscape:version="0.92.4 (33fec40, 2019-01-16)"><metadata
     id="metadata4673"><rdf:RDF><cc:Work
         rdf:about=""><dc:format>image/svg+xml</dc:format><dc:type
           rdf:resource="http://purl.org/dc/dcmitype/StillImage" /><dc:title></dc:title></cc:Work></rdf:RDF></metadata><defs
     id="defs4671"><linearGradient
       inkscape:collect="always"
       id="linearGradient968"><stop
         style="stop-color:#000000;stop-opacity:1;"
         offset="0"
         id="stop964" /><stop
         style="stop-color:#000000;stop-opacity:0;"
         offset="1"
         id="stop966" /></linearGradient><linearGradient
       inkscape:collect="always"
       xlink:href="#linearGradient968"
       id="linearGradient1074"
       x1="9.3484735"
       y1="19.729256"
       x2="36.382774"
       y2="19.729256"
       gradientUnits="userSpaceOnUse"
       gradientTransform="translate(-4.4303693)" /><linearGradient
       inkscape:collect="always"
       xlink:href="#linearGradient968"
       id="linearGradient970"
       x1="9.3484735"
       y1="19.729256"
       x2="36.382774"
       y2="19.729256"
       gradientUnits="userSpaceOnUse"
       gradientTransform="matrix(1.2329226,0,0,1.2329226,-0.49881882,46.696096)" /><linearGradient
       inkscape:collect="always"
       xlink:href="#linearGradient968"
       id="linearGradient1117"
       x1="9.3484735"
       y1="19.729256"
       x2="36.382774"
       y2="19.729256"
       gradientUnits="userSpaceOnUse"
       gradientTransform="matrix(1.3823195,0,0,1.3823195,-6.368462,5.8843722)" /></defs><sodipodi:namedview
     pagecolor="#ffffff"
     bordercolor="#666666"
     borderopacity="1"
     objecttolerance="10"
     gridtolerance="10"
     guidetolerance="10"
     inkscape:pageopacity="0"
     inkscape:pageshadow="2"
     inkscape:window-width="928"
     inkscape:window-height="1028"
     id="namedview4669"
     showgrid="false"
     inkscape:zoom="2.3035615"
     inkscape:cx="54.153592"
     inkscape:cy="18.496216"
     inkscape:window-x="1985"
     inkscape:window-y="24"
     inkscape:window-maximized="0"
     inkscape:current-layer="svg4667"
     inkscape:pagecheckerboard="true" /><path
     style="fill:#ffffff;fill-opacity:1;stroke:#000000;stroke-width:0.2;stroke-miterlimit:4;stroke-dasharray:none;stroke-opacity:1"
     d="m 64.602019,70.282947 c -2.14721,-0.300689 -4.197807,-1.804264 -5.167319,-3.788872 -0.400364,-0.819557 -0.458651,-1.275674 -0.431804,-3.379046 0.09202,-7.209014 3.882947,-14.603008 9.793134,-19.100967 0.873613,-0.664864 2.725458,-1.876303 4.115213,-2.692089 3.767179,-2.21133 5.65244,-4.238466 6.853794,-7.369577 2.390098,-6.229349 -0.405772,-13.509424 -6.492023,-16.904374 -2.699635,-1.505873 -6.320199,-2.221725 -9.383384,-1.855263 -3.866928,0.462616 -6.224333,1.535794 -8.892998,4.048423 -2.825596,2.660383 -3.918578,4.968022 -4.259044,8.99223 -0.281852,3.331399 -1.377948,5.10326 -3.928204,6.350021 -0.930971,0.45513 -1.403153,0.548074 -2.830866,0.557222 -1.454417,0.0093 -1.896859,-0.0742 -2.925959,-0.552296 -1.340017,-0.622546 -2.480093,-1.696668 -3.210035,-3.024333 -1.044422,-1.899657 -0.689091,-6.886888 0.788266,-11.06368 3.295949,-9.318326 11.632255,-16.1142674 21.947497,-17.8920864 2.343753,-0.403944 7.999048,-0.359576 10.320177,0.08098 15.737881,2.9869894 25.810642,17.1264064 22.654344,31.8005434 -1.635191,7.60227 -6.455128,13.750291 -14.101565,17.987102 -2.477043,1.372503 -4.348562,3.199793 -5.444674,5.316011 -0.953869,1.841587 -1.357319,3.33986 -1.603139,5.953493 -0.221491,2.354945 -0.72786,3.56107 -2.000526,4.765064 -1.496311,1.415575 -3.648721,2.072891 -5.800885,1.771507 z"
     id="path822"
     inkscape:connector-curvature="0" /><path
     style="fill:#ffffff;fill-opacity:1;stroke:#000000;stroke-width:0.2;stroke-miterlimit:4;stroke-dasharray:none;stroke-opacity:1"
     d="m 63.046872,93.06903 c -2.408194,-0.783487 -4.197284,-2.328971 -5.342013,-4.614626 -0.620688,-1.239313 -0.672174,-1.505092 -0.672174,-3.469766 0,-1.967068 0.05053,-2.227056 0.669502,-3.444766 1.241344,-2.442101 3.053765,-3.92869 5.725924,-4.696538 5.492031,-1.578144 11.145962,2.197034 11.448163,7.644036 0.144726,2.608621 -0.544218,4.419432 -2.416484,6.351444 -2.339727,2.414385 -6.104869,3.306472 -9.412918,2.230216 z"
     id="path824"
     inkscape:connector-curvature="0" /><text
     xml:space="preserve"
     style="font-style:normal;font-variant:normal;font-weight:bold;font-stretch:normal;font-size:59.04552841px;line-height:1.25;font-family:Waree;-inkscape-font-specification:'Waree Bold';letter-spacing:0px;word-spacing:0px;fill:#000000;fill-opacity:1;stroke:url(#linearGradient970);stroke-width:0.3;stroke-miterlimit:4;stroke-dasharray:none"
     x="6.2739639"
     y="92.3657"
     id="text138"
     transform="scale(1.0738041,0.93126856)"><tspan
       sodipodi:role="line"
       id="tspan136"
       x="6.2739639"
       y="92.3657"
       style="font-style:normal;font-variant:normal;font-weight:bold;font-stretch:normal;font-family:Lato;-inkscape-font-specification:'Lato Bold';fill:#ffffff;fill-opacity:1;stroke:url(#linearGradient970);stroke-width:0.3;stroke-miterlimit:4;stroke-dasharray:none;stroke-opacity:1">R</tspan></text>
</svg>