<svg xmlns:dc="http://purl.org/dc/elements/1.1/" xmlns:cc="http://creativecommons.org/ns#" xmlns:rdf="http://www.w3.org/1999/02/22-rdf-syntax-ns#" xmlns:svg="http://www.w3.org/2000/svg" xmlns="http://www.w3.org/2000/svg" xmlns:sodipodi="http://sodipodi.sourceforge.net/DTD/sodipodi-0.dtd" xmlns:inkscape="http://www.inkscape.org/namespaces/inkscape" version="1.1" x="0px" y="0px" viewBox="0 0 100 125"><g transform="translate(0,-952.36218)"><path style="text-indent:0;text-transform:none;direction:ltr;block-progression:tb;baseline-shift:baseline;color:#000000;enable-background:accumulate;" d="m 70.81246,959.36419 a 1.0001,1.0001 0 0 0 -0.7813,0.78125 l -0.8124,4.06245 c -0.6322,0.2099 -1.2437,0.4577 -1.8438,0.75 l -3.4062,-2.2812 a 1.0001,1.0001 0 0 0 -1.2813,0.125 l -4.25,4.25 a 1.0001,1.0001 0 0 0 -0.125,1.25 l 2.2813,3.4375 c -0.2846,0.5868 -0.5443,1.1953 -0.75,1.8125 l -4.0313,0.8125 a 1.0001,1.0001 0 0 0 -0.8125,1 l 0,6 a 1.0001,1.0001 0 0 0 0.8125,0.9687 l 4.0313,0.8125 c 0.2098,0.632 0.4575,1.2436 0.75,1.8438 l -2.2813,3.4062 a 1.0001,1.0001 0 0 0 0.125,1.25 l 4.25,4.25 a 1.0001,1.0001 0 0 0 1.2813,0.125 l 3.4062,-2.25 c 0.5988,0.2916 1.2131,0.5094 1.8438,0.7188 l 0.8124,4.0625 a 1.0001,1.0001 0 0 0 0.9688,0.8125 l 6,0 a 1.0001,1.0001 0 0 0 0.9688,-0.8125 l 0.8124,-4.0625 c 0.6306,-0.2094 1.245,-0.4272 1.8438,-0.7188 l 3.4062,2.25 a 1.0001,1.0001 0 0 0 1.2813,-0.125 l 4.25,-4.25 a 1.0001,1.0001 0 0 0 0.125,-1.25 l -2.2813,-3.4062 c 0.2925,-0.6002 0.5402,-1.2118 0.75,-1.8438 l 4.0313,-0.8125 a 1.0001,1.0001 0 0 0 0.8125,-0.9687 l 0,-6 a 1.0001,1.0001 0 0 0 -0.8125,-1 l -4.0313,-0.8125 c -0.2057,-0.6172 -0.4654,-1.2257 -0.75,-1.8125 l 2.2813,-3.4375 a 1.0001,1.0001 0 0 0 -0.125,-1.25 l -4.25,-4.25 a 1.0001,1.0001 0 0 0 -1.2813,-0.125 l -3.4062,2.2812 c -0.6001,-0.2923 -1.2116,-0.5401 -1.8438,-0.75 l -0.8124,-4.06245 a 1.0001,1.0001 0 0 0 -0.9688,-0.78125 l -6,0 a 1.0001,1.0001 0 0 0 -0.1875,0 z m 1,2 4.375,0 0.75,3.75 a 1.0001,1.0001 0 0 0 0.6875,0.75 c 0.9291,0.2703 1.8479,0.6493 2.6562,1.0937 a 1.0001,1.0001 0 0 0 1.0313,-0.062 l 3.1563,-2.0937 3.0937,3.0937 -2.125,3.1563 a 1.0001,1.0001 0 0 0 -0.031,1.0312 c 0.4447,0.8085 0.7923,1.7273 1.0626,2.6563 a 1.0001,1.0001 0 0 0 0.7812,0.6875 l 3.75,0.75 0,4.3437 -3.75,0.75 a 1.0001,1.0001 0 0 0 -0.7812,0.7188 c -0.2703,0.929 -0.6179,1.8166 -1.0626,2.625 a 1.0001,1.0001 0 0 0 0.031,1.0312 l 2.125,3.1563 -3.0937,3.0937 -3.1563,-2.0937 a 1.0001,1.0001 0 0 0 -1.0313,-0.031 c -0.8083,0.4445 -1.7271,0.7922 -2.6562,1.0625 a 1.0001,1.0001 0 0 0 -0.6875,0.75 l -0.75,3.7812 -4.375,0 -0.75,-3.7812 a 1.0001,1.0001 0 0 0 -0.6875,-0.75 c -0.9291,-0.2703 -1.8479,-0.618 -2.6562,-1.0625 a 1.0001,1.0001 0 0 0 -1.0313,0.031 l -3.1563,2.0937 -3.0937,-3.0937 2.125,-3.1563 a 1.0001,1.0001 0 0 0 0.031,-1.0312 c -0.4447,-0.8084 -0.7923,-1.696 -1.0626,-2.625 a 1.0001,1.0001 0 0 0 -0.7812,-0.7188 l -3.75,-0.75 0,-4.3437 3.75,-0.75 a 1.0001,1.0001 0 0 0 0.7812,-0.6875 c 0.2703,-0.929 0.6179,-1.8478 1.0626,-2.6563 a 1.0001,1.0001 0 0 0 -0.031,-1.0312 l -2.125,-3.1563 3.0937,-3.0937 3.1563,2.0937 a 1.0001,1.0001 0 0 0 1.0313,0.062 c 0.8083,-0.4444 1.7271,-0.8234 2.6562,-1.0937 a 1.0001,1.0001 0 0 0 0.6875,-0.75 l 0.75,-3.75 z m 2.1875,10 c -3.8541,0 -7,3.1458 -7,7 0,3.8542 3.1459,7 7,7 3.8541,0 7,-3.1458 7,-7 0,-3.8542 -3.1459,-7 -7,-7 z m 0,2 c 2.7733,0 5,2.2267 5,5 0,2.7733 -2.2267,5 -5,5 -2.7733,0 -5,-2.2267 -5,-5 0,-2.7733 2.2267,-5 5,-5 z m -45.1875,18 a 1.0001,1.0001 0 0 0 -0.8125,0.8437 l -0.75,5.25 c -1.095,0.3532 -2.1431,0.7677 -3.1562,1.2813 l -4.3438,-3.0938 a 1.0001,1.0001 0 0 0 -1.3125,0.094 l -7.0625,7.06251 a 1.0001,1.0001 0 0 0 -0.094,1.2813 l 3.125,4.375 c -0.5098,1.0087 -0.9613,2.0667 -1.3124,3.1562 l -5.2499999,0.75 a 1.0001,1.0001 0 0 0 -0.8436,1.0001 l 0,10 a 1.0001,1.0001 0 0 0 0.8438,0.9687 l 5.2499999,0.75 c 0.3511,1.0896 0.8026,2.1476 1.3124,3.1563 l -3.125,4.375 a 1.0001,1.0001 0 0 0 0.094,1.2812 l 7.0625,7.0625 a 1.0001,1.0001 0 0 0 1.3125,0.125 l 4.4062,-3.125 c 0.9577,0.4803 1.9427,0.8825 2.9688,1.2188 l 0.875,5.3437 a 1.0001,1.0001 0 0 0 0.9998,0.8438 l 10,0 a 1.0001,1.0001 0 0 0 1,-0.8438 l 0.875,-5.3437 c 1.0891,-0.3615 2.1227,-0.7943 3.125,-1.3125 l 4.25,3.1875 a 1.0001,1.0001 0 0 0 1.3125,-0.094 l 7.0625,-7.0625 a 1.0001,1.0001 0 0 0 0.094,-1.3125 l -3.1876,-4.2813 c 0.5098,-0.9928 0.9565,-2.0158 1.3126,-3.0937 l 5.3124,-0.875 a 1.0001,1.0001 0 0 0 0.8436,-0.9688 l 0,-10 a 1.0001,1.0001 0 0 0 -0.8438,-1 l -5.3124,-0.875 c -0.3551,-1.0708 -0.8058,-2.107 -1.3126,-3.0938 l 3.1876,-4.2812 a 1.0001,1.0001 0 0 0 -0.094,-1.3125 l -7.0625,-7.06251 a 1.0001,1.0001 0 0 0 -1.3125,-0.094 l -4.2812,3.1875 c -1.0245,-0.5322 -2.0937,-0.9732 -3.2188,-1.3438 l -0.7498,-5.2813 a 1.0001,1.0001 0 0 0 -1,-0.8437 l -10,0 a 1.0001,1.0001 0 0 0 -0.1875,0 z m 1.0625,2 8.25,0 0.7188,4.9375 a 1.0001,1.0001 0 0 0 0.7187,0.8125 c 1.4267,0.4122 2.7939,1.03151 4.0937,1.75001 a 1.0001,1.0001 0 0 0 1.0626,-0.094 l 4.0312,-3.00001 5.8125,5.81251 -3,4.0312 a 1.0001,1.0001 0 0 0 -0.062,1.0938 c 0.693,1.2535 1.2446,2.5775 1.6562,3.9687 a 1.0001,1.0001 0 0 0 0.8126,0.6875 l 5.0312,0.8438 0,8.2812 -5.0312,0.8438 a 1.0001,1.0001 0 0 0 -0.8126,0.7187 c -0.4117,1.3912 -0.9632,2.684 -1.6562,3.9375 a 1.0001,1.0001 0 0 0 0.062,1.0938 l 3,4.0312 -5.8125,5.8125 -4.0312,-3 a 1.0001,1.0001 0 0 0 -1.0626,-0.062 c -1.2535,0.693 -2.5775,1.2444 -3.9687,1.6563 a 1.0001,1.0001 0 0 0 -0.7187,0.7812 l -0.8438,5.0625 -8.25,0 -0.8438,-5.0625 a 1.0001,1.0001 0 0 0 -0.7187,-0.7812 c -1.3527,-0.4005 -2.6367,-0.938 -3.8437,-1.5938 a 1.0001,1.0001 0 0 0 -1.0626,0.062 l -4.1562,2.9375 -5.8438,-5.8437 2.9376,-4.125 a 1.0001,1.0001 0 0 0 0.062,-1.0625 c -0.6837,-1.2549 -1.2199,-2.567 -1.625,-3.9688 a 1.0001,1.0001 0 0 0 -0.8124,-0.7187 l -4.9684,-0.7188 0,-8.2813 4.9688,-0.7187 a 1.0001,1.0001 0 0 0 0.8124,-0.7188 c 0.4051,-1.4017 0.9413,-2.7139 1.625,-3.9687 a 1.0001,1.0001 0 0 0 -0.062,-1.0625 l -2.9376,-4.125 5.8438,-5.84381 4.125,2.93751 a 1.0001,1.0001 0 0 0 1.0625,0.062 c 1.2548,-0.6837 2.5983,-1.25131 4,-1.65621 a 1.0001,1.0001 0 0 0 0.7187,-0.8125 l 0.7184,-4.9375 z m 4.125,13.00001 c -6.6155,0 -12,5.3844 -12,12 0,6.6156 5.3845,12 12,12 6.6156,0 12,-5.3844 12,-12 0,-6.6156 -5.3844,-12 -12,-12 z m 0,2 c 5.5348,0 10,4.4653 10,10 0,5.5347 -4.4652,10 -10,10 -5.5347,0 -10,-4.4653 -10,-10 0,-5.5347 4.4653,-10 10,-10 z" fill="#000000" fill-opacity="1" marker="none" visibility="visible" display="inline" overflow="visible"/></g><text x="0" y="115" fill="#000000" font-size="5px" font-weight="bold" font-family="'Helvetica Neue', Helvetica, Arial-Unicode, Arial, Sans-serif">Created by Three Six Five</text><text x="0" y="120" fill="#000000" font-size="5px" font-weight="bold" font-family="'Helvetica Neue', Helvetica, Arial-Unicode, Arial, Sans-serif">from the Noun Project</text></svg>