<svg xmlns:dc="http://purl.org/dc/elements/1.1/" xmlns:cc="http://creativecommons.org/ns#" xmlns:rdf="http://www.w3.org/1999/02/22-rdf-syntax-ns#" xmlns:svg="http://www.w3.org/2000/svg" xmlns="http://www.w3.org/2000/svg" xmlns:sodipodi="http://sodipodi.sourceforge.net/DTD/sodipodi-0.dtd" xmlns:inkscape="http://www.inkscape.org/namespaces/inkscape" version="1.1" x="0px" y="0px" viewBox="0 0 100 125"><g transform="translate(0,-952.36218)"><path style="text-indent:0;text-transform:none;direction:ltr;block-progression:tb;baseline-shift:baseline;color:#000000;enable-background:accumulate;" d="m 7.6875173,957.36218 c -1.46384,0.1534 -2.69537,1.5282 -2.6875,3 l 0,84.00002 c 1.6e-4,1.5708 1.42925,2.9998 3,3 l 84.0000027,0 c 1.57075,-2e-4 2.99984,-1.4292 3,-3 l 0,-84.00002 c -1.6e-4,-1.5708 -1.42925,-2.9998 -3,-3 -28.097163,0 -56.237613,0 -84.3125027,0 z m 3.3124997,6 78,0 0,78.00002 -78,0 z m 67,2 -1.625,7.375 -7.375,1.625 7.375,1.625 1.625,7.375 1.625,-7.375 7.375,-1.625 -7.375,-1.625 z m -58.71875,6.2188 -4.21875,4.2187 3.71875,3.7187 -3.375,3.375 4.21875,4.2188 3.375,-3.375 3.375,3.375 4.21875,-4.2188 -3.375,-3.375 3.71875,-3.7187 -4.21875,-4.2187 -3.71875,3.7187 z m 3.375,15.781 c -0.6694,0.08 -1.30847,0.3943 -1.78125,0.875 l -8,8 c -1.22333,1.0844 -1.2837,3.2228 -0.12349,4.37452 1.16021,1.1517 3.29813,1.0756 4.37349,-0.1557 l 5.875,-5.87502 5.875,5.87502 c 1.07536,1.2313 3.21328,1.3074 4.37349,0.1557 1.16021,-1.15172 1.09984,-3.29012 -0.12349,-4.37452 l -8,-8 c -0.84091,-0.6768 -1.5543,-0.8971 -2.46875,-0.875 z m 0.34375,10.0002 c -1.65685,0 -3,1.3431 -3,3.00002 0,1.6569 1.34315,3 3,3 1.65685,0 3,-1.3431 3,-3 0,-1.65692 -1.34315,-3.00002 -3,-3.00002 z m 34,2 c -1.65685,0 -3,1.34312 -3,3.00002 0,1.6569 1.34315,3 3,3 1.65685,0 3,-1.3431 3,-3 0,-1.6569 -1.34315,-3.00002 -3,-3.00002 z m -8,3.00002 c -1.65685,0 -3,1.3431 -3,3 0,1.6569 1.34315,3 3,3 1.65685,0 3,-1.3431 3,-3 0,-1.6569 -1.34315,-3 -3,-3 z m 15,2 c -1.65685,0 -3,1.3431 -3,3 0,1.6569 1.34315,3 3,3 1.65685,0 3,-1.3431 3,-3 0,-1.6569 -1.34315,-3 -3,-3 z m -41,1 c -1.65685,0 -3,1.3431 -3,3 0,1.6569 1.34315,3 3,3 1.65685,0 3,-1.3431 3,-3 0,-1.6569 -1.34315,-3 -3,-3 z m 19,4 c -1.65685,0 -3,1.3431 -3,3 0,1.6569 1.34315,3 3,3 1.65685,0 3,-1.3431 3,-3 0,-1.6569 -1.34315,-3 -3,-3 z m 26,2 c -1.65685,0 -3,1.3431 -3,3 0,1.6569 1.34315,3 3,3 1.65685,0 3,-1.3431 3,-3 0,-1.6569 -1.34315,-3 -3,-3 z m -42,2 c -1.65685,0 -3,1.3431 -3,3 0,1.6569 1.34315,3 3,3 1.65685,0 3,-1.3431 3,-3 0,-1.6569 -1.34315,-3 -3,-3 z m 8,0 c -1.65685,0 -3,1.3431 -3,3 0,1.6569 1.34315,3 3,3 1.65685,0 3,-1.3431 3,-3 0,-1.6569 -1.34315,-3 -3,-3 z m 48,5 c -2,0 -3,2 -3,3 0,3 3,8 3,8 0,-10e-5 3,-5 3,-8 0,-1 -1,-3 -3,-3 z m -13.03125,0.9688 c -1.65685,0 -3,1.3431 -3,3 0,1.6568 1.34315,3 3,3 1.65685,-10e-5 3,-1.3432 3,-3 0,-1.6569 -1.34315,-3.0001 -3,-3 z m 2.53125,7 c -1.38071,0 -2.5,1.1192 -2.5,2.5 0,1.3807 1.11929,2.5 2.5,2.5 1.38071,-10e-5 2.5,-1.1193 2.5,-2.5 0,-1.3808 -1.11929,-2.5001 -2.5,-2.5 z m 4.96875,4.5312 c -1.38071,0 -2.5,1.1193 -2.5,2.5 0,1.3807 1.11929,2.5 2.5,2.5 1.38071,0 2.5,-1.1193 2.5,-2.5 0,-1.3807 -1.11929,-2.5 -2.5,-2.5 z m 5.53125,2.5 c -1.10457,0 -2,0.8954 -2,2 0,1.1046 0.89543,2 2,2 1.10457,0 2,-0.8954 2,-2 0,-1.1046 -0.89543,-2 -2,-2 z" fill="#000000" fill-opacity="1" stroke="none" marker="none" visibility="visible" display="inline" overflow="visible"/></g><text x="0" y="115" fill="#000000" font-size="5px" font-weight="bold" font-family="'Helvetica Neue', Helvetica, Arial-Unicode, Arial, Sans-serif">Created by AFY Studio</text><text x="0" y="120" fill="#000000" font-size="5px" font-weight="bold" font-family="'Helvetica Neue', Helvetica, Arial-Unicode, Arial, Sans-serif">from the Noun Project</text></svg>