<?xml version="1.0" encoding="UTF-8" standalone="no"?>
<svg
   xmlns:dc="http://purl.org/dc/elements/1.1/"
   xmlns:cc="http://creativecommons.org/ns#"
   xmlns:rdf="http://www.w3.org/1999/02/22-rdf-syntax-ns#"
   xmlns:svg="http://www.w3.org/2000/svg"
   xmlns="http://www.w3.org/2000/svg"
   xmlns:sodipodi="http://sodipodi.sourceforge.net/DTD/sodipodi-0.dtd"
   xmlns:inkscape="http://www.inkscape.org/namespaces/inkscape"
   data-name="Layer 1"
   viewBox="0 0 300 100"
   x="0px"
   y="0px"
   version="1.1"
   id="svg882"
   sodipodi:docname="logo_splashscreen.svg"
   width="300"
   height="100"
   inkscape:version="0.92.3 (d244b95, 2018-08-02)">
  <metadata
     id="metadata888">
    <rdf:RDF>
      <cc:Work
         rdf:about="">
        <dc:format>image/svg+xml</dc:format>
        <dc:type
           rdf:resource="http://purl.org/dc/dcmitype/StillImage" />
        <dc:title>tree</dc:title>
      </cc:Work>
    </rdf:RDF>
  </metadata>
  <defs
     id="defs886" />
  <sodipodi:namedview
     pagecolor="#ffffff"
     bordercolor="#666666"
     borderopacity="1"
     objecttolerance="10"
     gridtolerance="10"
     guidetolerance="10"
     inkscape:pageopacity="0"
     inkscape:pageshadow="2"
     inkscape:window-width="1855"
     inkscape:window-height="1056"
     id="namedview884"
     showgrid="false"
     inkscape:pagecheckerboard="true"
     inkscape:zoom="2.2425"
     inkscape:cx="149.37725"
     inkscape:cy="101.64145"
     inkscape:window-x="1985"
     inkscape:window-y="24"
     inkscape:window-maximized="1"
     inkscape:current-layer="svg882" />
  <title
     id="title874">tree</title>
  <path
     d="m 21.214336,43.899204 a 4.3077363,4.1037907 0 0 0 2.164367,-0.118196 17.984105,17.132667 0 0 0 1.369204,1.130079 6.184118,5.8913373 0 0 0 1.413862,0.778763 7.7758923,7.407751 0 0 1 -6.218638,-1.360351 c -0.607596,-0.481594 -1.353513,0.431217 -0.755091,0.919895 a 9.279798,8.8404557 0 0 0 1.823515,1.17287 6.0062084,5.7218506 0 0 1 -0.426808,0.786797 c -0.326857,0.440211 -0.896549,0.827938 -1.090636,1.336474 a 0.30488486,0.29045055 0 0 0 0.23125,0.397418 c 0.689913,0.0662 1.333237,-0.512791 1.748922,-0.975698 a 4.5155792,4.3017938 0 0 0 0.743022,-1.072394 7.7647882,7.3971723 0 0 0 1.256959,0.27259 l -0.106687,0.141848 a 2.3123455,2.2028699 0 0 1 -1.070838,0.708784 c -0.601561,0.203329 -0.36718,1.206445 0.276627,1.061282 l 0.265523,-0.06857 a 3.7254858,3.5491065 0 0 1 -0.539524,0.531704 5.5661411,5.3026176 0 0 1 -2.236546,1.002415 c -0.332156,0.08516 -0.170691,0.549202 0.139037,0.533832 a 5.0818978,4.8413003 0 0 0 4.021184,-2.72284 l 0.125745,-0.09692 a 3.5207807,3.3540932 0 0 0 0.776333,-0.86269 l 0.66167,0.04727 a 4.3123227,4.1081604 0 0 1 -0.815684,1.769116 c -0.181295,0.242324 0.148478,0.61398 0.405058,0.392221 a 3.8543918,3.6719101 0 0 0 1.158709,-2.145261 l 0.506936,-0.01627 c 1.383198,-0.07566 2.740583,-0.353916 4.110033,-0.536195 0.407217,-0.05436 0.815915,-0.09692 1.225328,-0.127669 0.365475,0.06857 0.732406,0.130024 1.101259,0.177323 a 8.5696071,8.1638878 0 0 0 -2.160035,1.142374 0.58975268,0.56183146 0 0 0 0.710437,0.89697 8.2316507,7.8419317 0 0 1 3.578234,-1.204314 4.7685641,4.5428012 0 0 1 -0.770521,1.525134 3.4826402,3.3177579 0 0 1 -3.56906,1.007852 c -0.627642,-0.170208 -0.939023,0.853469 -0.316732,1.052059 a 4.6534169,4.4331062 0 0 0 4.369294,-0.687033 3.7744892,3.5957904 0 0 1 0.564402,0.514219 2.6070919,2.4836618 0 0 1 0.538558,1.232202 0.58635439,0.55859411 0 0 0 1.164992,-0.120569 4.4767145,4.2647691 0 0 0 -0.515159,-1.766755 3.9381568,3.7517088 0 0 0 -0.730728,-0.949935 6.7154339,6.3974988 0 0 0 0.469992,-0.835266 l 0.352532,-0.783253 2.273945,0.744717 a 10.87447,10.359628 0 0 1 3.796216,1.717818 l -0.327654,0.294987 a 3.3880123,3.2276103 0 0 1 -1.49134,0.669301 0.56304169,0.53638519 0 0 0 0.123038,1.066243 4.0332672,3.8423164 0 0 0 2.196723,-0.689866 l 0.4212,-0.313025 c 0.367718,0.512558 0.685088,1.066723 1.03799,1.586845 l -0.216973,0.05203 a 11.066379,10.542454 0 0 1 -2.880651,0.279444 3.0715402,2.9261213 0 0 1 -2.186073,-0.802639 2.7697937,2.6386603 0 0 1 -0.678312,-2.003409 c 0.05398,-0.36621 -0.531089,-0.550142 -0.670345,-0.184411 a 3.358079,3.199094 0 0 0 0.100854,2.635211 3.529954,3.3628316 0 0 0 1.882904,1.696068 c -0.30645,0.07325 -0.614131,0.137111 -0.923563,0.186773 a 12.063593,11.492455 0 0 1 -3.57027,0.06144 l -0.202681,-0.198581 a 4.9819593,4.7460934 0 0 1 -0.66917,-1.217312 0.35847508,0.34150343 0 0 0 -0.665782,0.252016 7.9347321,7.5590701 0 0 0 0.38616,0.960102 A 12.322854,11.739442 0 0 1 33.280582,54.294091 12.47252,11.882021 0 0 1 30.26915,52.69968 6.4568969,6.151202 0 0 0 30.030973,51.247605 10.559204,10.059289 0 0 0 29.160248,49.052692 C 28.967192,48.67631 28.333459,48.908485 28.51934,49.295013 a 6.619116,6.3057407 0 0 1 0.512498,2.152111 l 0.0069,0.217512 a 8.9191506,8.4968827 0 0 1 -1.367632,-1.737663 c -0.374644,-0.63691 -1.500282,-0.251549 -1.138672,0.43099 a 14.348177,13.668879 0 0 0 1.389486,2.113584 c -0.319862,-0.08035 -0.636569,-0.177316 -0.946518,-0.282756 a 5.9922072,5.7085123 0 0 1 -2.216316,-1.335299 c -0.255383,-0.238317 -0.687981,0.163118 -0.449712,0.421057 a 8.7212043,8.3083078 0 0 0 2.28338,1.75896 5.5883493,5.3237748 0 0 0 2.459839,0.688443 13.984392,13.322316 0 0 0 1.410001,1.205264 l -0.485961,0.229328 a 3.5297126,3.3626019 0 0 1 -1.505838,0.215134 3.6059941,3.4352717 0 0 1 -2.574504,-1.5015 c -0.40483,-0.552034 -1.208678,0.06384 -0.860345,0.619188 a 4.8279474,4.5993734 0 0 0 3.170758,2.127992 3.1473393,2.9983315 0 0 1 -0.289659,0.746852 3.107267,2.9601568 0 0 1 -0.965576,0.938349 c -0.630527,0.401904 0.06879,1.212589 0.694262,0.875446 a 4.0467859,3.8551947 0 0 0 1.361232,-1.190355 3.5816131,3.4120452 0 0 0 0.616522,-1.285637 4.4537817,4.2429222 0 0 0 0.76764,-0.125312 3.6716542,3.4978238 0 0 0 1.530222,-0.705003 q 0.49704,0.279213 1.018934,0.516109 a 8.9401522,8.51689 0 0 1 -0.721532,1.352781 6.1384938,5.8478731 0 0 1 -1.406132,1.488251 c -0.437174,0.30333 0.05128,0.878529 0.496547,0.626272 a 6.8484438,6.524211 0 0 0 2.989951,-2.936688 12.5348,11.941353 0 0 0 3.177513,0.623431 q 0.583437,0.04022 1.160387,0.03072 A 24.690606,23.521656 0 0 1 35.560647,59.801533 12.993213,12.378063 0 0 1 28.088433,61.707779 10.380087,9.8886518 0 0 1 26.240295,60.76754 2.8598346,2.724439 0 0 1 25.2566,58.352855 c 0.03547,-0.414203 -0.624979,-0.517041 -0.675913,-0.09692 a 4.9879942,4.7518425 0 0 0 0.651768,2.885434 l -0.804337,-0.313966 c -0.292573,-0.130017 -0.579354,-0.27401 -0.86203,-0.430044 l 0.138049,-0.277793 a 8.6258526,8.2174701 0 0 0 -0.362118,-4.459321 l 0.07001,-0.07325 a 2.8159003,2.6825843 0 0 0 0.305099,-1.692519 5.574831,5.3108966 0 0 0 -0.47314,-1.791571 c -0.136867,-0.307344 -0.703188,-0.205686 -0.62522,0.148937 a 6.7026396,6.3853102 0 0 1 0.133489,1.590859 l -0.05769,0.459834 a 10.036097,9.5609472 0 0 0 -1.544978,-1.996801 c -0.339668,-0.336894 -0.962934,0.09456 -0.619427,0.445182 a 8.4213887,8.0226875 0 0 1 1.949068,6.959331 10.047925,9.5722154 0 0 1 -0.967765,-0.800037 6.9638314,6.6341364 0 0 0 -1.266372,-4.038242 c -0.260732,-0.373306 -0.794196,0.04022 -0.571631,0.411611 a 5.90458,5.6250339 0 0 1 0.664322,1.827504 l 0.06009,0.538325 -0.406532,-0.615626 c -0.341098,-0.581353 -1.367519,-0.22934 -1.038009,0.392928 a 10.798911,10.287648 0 0 0 6.107353,5.018141 l -0.523828,0.464325 a 4.3029084,4.0991914 0 0 1 -0.842235,0.210419 3.6192707,3.4479204 0 0 1 -1.738061,-0.141854 0.29812592,0.28401124 0 0 0 -0.236573,0.521074 4.4578856,4.2468316 0 0 0 1.905346,0.51728 6.8342011,6.5106435 0 0 0 -0.993108,2.943591 c -0.04273,0.510667 0.763538,0.638811 0.83403,0.12058 a 5.2318054,4.9841111 0 0 1 1.390921,-2.706907 5.999449,5.7154115 0 0 1 1.186951,-0.916355 c 0.32976,-0.200951 0.715987,-0.329806 1.059493,-0.513497 q 0.508135,0.07805 1.02448,0.115836 c 0.33966,0.02352 0.680259,0.03782 1.020857,0.04022 l -0.335298,0.400495 a 16.461128,15.681794 0 0 0 -1.479776,2.075516 3.7986293,3.6187871 0 0 0 -1.858757,0.579703 c -0.278334,0.167851 -0.01568,0.586786 0.279761,0.473782 a 3.6578945,3.4847154 0 0 1 1.132878,-0.240429 12.443793,11.854654 0 0 0 -0.708018,1.797244 13.998393,13.335653 0 0 0 -0.422939,2.797333 c -0.03284,0.448955 0.671327,0.564091 0.734815,0.106399 a 11.876751,11.314459 0 0 1 1.821099,-4.242218 5.6588373,5.3909259 0 0 1 0.404827,0.619418 15.775801,15.028912 0 0 1 0.828218,1.882591 0.39009808,0.37162929 0 0 0 0.747125,-0.177317 11.917547,11.353323 0 0 0 -0.26552,-1.292502 12.290748,11.708856 0 0 0 1.467227,0.673794 c 0.297425,0.115846 0.588291,-0.299067 0.298387,-0.478745 -0.763941,-0.473792 -1.484512,-1.009515 -2.220763,-1.523013 a 5.1535927,4.909601 0 0 0 -0.425339,-0.91021 q 0.479163,-0.645186 1.006875,-1.256798 c 0.406996,-0.47 0.94844,-0.916835 1.329622,-1.434826 a 14.691686,13.996123 0 0 0 2.284351,-0.495065 c 0.03896,0.219864 0.04611,0.523905 0.05719,0.620839 0.04463,0.380871 0.06902,0.764813 0.08112,1.148046 l -0.163219,0.120582 c -0.223628,0.226951 -0.371516,0.520834 -0.599879,0.750154 a 2.6452325,2.5199969 0 0 1 -0.779966,0.53147 0.36837247,0.35093226 0 0 0 0.271831,0.65204 3.7798002,3.6008496 0 0 0 1.216895,-0.556526 6.2958851,5.9978133 0 0 1 -0.281004,1.252305 c -0.161742,0.452268 0.555228,0.751345 0.719115,0.295996 a 17.226842,16.411253 0 0 0 0.985378,-3.410895 5.9419964,5.6606789 0 0 0 0,-1.952106 17.62901,16.794382 0 0 0 3.479262,-2.077889 0.46275897,0.44084972 0 0 0 0.331795,-0.120579 8.3680402,7.9718644 0 0 1 0.701514,-0.546591 7.6498822,7.2877074 0 0 1 -1.306176,2.352121 c -0.325334,0.360537 0.265422,0.777823 0.601311,0.448246 a 9.4770197,9.0283409 0 0 0 1.878563,-2.373971 7.8898321,7.5162958 0 0 0 0.526034,-1.369333 v 0 a 11.33602,10.799328 0 0 1 5.364815,-0.923679 10.89885,10.382855 0 0 1 3.570506,0.822494 7.5617731,7.2037683 0 0 0 -3.15001,1.30669 9.4386374,8.9917752 0 0 0 -2.447031,3.021306 l -0.156329,0.278733 a 3.5106422,3.3444342 0 0 1 -1.338524,0.21277 3.3952538,3.2345094 0 0 0 -0.453449,-1.193206 3.198998,3.047545 0 0 0 -1.073249,-1.140481 0.29474632,0.28079168 0 0 0 -0.362193,0.442101 3.7911458,3.6116582 0 0 1 0.796607,1.094392 2.2182005,2.1131823 0 0 1 0.141032,0.60759 2.5105326,2.3916741 0 0 1 -0.520955,-0.272119 c -0.620393,-0.4239 -1.351811,0.454639 -0.7346,0.894369 a 4.5027851,4.2896059 0 0 0 2.604448,0.848269 3.7175197,3.5415177 0 0 1 -2.244996,1.356804 7.2484393,6.9052693 0 0 1 -3.741655,-0.77238 c -0.707554,-0.31963 -1.178037,0.733374 -0.480127,1.059869 0.466393,0.217503 0.926252,0.45487 1.390942,0.669301 a 2.2961717,2.187462 0 0 1 -0.613391,0.439259 2.1967161,2.092715 0 0 1 -1.703998,0.111104 0.29812592,0.28401124 0 0 0 -0.235946,0.521073 2.2918268,2.1833226 0 0 0 1.888474,0.156024 4.969165,4.7339051 0 0 0 0.913429,-0.402617 6.8658244,6.540769 0 0 0 0.79661,-0.401914 4.72994,4.5060062 0 0 0 1.621944,0.27307 l -0.678484,0.57686 a 14.716793,14.02004 0 0 1 -3.224109,1.923258 6.4399992,6.1351042 0 0 0 -3.030242,-0.949456 c -0.484007,-0.04963 -0.75801,0.663157 -0.247015,0.820851 a 13.824586,13.170074 0 0 1 1.508724,0.555576 l 0.29952,0.144205 a 18.603531,17.722765 0 0 1 -2.396831,0.639041 0.57935357,0.55192497 0 0 0 0.125992,1.097213 14.050776,13.385558 0 0 0 2.665752,-0.429563 11.777536,11.219941 0 0 1 -1.007345,1.651138 c -0.603473,0.665317 -1.342411,0.492493 -2.057656,0.03552 a 3.7597643,3.5817623 0 0 0 -0.449947,-0.436907 4.8602945,4.6301892 0 0 0 -1.652838,-1.641682 6.5684228,6.2574475 0 0 0 -3.070575,-1.111403 0.31478268,0.29987936 0 0 0 -0.09467,0.592932 5.4862383,5.226498 0 0 1 2.650544,1.142133 3.3662864,3.2069131 0 0 0 -2.802382,0.200952 c -0.303688,0.186773 -0.01836,0.651809 0.308963,0.523434 1.641495,-0.644003 2.883254,0.421999 3.901947,1.488962 a 4.2263852,4.0262913 0 0 1 -1.094972,-0.244932 0.38623572,0.36794966 0 0 0 -0.305118,0.673324 7.2144019,6.8728436 0 0 0 2.179589,0.631465 4.6176904,4.3990709 0 0 1 -0.711892,0.962225 4.7753228,4.5492403 0 0 1 -1.50076,0.997927 0.32492102,0.30953779 0 0 0 0.239656,0.574969 4.1933138,3.9947856 0 0 0 2.886873,-2.501826 l 0.16125,-0.0086 a 6.4399992,6.1351042 0 0 0 1.90825,-0.405698 c -0.07224,0.399313 -0.123526,0.800988 -0.163218,1.206915 l -0.100333,0.113495 c -0.565093,0.918485 -1.629687,1.42584 -2.097756,2.41192 -0.172099,0.362189 0.389121,0.574969 0.583929,0.239968 a 7.3276173,6.980699 0 0 1 1.527782,-1.461073 l -0.01363,0.401915 c -0.01286,0.457231 0.730729,0.573078 0.748308,0.108752 a 14.288069,13.611616 0 0 1 1.144346,-4.460125 7.8796933,7.5066377 0 0 1 1.397945,-2.386853 l 0.520682,-0.351792 0.103321,-0.09456 a 17.625872,16.791393 0 0 0 2.27794,-1.310463 l -0.238672,0.750865 a 13.497251,12.858238 0 0 1 -2.353019,2.36605 c -0.26542,0.239968 0.04119,0.661025 0.351151,0.442812 0.502094,-0.352973 1.000121,-0.731482 1.520781,-1.066723 a 10.221247,9.737334 0 0 1 -0.908128,1.667939 9.3594593,8.9163457 0 0 1 -2.073347,2.251404 c -0.351149,0.239266 0.04833,0.741649 0.403669,0.509245 0.421196,-0.276132 0.862736,-0.509476 1.257947,-0.817058 a 7.524839,7.1685834 0 0 1 0.04833,0.82061 6.324611,6.025179 0 0 1 -0.355293,1.724907 0.29474632,0.28079168 0 0 0 0.540952,0.222246 9.9817818,9.5092044 0 0 0 0.606391,-1.831537 3.4792605,3.3145384 0 0 0 0.04437,-1.788268 l 0.424871,-0.522014 0.402756,-0.59128 a 5.7066341,5.4364593 0 0 0 0.380637,0.966007 9.0970603,8.6663698 0 0 1 -0.105046,4.155566 0.29812592,0.28401124 0 0 0 0.546993,0.224597 6.7907497,6.4692485 0 0 0 0.585875,-3.018108 c 0.386162,0.355335 0.823388,0.664328 1.241034,0.990353 0.333621,0.260772 0.742565,-0.238317 0.412421,-0.502391 a 4.2085219,4.0092738 0 0 1 -1.194903,-2.13958 6.0320378,5.746457 0 0 1 -0.132651,-2.224225 9.6940347,9.235082 0 0 1 0.258517,-1.090128 l 0.177512,0.21515 a 5.8985446,5.6192843 0 0 1 1.827873,3.319577 0.37320036,0.35553156 0 0 0 0.736989,0.01479 5.5728998,5.309057 0 0 0 -0.06535,-1.760131 5.3790577,5.1243919 0 0 0 -0.716945,-1.584714 11.848991,11.288012 0 0 1 -1.030299,-1.45728 2.7101684,2.5818584 0 0 1 -0.191831,-0.661035 l 0.693521,-1.502901 0.176049,-0.374256 a 14.885528,14.180789 0 0 1 3.444749,-2.85669 6.6640162,6.3485151 0 0 1 -0.149415,1.509534 5.221908,4.9746824 0 0 1 -1.513332,2.348338 c -0.42258,0.439979 0.170853,1.01707 0.677596,0.862698 a 2.7410673,2.6112944 0 0 0 0.889783,-0.461735 l -0.02835,0.531 a 4.2131084,4.0136434 0 0 0 -0.912962,1.184691 5.712669,5.4422088 0 0 0 -0.669604,1.822551 c -0.05152,0.320111 0.472876,0.483008 0.587304,0.160766 a 6.5177293,6.2091542 0 0 1 0.788176,-1.583764 l 0.139541,-0.174917 a 8.8674908,8.4476692 0 0 0 0.157049,1.986389 8.0351528,7.6547372 0 0 0 1.164479,2.57956 c 0.271412,0.396942 0.843431,0.01651 0.717168,-0.384183 a 11.737706,11.181996 0 0 1 -0.415281,-1.974801 l 0.422109,0.139492 a 3.6366513,3.4644778 0 0 1 1.553647,1.124641 c 0.258519,0.352262 0.796609,-0.04493 0.555204,-0.400015 a 5.4703059,5.2113202 0 0 0 -1.476302,-1.589206 4.0796158,3.8864707 0 0 0 -1.14734,-0.549672 c -0.03033,-1.052294 0.03673,-2.10933 0.112419,-3.167605 a 6.4861058,6.1790281 0 0 1 3.41816,2.600057 c 0.225354,0.346828 0.744461,-0.03542 0.52892,-0.380871 l -0.390304,-0.554396 a 0.39299492,0.37438899 0 0 0 0.176047,-0.557717 c -0.410727,-0.498826 -0.83439,-0.976871 -1.278345,-1.448762 A 9.5651306,9.1122791 0 0 1 51.239974,66.296321 3.5202982,3.3536332 0 0 1 51.079712,63.689862 2.3140356,2.2044799 0 0 1 53.3561,63.118435 c 1.972207,0.631706 6.078387,7.513303 -0.111448,15.591879 A 16.131621,15.367885 0 0 1 41.539401,82.22428 c -0.429481,0.01981 -0.661423,0.418935 -0.265423,0.585373 a 4.8762272,4.6453671 0 0 0 1.644651,0.510182 l 0.223375,0.01164 a 4.2379727,4.0373298 0 0 1 -2.086163,0.535551 4.9954775,4.7589721 0 0 1 -3.485073,-1.425841 c -0.257137,-0.265495 -0.7739,-0.04727 -0.612897,0.328383 a 4.8139468,4.5860351 0 0 0 3.125359,2.696372 5.6849082,5.415762 0 0 0 4.714249,-0.739976 13.73551,13.085218 0 0 1 2.200597,-1.108803 l 0.458499,-0.148948 -0.05623,0.02607 a 6.8537544,6.5292707 0 0 0 -2.438104,2.190404 c -0.226846,0.311371 0.24137,0.670016 0.49053,0.365744 a 4.6418302,4.4220675 0 0 1 3.0819,-1.415197 l 0.291706,-0.03076 a 3.5924758,3.4223938 0 0 1 -1.007861,1.080906 c -0.318433,0.222244 0.03624,0.628876 0.358964,0.452977 a 11.118522,10.592128 0 0 0 1.435126,-0.881356 3.2622441,3.1077964 0 0 0 0.708737,-0.674265 11.301984,10.766904 0 0 1 1.526376,0.198585 c -0.322105,0.2603 -0.619899,0.535483 -0.886655,0.786329 a 5.9038558,5.6243437 0 0 1 -1.76512,1.281142 4.517269,4.3034037 0 0 1 -2.41616,0.335013 0.35292305,0.33621429 0 0 0 -0.193066,0.638572 4.4018813,4.1934787 0 0 0 2.267907,0.436895 4.8262579,4.5977635 0 0 0 2.196723,-0.801457 7.9306284,7.5551608 0 0 0 0.787439,-0.607598 l -0.203658,0.813751 a 3.1956184,3.0443254 0 0 1 -1.351368,1.938873 0.34157736,0.32540595 0 0 0 0.252064,0.604513 2.7145135,2.5859977 0 0 0 1.12468,-0.576145 3.5989934,3.4286032 0 0 0 0.588785,-0.742592 4.7905311,4.5637285 0 0 0 2.53224,2.604623 0.37078631,0.3532317 0 0 0 0.439615,-0.533598 4.7164218,4.493128 0 0 1 -1.229911,-2.879676 2.8096238,2.6766056 0 0 1 1.70259,-2.212874 l 0.16322,-0.08746 a 4.1520348,3.9554614 0 0 0 0.430395,4.00836 6.2065682,5.9127246 0 0 0 0.952558,1.054424 5.6513542,5.3837967 0 0 0 0.633435,0.498139 6.4646216,6.158561 0 0 1 0.703214,0.429101 c 0.313821,0.280153 0.706342,-0.217517 0.408278,-0.497427 A 4.4265038,4.2169358 0 0 1 58.550384,90.58593 L 58.162373,89.979288 A 5.9555146,5.6735569 0 0 1 57.65086,88.856529 3.2368977,3.0836503 0 0 1 57.61757,87.078907 l 0.563683,0.662675 a 7.441316,7.0890143 0 0 1 0.824349,1.096745 5.7360844,5.4645156 0 0 1 0.640169,1.359877 0.35992337,0.34288317 0 0 0 0.710164,0.01425 4.0277154,3.8370276 0 0 0 -0.0097,-2.55634 4.9665093,4.7313756 0 0 0 -0.75965,-1.291073 2.9788434,2.8378134 0 0 1 1.682772,1.435763 16.823708,16.027209 0 0 0 1.325998,2.499743 3.7303141,3.5537057 0 0 0 1.081681,0.966009 2.6037123,2.4804423 0 0 0 1.375951,0.285827 c 0.310592,0.01581 0.607596,-0.402384 0.271881,-0.600491 A 3.0087769,2.8663296 0 0 1 64.557805,90.008995 8.0457749,7.6648557 0 0 1 63.996586,88.860484 16.214662,15.446996 0 0 0 62.796113,86.18226 l -0.09913,-0.144204 0.06461,0.04961 0.680036,0.519878 c 0.267272,0.203338 0.582005,0.355813 0.842001,0.562453 a 0.34761213,0.33115493 0 0 0 0.533039,-0.379932 7.5366679,7.1798518 0 0 0 -0.321662,-0.932193 l -0.22808,-0.392218 0.317961,-0.09693 a 11.191183,10.661348 0 0 1 0.684352,1.58684 4.5479268,4.3326099 0 0 1 0.0651,2.417419 0.41037564,0.39094701 0 0 0 0.778732,0.212783 9.3162482,8.8751803 0 0 0 0.580822,-3.019049 l 0.01594,0.03545 a 5.9574461,5.675397 0 0 1 -0.4281,5.045989 0.35509547,0.33828391 0 0 0 0.559073,0.416815 5.9668603,5.6843654 0 0 0 1.559168,-2.358746 7.0608733,6.7265835 0 0 0 0.300904,-2.88681 6.2039124,5.9101945 0 0 0 -0.485207,-1.563675 l 0.0715,-0.44494 0.0041,-0.01746 0.229544,-0.437138 0.305515,0.122934 a 3.4708115,3.3064894 0 0 1 0.08481,1.12441 7.278855,6.9342452 0 0 0 0.205635,3.067313 4.7767718,4.5506199 0 0 0 1.916213,2.232502 0.35654377,0.33966364 0 0 0 0.501872,-0.470006 5.8546105,5.5774301 0 0 1 -0.943389,-2.843089 22.141451,21.093187 0 0 1 0.257139,-2.391684 1.3626881,1.2981731 0 0 1 0.248387,0.428623 c 0.212527,0.62746 0.03969,1.320396 0.191832,1.961098 a 2.6729932,2.5464433 0 0 0 0.941441,1.34853 c 0.333644,0.284879 0.762336,-0.238318 0.429014,-0.522485 -0.463484,-0.395294 -0.07841,-1.5178 -0.0066,-2.017122 l 0.03525,-0.334535 a 6.5336614,6.2243322 0 0 1 0.561735,4.469661 c -0.09494,0.33854 0.440996,0.530991 0.642338,0.263845 a 6.061247,5.7742834 0 0 0 0.720573,-5.17431 4.791738,4.5648782 0 0 1 0.709471,0.602168 c 0.358058,0.37637 0.844914,0.883963 0.792987,1.420158 a 0.34833653,0.33184456 0 0 0 0.68847,0.09931 4.2951836,4.0918325 0 0 0 0.0281,-1.899626 4.5288563,4.314442 0 0 0 -1.21613,-1.775259 l -0.444697,-0.368105 a 2.5745028,2.4526157 0 0 1 2.637032,1.397236 3.3568719,3.1979444 0 0 1 0.04463,2.094892 3.2105849,3.0585833 0 0 1 -0.60131,1.027941 6.1199065,5.8301657 0 0 1 -0.735043,0.786104 c -0.37418,0.193859 -0.160031,0.778997 0.252065,0.604513 l 0.260812,-0.06855 0.16913,-0.01338 a 4.318599,4.1141394 0 0 0 2.99388,-3.186807 3.7657989,3.5875114 0 0 0 -0.563438,-2.761901 l 0.323486,0.141849 a 6.7284695,6.4099168 0 0 1 1.617383,2.614282 c 0.08948,0.336664 0.687506,0.193868 0.624733,-0.14893 a 9.8441855,9.3781222 0 0 0 -0.458504,-1.736499 11.098485,10.573041 0 0 0 1.332507,0.396953 6.4610007,6.1551115 0 0 0 2.464684,0.06855 4.084685,3.8913 0 0 0 1.122731,-0.363607 9.9117764,9.4425138 0 0 0 0.913435,-0.638093 c 0.380168,-0.224598 -0.04091,-0.75347 -0.419821,-0.528871 a 2.6867529,2.559551 0 0 1 -1.093516,0.167854 7.0099384,6.6780603 0 0 1 -1.166424,-0.07324 7.239266,6.8965307 0 0 1 -1.812904,-0.578518 l 0.244585,-0.05674 a 6.4025827,6.0994594 0 0 0 1.66563,-0.800509 c 0.319347,-0.189124 0.0085,-0.728873 -0.328564,-0.556527 a 5.2955341,5.0448226 0 0 1 -3.728151,0.08037 16.150932,15.386284 0 0 1 -3.787551,-1.248755 10.446471,9.9518939 0 0 1 -3.228442,-12.711504 2.982706,2.841493 0 0 1 3.723821,0.348719 2.9339436,2.7950391 0 0 1 0.564869,0.514208 7.2151261,6.8735339 0 0 0 -1.21761,2.057075 c -0.132163,0.299068 0.329478,0.58939 0.531088,0.300249 a 5.6424226,5.3752874 0 0 1 1.011686,-1.031259 l 0.298139,-0.22695 a 2.4810822,2.3636177 0 0 1 -0.694951,2.719358 0.35171564,0.33506436 0 0 0 0.423956,0.534542 3.9632623,3.7756254 0 0 0 1.672859,-2.636825 3.3484228,3.1898957 0 0 0 -0.120802,-1.238125 l 0.461781,0.541877 0.138823,0.174944 0.491467,0.698611 a 5.9808616,5.6977036 0 0 1 -0.367744,4.614794 c -0.222141,0.340205 0.271881,0.734085 0.527465,0.392929 a 6.8103026,6.487876 0 0 0 1.079513,-2.250462 c 0.198232,0.631937 0.368187,1.27453 0.555203,1.919003 a 2.8528346,2.7177697 0 0 0 -0.850951,1.697249 4.5624101,4.3464075 0 0 0 0.129926,2.115705 c 0.09812,0.313966 0.603479,0.174945 0.573079,-0.134759 a 4.2780443,4.0755049 0 0 1 0.232245,-1.808602 3.3711145,3.2115126 0 0 1 0.363578,-0.620829 5.1176242,4.8753361 0 0 0 0.424872,0.745421 5.0234795,4.7856482 0 0 0 1.60239,1.349009 c 0.379701,0.231682 0.816902,-0.302149 0.433156,-0.527448 a 3.5306779,3.3635219 0 0 1 -1.221639,-1.799813 19.472802,18.550883 0 0 1 -0.650571,-2.17245 18.886931,17.992749 0 0 0 -0.638515,-2.030128 l 0.440084,0.476384 a 10.473991,9.9781116 0 0 0 2.03207,1.56367 3.9439504,3.7572283 0 0 0 0.05941,0.518231 c 0.03426,0.294104 0.04489,0.5901 0.08654,0.883733 a 5.4024734,5.1466987 0 0 0 0.515876,1.525135 0.35292305,0.33621429 0 1 0 0.613856,-0.326255 2.2092691,2.1046732 0 0 1 -0.282483,-0.845668 10.189625,9.7072074 0 0 1 -0.201929,-1.222525 l 0.0044,-0.09216 a 12.599012,12.002525 0 0 0 1.680845,0.709727 11.589971,11.041255 0 0 1 0.724172,1.18304 4.6444856,4.4245974 0 0 1 0.464908,1.960861 c -0.0266,0.435718 0.681693,0.541157 0.70827,0.101658 a 7.5707051,7.2122776 0 0 0 -0.09221,-1.967467 l 0.257606,0.07094 a 4.6589696,4.4383954 0 0 1 1.21933,0.624142 10.197349,9.7145657 0 0 1 1.962071,1.960381 c 0.2599,0.321763 0.729257,-0.03782 0.5183,-0.372835 -0.275583,-0.436899 -0.549213,-0.882782 -0.854086,-1.30456 a 3.678172,3.5040323 0 0 1 1.396513,-0.809493 c 0.416113,-0.09456 0.366804,-0.722016 -0.07423,-0.646837 a 4.7086973,4.4857689 0 0 0 -1.991624,0.64519 l -0.424872,-0.39577 a 7.1743302,6.8346689 0 0 0 -0.631956,-0.466448 8.9715336,8.5467855 0 0 0 1.063605,-0.03312 c 0.508652,-0.04493 0.551603,-0.842836 0.01928,-0.872625 a 14.076605,13.410162 0 0 1 -2.477955,-0.343275 8.4776343,8.0762698 0 0 1 0.753636,-0.572138 c 0.373705,-0.234063 -0.04213,-0.74306 -0.415651,-0.524375 -0.480644,0.281335 -1.052745,0.450146 -1.513554,0.762212 a 9.8758077,9.408248 0 0 1 -1.753042,-0.781836 2.3311746,2.2208074 0 0 0 0.933253,-0.952997 c 0.139048,-0.291983 -0.313823,-0.56126 -0.513956,-0.290562 -0.454362,0.617767 -1.133385,0.320582 -1.771163,0.255099 l -0.07841,-0.0019 a 10.802774,10.291328 0 0 1 -1.376998,-1.345975 c -0.34193,-0.403566 -0.64791,-0.832659 -0.958598,-1.25821 a 7.5173557,7.1614545 0 0 1 1.982116,0.108752 0.36209604,0.34495303 0 0 0 0.197746,-0.656772 9.5388179,9.0872118 0 0 0 -2.513208,-0.644005 l -0.658289,-0.04493 -0.191831,-0.200951 a 7.8504838,7.478811 0 0 0 -2.093166,-1.481637 24.123082,22.981 0 0 0 4.416384,-1.18304 l 0.480127,0.134759 a 10.617623,10.114942 0 0 1 1.046942,1.613794 0.31486024,0.2999534 0 0 0 0.584909,-0.222247 9.1731,8.7388094 0 0 0 -0.304596,-0.906187 l 0.627648,0.285359 0.781392,0.392688 a 13.99091,13.328524 0 0 1 -0.208341,1.925389 4.8909524,4.659395 0 0 1 -1.107516,2.040764 c -0.300928,0.323654 0.241366,0.710198 0.548473,0.40877 a 7.4999752,7.1448966 0 0 0 1.217612,-1.584474 12.98211,12.367485 0 0 0 1.036556,2.67178 0.34833653,0.33184456 0 0 0 0.647176,-0.244922 17.863405,17.017682 0 0 1 -0.5844,-2.963387 c -0.05844,-0.497188 -0.107,-0.994145 -0.118357,-1.494875 v 0 c 0.658996,0.350841 1.325258,0.694598 2.006025,0.991773 a 3.5306779,3.3635219 0 0 1 0.315673,1.12346 14.062121,13.396365 0 0 0 0.150169,1.584244 c 0.07746,0.398832 0.728288,0.462665 0.783337,0.01555 a 10.47206,9.9762705 0 0 0 0.0232,-2.014518 l -0.02765,-0.236426 0.135349,0.04493 0.08974,0.208038 a 8.9498081,8.5260881 0 0 0 1.149043,1.132447 l 0.114651,0.106399 v 0.0038 l -0.06316,0.07094 a 7.2262306,6.8841124 0 0 0 -0.9569,2.775952 0.33505956,0.31919666 0 0 0 0.661918,0.09456 9.6913804,9.2325527 0 0 1 0.610253,-1.659414 l 0.193067,0.602397 a 5.2117696,4.9650235 0 0 0 1.184527,1.98685 c 0.316109,0.314676 0.868996,-0.04723 0.582472,-0.419397 a 5.2141833,4.9673233 0 0 1 -0.389082,-0.592346 l 0.144735,0.04963 a 5.4314415,5.1742949 0 0 0 2.523361,-0.0076 0.34495697,0.32862504 0 0 0 -0.0752,-0.65322 3.1941702,3.0429452 0 0 1 -3.155779,-1.034812 l -0.08286,-0.08986 -0.05617,-0.312535 0.203177,0.111103 a 5.3177427,5.0659798 0 0 0 3.433142,0.600496 0.36499288,0.34771274 0 0 0 0.0214,-0.683951 7.4591787,7.106032 0 0 1 -3.150475,-1.345936 5.1528683,4.9089113 0 0 1 -0.582743,-0.553456 c 0.185653,9.56e-4 0.372789,-0.0038 0.561957,-0.01795 a 6.9071036,6.5800938 0 0 0 1.741951,-0.349421 2.260928,2.1538867 0 0 0 1.21881,0.571658 l 0.34423,0.04022 a 1.7776501,1.6934892 0 0 0 0.38248,0.731001 1.8800029,1.790996 0 0 0 0.38616,0.335011 3.2494504,3.0956083 0 0 0 0.531087,0.229331 c 0.3622,0.160766 0.72417,-0.383703 0.3659,-0.587497 a 1.8104803,1.7247651 0 0 1 -0.48423,-0.550863 l -0.127217,-0.22933 c 0.401837,-0.06144 0.802867,-0.139492 1.210867,-0.1655 a 0.3570268,0.34012393 0 0 0 0.012,-0.677336 c -0.67736,-0.07805 -1.390707,-0.02304 -2.056467,-0.156024 l -0.388,-0.148938 a 11.309709,10.774263 0 0 0 1.974307,-1.381937 c 0.40322,-0.34777 0.0467,-1.16838 -0.51396,-0.870484 a 13.232439,12.605962 0 0 1 -4.274174,1.756118 l 0.232764,-0.548262 a 8.7093761,8.2970397 0 0 1 0.513443,-1.011867 12.738298,12.135217 0 0 1 0.96873,-0.905487 5.6337319,5.367009 0 0 1 3.567127,-0.366211 0.35171564,0.33506436 0 0 0 0.10554,-0.662206 16.807292,16.011569 0 0 0 -2.522597,-0.270698 4.4057433,4.1971583 0 0 0 -1.2956,0.231692 5.9267883,5.6461907 0 0 0 0.77247,-2.69361 c -0.003,-0.311835 -0.53316,-0.316088 -0.57034,-0.01114 a 7.2870628,6.9420641 0 0 1 -1.57273,3.148499 l -0.577919,0.813046 -0.02756,-0.514449 c 0,-0.3499 -0.611222,-0.360068 -0.643818,-0.01286 a 12.29461,11.712534 0 0 0 -0.107742,1.5483 10.650453,10.146217 0 0 0 -0.721546,0.859145 l -0.221172,0.299068 a 11.206391,10.675836 0 0 1 -2.512354,-0.913071 l -0.831652,-0.41424 a 12.372097,11.786355 0 0 0 2.108116,-0.246114 c 0.383395,-0.07335 0.470726,-0.694827 0.0157,-0.708305 a 24.289405,23.139448 0 0 1 -3.196832,-0.383473 15.412258,14.682581 0 0 1 -1.53843,-0.330508 c -0.388019,-0.101667 -0.764488,-0.24304 -1.154129,-0.33383 l 0.408752,-0.217503 a 30.598567,29.149909 0 0 0 3.0725,-2.13864 4.6575209,4.4370154 0 0 0 0.506951,0.952768 4.0018858,3.8124205 0 0 0 2.120441,1.385413 c 0.382479,0.125284 0.63343,-0.400023 0.252058,-0.556296 a 3.1359933,2.9875228 0 0 1 -1.445953,-1.409529 3.5244017,3.3575427 0 0 1 -0.325328,-0.807132 13.081807,12.462463 0 0 1 4.599835,0.466698 c 0.480391,0.118187 0.668412,-0.597905 0.234482,-0.778534 a 12.154358,11.578923 0 0 0 -3.179998,-0.903018 l 1.025687,-0.475204 c 1.105814,-0.488432 2.246675,-0.947324 3.352271,-1.464844 a 4.1812441,3.9832874 0 0 1 0.86877,0.626512 l 0.36912,0.327436 a 12.280126,11.698736 0 0 0 1.37595,2.652685 3.8778074,3.694217 0 0 0 3.776397,1.602916 0.36861386,0.3511623 0 0 0 -0.0801,-0.697439 2.9950171,2.8532213 0 0 1 -1.79188,-0.549663 3.2185514,3.0661723 0 0 0 1.48507,-0.451798 c 0.37418,-0.239728 -0.0444,-0.754647 -0.41982,-0.528868 a 1.3346862,1.2714968 0 0 1 -1.21038,0.132407 c -0.35625,-0.108762 -0.61874,-0.356525 -0.96132,-0.472132 l -0.11465,-0.250604 -0.0626,-0.158405 a 2.6070919,2.4836618 0 0 0 1.77138,-0.04723 c 0.72057,-0.252736 0.44836,-1.453028 -0.33408,-1.282105 a 2.4033525,2.2895681 0 0 1 -1.986567,-0.792917 c -0.37188,-0.307343 -0.73287,-0.627925 -1.12734,-0.904776 a 14.702791,14.006703 0 0 0 1.301637,-0.820842 h 0.0164 a 5.5060329,5.2453555 0 0 0 2.33767,1.007374 6.7603336,6.4402725 0 0 0 1.12856,1.016369 9.2124479,8.7762943 0 0 0 1.75499,1.026527 c 0.33917,0.170232 0.67278,-0.353442 0.3456,-0.554876 a 13.408176,12.77338 0 0 1 -1.45494,-1.120147 l -0.26912,-0.252026 a 5.2588418,5.0098675 0 0 0 2.01299,-0.546831 c 0.35392,-0.170241 0.27004,-0.767656 -0.18073,-0.693186 a 5.8765776,5.5983574 0 0 1 -2.04703,-0.03552 3.8227693,3.6417838 0 0 0 1.28785,-1.117077 0.31851144,0.30343182 0 0 0 -0.50212,-0.373305 3.4816742,3.3168381 0 0 1 -2.29832,0.994614 l -0.36543,-0.208036 -0.37603,-0.276143 0.15484,-0.21515 a 8.6951337,8.283472 0 0 0 0.94143,-1.247342 l 0.18245,-0.03782 a 5.6870808,5.4178319 0 0 0 1.65769,-1.147806 2.6440255,2.5188468 0 0 0 2.26117,-0.734085 c 0.30414,-0.323653 -0.23915,-0.703573 -0.54848,-0.409 a 1.1724672,1.1169576 0 0 1 -0.89872,0.153673 9.5820272,9.1283763 0 0 0 1.1609,-2.589444 c 0.10505,-0.373779 -0.568,-0.561256 -0.68869,-0.186768 a 8.7011681,8.2892208 0 0 1 -2.41069,3.443074 6.4091003,6.1056682 0 0 0 0.12525,-3.514119 c -0.11244,-0.38821 -0.7517,-0.215138 -0.70828,0.167845 a 5.8360228,5.5597227 0 0 1 -0.75168,3.315293 7.2757172,6.9312557 0 0 1 -1.19252,1.412477 c 0.0503,-0.811385 -0.0525,-1.65421 -0.052,-2.466882 a 0.34543947,0.32908533 0 0 0 -0.68965,-0.02352 9.6503421,9.1934569 0 0 1 -0.288007,2.031787 6.722193,6.4039376 0 0 1 -0.63851,1.291552 c -0.5552,0.403566 -1.10826,0.827936 -1.69968,1.177125 l -0.006,-0.07094 a 6.4868303,6.1797184 0 0 1 0,-0.956319 4.3509462,4.1449555 0 0 1 0.63583,-1.988981 c 0.23698,-0.353456 -0.28798,-0.763886 -0.54844,-0.409013 a 7.2257477,6.883652 0 0 0 -1.314166,2.736612 4.0412336,3.8499054 0 0 0 -0.04021,1.000278 9.9581251,9.4866681 0 0 0 -3.405626,1.084215 l -0.416585,0.242569 0.284332,-0.556997 a 8.8513181,8.4322617 0 0 0 0.603485,-1.77669 l 0.251134,-0.05674 a 3.6349614,3.4628682 0 0 0 1.592511,-0.838342 0.34181873,0.32563574 0 0 0 -0.411517,-0.519173 3.0362961,2.8925459 0 0 1 -1.140111,0.379931 10.945681,10.42747 0 0 1 2.679518,-3.169669 0.35509547,0.33828391 0 0 0 -0.427636,-0.539505 10.922508,10.405392 0 0 0 -2.450165,1.97149 l -0.0087,0.01065 a 7.3430666,6.995417 0 0 0 -2.470358,-4.472465 c -0.26727,-0.208039 -0.744216,0.08984 -0.569205,0.405693 a 9.3864961,8.942102 0 0 1 1.303556,5.379443 8.1396786,7.7543135 0 0 1 -0.365426,1.481396 l -0.169133,0.354864 a 5.4256474,5.1687757 0 0 0 -1.474636,-3.08793 c -0.330413,-0.295525 -0.758966,0.234044 -0.433157,0.527448 a 2.6396803,2.5147074 0 0 1 0.606913,1.416383 c 0.09172,0.542348 0.176529,1.093671 0.233243,1.64003 a 5.0630687,4.8233628 0 0 1 -0.05033,1.398892 6.0438664,5.7577259 0 0 0 -0.426258,0.689865 l -0.129435,0.170213 a 10.393365,9.9013015 0 0 1 -3.049606,2.589207 l -0.01826,-0.280624 a 4.9030223,4.6708935 0 0 1 0.132164,-1.016841 5.7001166,5.4302502 0 0 1 0.908643,-2.058726 c 0.308302,-0.369293 -0.258984,-0.757489 -0.59068,-0.44022 a 8.7084107,8.2961194 0 0 0 -0.963432,0.932205 5.6887705,5.4194414 0 0 0 -0.672048,1.206914 4.388604,4.1808308 0 0 0 -0.420729,2.339121 41.916,39.931532 0 0 1 -6.759131,0.814697 l 1.167386,-0.620838 a 15.045574,14.333257 0 0 0 4.285282,-2.983855 9.0297102,8.6022076 0 0 0 0.962693,-1.272639 13.733339,13.083147 0 0 1 3.599212,-1.718763 0.47531158,0.45280849 0 0 0 -0.10332,-0.862688 5.0575164,4.8180736 0 0 0 -2.165111,0.338073 c 0.492899,-0.900043 1.234449,-1.666269 1.784377,-2.537923 a 25.50822,24.30056 0 0 0 1.797937,-3.714652 0.58611303,0.55836406 0 0 0 -1.07517,-0.442102 24.125736,22.983529 0 0 1 -1.972948,3.801842 l -0.378789,0.501209 a 21.58334,20.5615 0 0 0 -0.281719,-4.260141 0.61652862,0.58734021 0 0 0 -1.224858,0.127668 16.202109,15.435037 0 0 1 0.05892,3.354085 3.7129332,3.5371481 0 0 1 -1.384656,-2.041706 c -0.09319,-0.405455 -0.763077,-0.35037 -0.685557,0.07095 a 6.5003486,6.1925963 0 0 0 1.858764,3.378675 v 9.56e-4 a 6.9001025,6.5734244 0 0 1 -2.350947,3.978471 c -0.299078,0.231692 -0.608557,0.448255 -0.92482,0.654411 l -0.101827,0.02256 -0.434563,0.08276 0.01179,-0.02141 a 10.916955,10.400103 0 0 0 0.77582,-6.707948 c -0.16692,-0.738566 -1.391161,-0.632886 -1.2449,0.130026 a 8.153921,7.7678819 0 0 1 0.09222,2.146915 l -0.576777,-0.566924 a 3.4389471,3.276134 0 0 1 -0.863699,-1.585184 0.28822852,0.27458288 0 0 0 -0.57261,0.05913 5.256911,5.0080279 0 0 0 1.124215,2.410758 3.332732,3.1749477 0 0 1 0.50695,1.404085 8.3890417,7.991871 0 0 1 -0.978349,1.917834 9.6370663,9.1808099 0 0 1 -0.871688,1.059627 8.1894063,7.8016871 0 0 1 -0.596007,-0.766704 3.8259074,3.6447735 0 0 0 0.43456,-1.544998 10.204591,9.7214662 0 0 0 0.01723,-1.76061 c -0.02947,-0.426261 -0.698948,-0.346348 -0.685682,0.07065 a 7.5127695,7.1570853 0 0 1 -0.14795,1.571006 l -0.172345,0.601206 a 6.2867121,5.989074 0 0 1 -0.408746,-2.49932 0.36523428,0.34794277 0 0 0 -0.721555,-0.10401 7.4635239,7.1101716 0 0 0 0.721777,5.220302 9.5933728,9.1391849 0 0 0 -2.263121,1.223225 c -0.989741,0.712801 -1.949992,1.47171 -2.899651,2.235104 l 0.335018,-1.202417 c 0.558829,-1.914281 1.18043,-3.817473 1.713911,-5.740953 a 10.468438,9.9728211 0 0 0 0.941463,-2.874603 13.798998,13.145699 0 0 1 0.853344,-1.412601 13.216024,12.590325 0 0 1 4.025793,-2.044308 5.7778461,5.5043003 0 0 0 1.808812,0.374483 c 0.444228,0.104013 0.546993,-0.565273 0.107001,-0.668588 l -0.353445,-0.146346 a 5.1514197,4.9075318 0 0 0 2.274169,-1.237651 8.7892792,8.3731592 0 0 0 1.706684,-2.908419 0.61290813,0.58389063 0 0 0 -1.124434,-0.463378 8.9075626,8.4858441 0 0 1 -1.755211,2.657721 9.3621145,8.9188749 0 0 1 -3.395716,1.301244 l -0.01799,0.0066 0.04415,-0.04019 a 6.2374668,5.9421604 0 0 0 1.743129,-2.822857 C 80.144851,45.38666 79.166514,45.177428 78.895692,45.71197 a 6.6999845,6.3827806 0 0 1 -2.359427,2.263704 c -0.629073,0.427444 -1.279423,0.834559 -1.893776,1.283752 l 0.05672,-0.33595 a 7.9192822,7.5443523 0 0 1 2.841494,-4.442535 l 0.65925,-0.485604 0.512995,0.07566 a 14.780519,14.080752 0 0 1 1.432907,0.435244 2.2674453,2.1600957 0 0 0 1.400087,0.0922 c 0.362198,-0.08275 0.462301,-0.646604 0.01518,-0.683011 C 81.268973,43.89237 80.943167,43.587517 80.699124,43.448267 80.463666,43.31351 80.22913,43.17875 79.981956,43.065742 l -0.08654,-0.03783 0.678337,-0.130024 c 1.070855,-0.196238 2.138286,-0.387019 3.206228,-0.562912 a 12.129977,11.555696 0 0 1 1.322372,0.773322 6.8655827,6.540539 0 0 1 1.097169,4.339507 0.3382143,0.32220155 0 0 0 0.668694,0.09692 6.7504363,6.430844 0 0 0 0,-3.14254 l -0.02416,-0.07802 a 12.422309,11.834189 0 0 0 2.349287,1.360825 8.3084151,7.9150616 0 0 0 2.819744,0.626982 2.5846415,2.4622747 0 0 0 0.477739,0.766939 c 0.234962,0.535489 0.550861,1.04828 0.768343,1.589205 a 5.2161147,4.969163 0 0 0 0.842233,1.795598 c 0.311974,0.306872 0.881353,-0.07328 0.571874,-0.411605 a 4.9182299,4.6853814 0 0 1 -0.700071,-1.747874 c 0.239646,0.144205 0.488093,0.276138 0.740125,0.399311 l 0.02782,0.026 a 1.665642,1.586784 0 0 0 0.76352,0.318218 9.5694754,9.1164183 0 0 0 4.432503,0.505937 c 0.386157,-0.03547 0.420727,-0.645895 0.0147,-0.663865 a 8.9317025,8.5088409 0 0 1 -1.1044,-0.118224 12.450553,11.861094 0 0 0 3.162317,-1.264838 c 0.34055,-0.191504 0.009,-0.762213 -0.34516,-0.583953 a 8.5990573,8.1919442 0 0 1 -3.373277,0.947589 14.311968,13.634383 0 0 1 -1.67024,-0.01869 L 95.687414,47.77133 A 8.1283324,7.7435051 0 0 1 94.02179,46.784042 4.0359223,3.8448462 0 0 1 93.493146,46.274324 8.648303,8.2388575 0 0 0 94.9367,46.003151 c 0.71694,0.177323 1.432459,0.372359 2.159533,0.515865 a 5.573141,5.3092866 0 0 0 2.61049,-0.05202 c 0.441467,-0.104014 0.17557,-0.732425 -0.26174,-0.628164 a 4.8455697,4.616161 0 0 1 -2.67621,-0.486547 l -0.10726,-0.03783 a 7.2520598,6.9087189 0 0 0 1.0974,-0.723676 0.73047938,0.69589546 0 0 0 -0.88062,-1.110458 7.5678075,7.2095179 0 0 1 -3.002267,1.235288 15.511713,14.777328 0 0 0 0.936158,-1.289426 c 0.215249,-0.327204 -0.266826,-0.706655 -0.506943,-0.377323 a 9.3903584,8.9457816 0 0 1 -1.103432,1.291078 7.8869352,7.5135365 0 0 1 -0.595739,0.492696 7.0408372,6.7074962 0 0 1 -0.773952,-0.0331 2.4139738,2.2996868 0 0 1 -0.01361,-0.34328 3.5396095,3.3720306 0 0 1 0.417501,-1.538374 c 0.194532,-0.320583 -0.371882,-0.644005 -0.588299,-0.332404 a 5.5663819,5.3028476 0 0 0 -0.875039,1.719232 l -0.06036,0.296232 A 7.3927945,7.0427905 0 0 1 89.10505,43.984613 C 88.018461,43.42077 87.02872,42.658794 85.993863,41.999189 a 46.645701,44.437308 0 0 1 6.203914,-0.505937 c 1.117205,-0.01238 2.23585,-0.01163 3.351799,0.04019 0.879906,0.04019 1.769687,0.186768 2.654177,0.226954 a 4.5578235,4.3420385 0 0 1 1.991037,2.17363 c 0.11466,0.395292 0.73603,0.156028 0.62235,-0.234044 a 9.0236759,8.5964588 0 0 0 -0.57934,-1.701738 l 0.60348,0.222243 a 10.383951,9.8923323 0 0 1 1.71899,2.396052 l 0.45852,0.746609 a 5.428303,5.1713055 0 0 0 0.50984,2.925417 0.33795614,0.32195638 0 0 0 0.62765,-0.237831 6.0153815,5.7305892 0 0 1 -0.27464,-1.48589 11.169456,10.640651 0 0 0 1.70355,1.523717 c 0.34008,0.272119 0.76501,-0.245402 0.42488,-0.517282 a 9.4825725,9.0336296 0 0 1 -1.6502,-2.039109 c -0.45252,-0.674028 -0.87096,-1.365315 -1.27943,-2.063695 l -0.14005,-0.237832 0.73385,0.441631 a 5.6139375,5.3481514 0 0 1 1.61739,1.327015 c 0.24745,0.36054 0.80817,-0.04256 0.56099,-0.403566 -0.30689,-0.447066 -0.53617,-0.922977 -0.8333,-1.369333 l 0.38616,-0.395764 a 2.9378063,2.7987185 0 0 1 0.66744,-0.562203 c 0.42487,-0.177323 0.16001,-0.819191 -0.2668,-0.640223 a 4.6831091,4.4613924 0 0 1 -0.50403,0.134761 2.4468039,2.3309623 0 0 0 -0.54124,0.250603 l -0.47434,0.333349 a 7.5277359,7.171343 0 0 0 -1.19674,-0.978303 c -0.24136,-0.158407 -0.49196,-0.304742 -0.74665,-0.44163 a 5.2383231,4.99032 0 0 1 0.68674,-1.140719 l 0.20464,-0.226953 a 2.1187448,2.0184348 0 0 0 0.47364,0.23169 2.8332809,2.6991425 0 0 0 1.44235,0.04019 0.34181873,0.32563574 0 0 0 -0.0757,-0.646842 1.5029402,1.4317849 0 0 1 -1.03799,-0.37283 13.016389,12.400141 0 0 0 0.93973,-1.01187 c 0.21574,-0.24895 -0.0934,-0.697671 -0.41796,-0.532415 a 8.4863249,8.0845484 0 0 0 -2.53469,1.766281 6.0402453,5.7542761 0 0 0 -0.87168,1.336709 v 0 A 14.536467,13.848253 0 0 0 99.347773,39.7858 l 0.52456,-0.299067 a 8.9582569,8.5341373 0 0 0 1.851057,-1.78851 c 0.28294,-0.330987 -0.26543,-0.740463 -0.54848,-0.40877 a 8.290069,7.8975838 0 0 1 -3.734877,2.124695 19.23937,18.328503 0 0 0 -4.667422,-0.02306 17.412234,16.58787 0 0 0 3.553135,-1.56887 8.4595296,8.0590218 0 0 0 0.872427,0.146583 c 0.51464,0.06857 1.05177,-0.02837 1.5553,0.05202 0.45251,0.07329 0.52722,-0.548728 0.10455,-0.655824 a 7.7133703,7.3481888 0 0 1 -0.83632,-0.378991 l -0.12256,-0.04492 c 0.37741,-0.203328 0.74569,-0.422954 1.09956,-0.657242 a 4.6876955,4.4657617 0 0 1 2.532747,-1.179965 3.4823987,3.3175281 0 0 0 2.36832,-0.578278 0.34519833,0.32885554 0 0 0 -0.41565,-0.524377 c -0.6839,0.461253 -1.74747,0.198595 -2.54795,0.276138 a 12.260089,11.679649 0 0 0 1.11768,-1.797253 c 0.21698,-0.40664 -0.46612,-0.685613 -0.6822,-0.28063 a 6.7475392,6.4280845 0 0 1 -2.112717,2.095851 4.8762272,4.6453671 0 0 1 -0.68896,0.377558 6.0059667,5.7216207 0 0 0 0.4693,-1.822075 9.3106963,8.8698916 0 0 0 1.453677,-2.257322 c 0.17138,-0.302142 -0.3562,-0.607123 -0.548217,-0.309945 a 5.8002962,5.5256875 0 0 1 -0.82583,0.988937 c 0.009,-0.612558 0.003,-1.224646 0.0626,-1.83626 a 9.9866097,9.5138041 0 0 1 0.44285,-2.456763 c 0.15016,-0.374489 -0.44146,-0.620838 -0.60348,-0.247532 -0.29584,0.687267 -0.68578,1.314959 -0.9202,2.029179 a 14.310279,13.632773 0 0 0 -0.50696,2.242191 l -0.15757,1.239779 c -0.18344,0.59459 -0.39354,1.183509 -0.59768,1.769118 a 5.7500855,5.4778542 0 0 1 -1.37403,2.458396 3.906534,3.7215829 0 0 1 -1.417474,0.694832 9.2660381,8.8273473 0 0 0 0.871689,-1.372643 8.7627248,8.3478627 0 0 0 0.648381,-1.741932 6.4047551,6.1015285 0 0 0 0.793944,-1.948796 11.271567,10.737927 0 0 0 0.43733,-2.210275 8.975396,8.550465 0 0 0 -0.840081,-4.225908 c -0.185699,-0.390784 -0.839871,-0.14657 -0.653521,0.247073 a 6.8752387,6.5497373 0 0 1 0.40781,4.093701 l -0.170877,0.505936 A 7.0314228,6.6985274 0 0 0 95.000918,29.16168 c -0.40645,-0.756065 -1.668302,-0.31751 -1.312951,0.496478 a 6.8812735,6.5554869 0 0 1 -0.491739,5.508903 l -0.08627,0.144205 a 30.729887,29.275012 0 0 1 -1.529705,-4.075851 c -0.06411,-0.434774 -0.776568,-0.361485 -0.712378,0.07328 a 17.204633,16.390097 0 0 0 0.384302,1.971492 c 0.189857,0.675686 0.427192,1.34073 0.571133,2.027525 a 7.079702,6.744521 0 0 1 0.143243,1.443331 9.5062292,9.0561659 0 0 1 -2.493159,1.712853 7.9711827,7.5937956 0 0 0 0.326716,-1.222992 c 0.270498,-1.506222 0.277406,-3.042728 0.521919,-4.553368 a 25.544668,24.335286 0 0 1 1.056801,-4.027223 l 0.07563,-0.200959 a 4.5109927,4.2974248 0 0 0 1.200699,-0.448722 4.8875729,4.6561756 0 0 0 1.395257,-1.27808 c 0.239157,-0.280863 -0.186639,-0.723203 -0.47944,-0.464561 a 4.0938582,3.9000386 0 0 1 -1.39456,0.727223 l -0.07475,-0.08748 q 0.477478,-0.75252 0.87435,-1.547121 a 7.6182599,7.2575813 0 0 1 4.194997,-1.27004 c 0.59866,-0.01991 0.55518,-0.846849 0.0211,-0.955131 a 4.9928222,4.756442 0 0 0 -3.488438,0.545891 q 0.256673,-0.69176 0.451597,-1.402906 a 4.4392978,4.2291238 0 0 0 1.544956,-0.908084 c 0.302736,-0.262897 -0.05295,-0.740461 -0.391691,-0.493641 a 5.5497255,5.2869799 0 0 1 -0.94413,0.544235 l 0.104043,-0.518228 c 0.127711,-0.700506 -0.989739,-0.852524 -1.138687,-0.165498 q -0.125248,0.579698 -0.289853,1.146865 a 0.38623572,0.36794966 0 0 0 -0.135873,0.442576 q -0.235939,0.734789 -0.537594,1.444752 l -0.115636,-0.113492 a 1.7344403,1.6523251 0 0 1 -0.509324,-1.00265 c -0.0362,-0.392219 -0.627638,-0.312072 -0.625693,0.0662 a 3.4896404,3.3244269 0 0 0 0.270978,1.400542 2.0105985,1.915409 0 0 0 0.506942,0.666936 18.048799,17.194299 0 0 1 -2.169426,3.282123 24.920175,23.740356 0 0 1 0.04832,-2.762641 10.980926,10.461046 0 0 1 2.01713,-5.641345 0.64646197,0.61585581 0 0 0 -1.017724,-0.758902 l -0.492306,0.632697 -0.281105,-0.491278 a 3.1340621,2.9856834 0 0 1 -0.255233,-1.009041 c -0.03254,-0.39742 -0.651782,-0.321765 -0.63896,0.0662 a 3.5217463,3.3550127 0 0 0 0.721781,2.129182 10.636934,10.13334 0 0 0 -0.516119,1.001707 5.0075471,4.7704701 0 0 1 -0.527231,-0.747792 4.4936121,4.280867 0 0 1 -0.427174,-1.40007 0.31164402,0.29688964 0 0 0 -0.619221,0.06383 4.5566168,4.3408887 0 0 0 1.256968,2.879435 13.44004,12.803736 0 0 0 -0.382026,1.314958 3.7237963,3.5474967 0 0 0 -0.713346,-0.682775 l -0.07222,-0.04966 a 2.0593608,1.961863 0 0 0 -0.724155,-0.462437 l -0.08974,-0.05439 -0.18936,-0.172588 a 12.32913,11.74542 0 0 1 -1.931204,-2.313574 v 0 a 4.8064632,4.5789063 0 0 0 1.16983,-1.61143 8.6062999,8.1988428 0 0 1 3.495208,-1.241905 0.40530611,0.38611724 0 0 0 -0.08802,-0.767413 5.5637268,5.3003181 0 0 0 -3.027347,0.992721 7.4509713,7.0982129 0 0 0 0.158538,-2.485963 0.35509547,0.33828391 0 0 0 -0.705603,0.07328 6.0653508,5.7781928 0 0 1 -0.541221,2.548729 7.8543468,7.4824906 0 0 1 -1.024259,1.535066 7.7923067,7.4233887 0 0 1 -0.64187,-1.529865 0.34423256,0.32793516 0 0 0 0.243351,-0.163119 5.6764593,5.4077135 0 0 0 0.533728,-2.32872 7.6168111,7.2562015 0 0 0 -0.261282,-2.268906 c -0.08653,-0.303798 -0.587818,-0.167856 -0.553769,0.130024 a 12.214708,11.636415 0 0 1 0.05941,2.214291 12.345787,11.761287 0 0 1 -0.261278,1.392741 13.417349,12.782118 0 0 0 -0.783569,-2.464591 0.30488486,0.29045055 0 0 0 -0.566296,0.215154 12.461658,11.871673 0 0 1 0.394003,3.648219 l 0.0049,0.0662 a 3.260554,3.106187 0 0 1 -0.930211,-0.794596 3.6827587,3.5084023 0 0 1 -0.687038,-1.802927 33.382602,31.802138 0 0 1 0.475786,-4.677584 c 0.0216,-0.3468252 -0.551087,-0.5763876 -0.670348,-0.184413 a 13.81131,13.157427 0 0 0 -0.648129,5.527531 6.0960078,5.8073987 0 0 0 0.351591,1.216845 l -0.387965,-0.421533 a 5.0490677,4.8100249 0 0 1 -0.932274,-4.272597 c 0.132652,-0.392219 -0.486905,-0.650385 -0.620613,-0.254621 a 5.9772404,5.6942543 0 0 0 -0.343782,2.519531 5.4645124,5.2058009 0 0 0 0.877728,2.244792 l 0.02289,0.03074 a 3.1917558,3.0406458 0 0 1 -0.919964,0.02355 3.0457109,2.9015148 0 0 1 -1.485324,-0.603338 c -0.313867,-0.240455 -0.646527,0.200947 -0.375607,0.457224 a 3.371356,3.2117424 0 0 0 3.408747,0.881841 13.186573,12.562269 0 0 0 3.276965,2.33794 l 0.05398,0.02355 a 6.3106104,6.0118407 0 0 0 0.430393,0.87948 11.632216,11.0815 0 0 0 1.152421,1.577381 4.7618046,4.5363617 0 0 1 -1.9046,0.314436 4.1872791,3.9890367 0 0 1 -0.909337,-0.182034 3.4587419,3.2949909 0 0 0 -0.585382,-1.768171 c -0.193065,-0.302854 -0.731172,-0.01383 -0.572611,0.306868 a 2.3270706,2.216898 0 0 1 0.230548,0.95584 l -0.0029,0.09929 a 4.724388,4.500717 0 0 1 -2.076034,-2.457242 c -0.225843,-0.683249 -1.25669,-0.26195 -1.070342,0.404984 a 5.1156934,4.873496 0 0 0 0.842058,1.649494 l -0.30137,0.208038 a 4.1896927,3.9913361 0 0 1 -0.919003,0.371887 3.3858398,3.2255405 0 0 1 -2.070212,-0.06384 0.35847508,0.34150343 0 0 0 -0.283864,0.626509 4.727285,4.5034762 0 0 0 2.739376,0.588445 3.6576532,3.4844852 0 0 0 1.909679,-0.691761 5.7805015,5.5068295 0 0 0 1.876392,0.909029 5.9142356,5.6342329 0 0 0 2.354373,0.205683 5.8295051,5.5535134 0 0 1 -1.847888,2.590813 c -0.363579,0.285828 0.07101,0.84283 0.443758,0.560074 a 6.9681771,6.638276 0 0 0 2.368597,-3.334537 7.4261074,7.0745263 0 0 1 0.859139,-0.177324 7.2981669,6.9526428 0 0 0 1.083387,0.905719 4.499406,4.2863864 0 0 0 0.872866,0.421534 l 0.07842,0.182034 a 9.2916259,8.8517238 0 0 1 0.36636,1.751151 2.4834965,2.3659178 0 0 1 -0.72104,-0.790346 0.33505956,0.31919666 0 0 0 -0.622335,0.234043 3.2880737,3.1324031 0 0 0 0.776089,1.218737 3.0505388,2.9061141 0 0 0 0.710171,0.477328 q -0.0026,0.650389 0.01413,1.294864 c 0.02887,1.140719 0.137809,2.463668 0.116125,3.784631 l -0.0079,-0.01288 a 9.2580725,8.8197587 0 0 1 -1.340566,-2.232 c -0.08164,-0.309472 -0.630992,-0.177323 -0.573076,0.13476 a 10.145691,9.665353 0 0 0 0.532743,2.061097 9.923122,9.4533223 0 0 1 0.728262,2.055421 7.1854345,6.8452476 0 0 1 0.07222,1.579272 5.041343,4.8026658 0 0 1 -2.29446,2.605333 7.4487991,7.0961435 0 0 1 -1.327698,0.544942 4.4018813,4.1934787 0 0 0 0.430863,-0.49766 c 0.239648,-0.32744 0.368656,-0.704055 0.577911,-1.046152 0.227566,-0.371886 -0.419819,-0.633838 -0.645517,-0.265496 a 5.4717546,5.2127001 0 0 1 -1.512349,1.306682 9.2590373,8.820678 0 0 1 -1.300159,0.743064 l -1.241256,0.03783 a 4.417572,4.2084268 0 0 0 1.689771,-1.488727 6.4484479,6.1431534 0 0 0 0.744467,-1.614029 3.6047872,3.434122 0 0 0 3.45198,-2.085919 0.58273317,0.55514452 0 0 0 -1.069649,-0.439738 2.465633,2.3488998 0 0 1 -2.074552,1.293444 c 0.06853,-1.375243 1.283736,-2.537713 1.981649,-3.662972 a 7.0270776,6.694388 0 0 0 0.740863,-4.97788 c -0.169094,-0.65299 -1.260771,-0.579228 -1.124867,0.118192 a 6.4117558,6.1081979 0 0 1 -1.28561,4.795747 l -0.441465,0.593409 -0.114398,-0.833139 c -0.128463,-0.886567 -0.203169,-1.7781 -0.311973,-2.667625 a 0.61314951,0.58412042 0 0 0 -1.218349,0.127668 c 0.07643,1.639327 0.175045,3.275885 0.222141,4.916722 a 6.2712622,5.9743558 0 0 1 -1.037991,3.96535 3.6844482,3.5100121 0 0 1 -1.546421,1.042843 18.060628,17.205566 0 0 0 1.009044,-2.49996 0.33817084,0.32216043 0 0 0 -0.620861,-0.255569 9.1615137,8.7277706 0 0 1 -1.509686,2.119964 l -0.25438,0.258877 a 27.582067,26.27622 0 0 0 0.947949,-2.818532 21.882191,20.846199 0 0 0 0.675919,-3.679472 18.267988,17.403109 0 0 0 0.05794,-1.995842 4.9259549,4.6927405 0 0 0 -0.124503,-0.875223 l -0.122548,-0.348244 0.03748,-0.122934 a 2.3695565,2.2573723 0 0 0 0.823386,-1.205026 5.5668648,5.3033074 0 0 0 -0.161754,-2.603935 c -0.08212,-0.385597 -0.718426,-0.327911 -0.645739,0.0662 a 4.9727857,4.7373547 0 0 1 0.01439,2.013814 1.7496481,1.6668131 0 0 1 -0.22808,0.49293 10.814602,10.302596 0 0 0 -0.929605,-2.697295 0.35195727,0.33529415 0 0 0 -0.379257,-0.203328 l -0.230931,-0.567873 c -0.137819,-0.360536 -0.704396,-0.141848 -0.579344,0.219864 a 14.502431,13.815828 0 0 1 0.464692,2.807917 19.639849,18.71002 0 0 1 0.122549,1.929883 L 77.186998,28.889993 C 76.845414,28.665395 76.51988,28.419756 76.193757,28.177192 a 0.35968198,0.34265313 0 0 0 -0.506953,0.474492 7.3768626,7.0276125 0 0 0 0.970163,0.996975 7.8951424,7.5213556 0 0 0 0.67592,0.559602 20.69717,19.717285 0 0 1 -0.465433,3.229689 l -0.03673,-0.0041 a 4.3193236,4.1148295 0 0 0 -0.809232,-2.601453 c -0.469304,-0.610431 -1.435348,0.08748 -0.983208,0.707363 0.894865,1.226537 0.205636,2.856454 -0.309679,4.234867 l -0.40828,-0.342822 A 13.809378,13.155588 0 0 1 72.929851,33.94426 c -0.223143,-0.278737 -0.425783,-0.568348 -0.61847,-0.863872 l -0.279229,-1.073104 a 18.67088,17.786926 0 0 0 2.245024,-3.019037 7.1147051,6.7778664 0 0 0 0.526035,-3.610509 0.60639035,0.57768133 0 0 0 -1.204814,0.125313 5.897338,5.6181346 0 0 1 -0.612897,3.223256 8.2509621,7.860329 0 0 1 -1.278215,1.548541 c -0.0636,-0.459836 -0.110207,-0.923451 -0.135352,-1.389668 a 17.093348,16.284083 0 0 1 0.481606,-4.854401 l 0.282485,-0.237833 a 8.4467361,8.0468341 0 0 0 1.352773,-1.797015 c 0.241395,-0.377794 -0.331328,-0.811386 -0.574781,-0.428154 a 3.6243403,3.4527497 0 0 1 -0.793255,0.855363 l -0.0535,-0.03546 q 0.198232,-0.511373 0.437324,-1.011872 l 0.443312,-0.878765 a 8.0262215,7.6462281 0 0 0 1.158733,-0.266917 1.788513,1.7038378 0 0 0 1.062127,0.625089 0.29571159,0.28171183 0 0 0 0.160752,-0.535015 0.64718636,0.61654613 0 0 1 -0.353444,-0.276137 L 75.129455,19.93531 A 7.3194099,6.9728803 0 0 0 76.4411,19.112791 c 0.349303,-0.258876 -0.06461,-0.785144 -0.415649,-0.524375 a 3.2957984,3.1397623 0 0 1 -1.535031,0.57497 2.2000956,2.0959346 0 0 1 -0.632477,0.0099 23.561591,22.446092 0 0 0 1.427162,-3.037904 11.720808,11.165899 0 0 0 0.52648,-2.180723 2.8327986,2.6986826 0 0 0 0.823165,-0.777105 3.3085926,3.1519504 0 0 0 0.411976,-1.474305 0.29136671,0.2775719 0 0 0 -0.575965,-0.08275 3.0560909,2.9114035 0 0 1 -0.560773,1.06861 17.330883,16.51037 0 0 0 -0.367276,-3.6105099 0.33809422,0.32208759 0 0 0 -0.672295,0.068579 c -0.0025,0.9761719 -0.0216,1.9547069 -0.125248,2.9206179 a 6.2661931,5.9695269 0 0 1 -0.586342,-0.791019 5.06331,4.8235925 0 0 1 -0.61556,-2.7888363 0.29138767,0.27759223 0 0 0 -0.57621,-0.082758 5.2839473,5.0337839 0 0 0 0.34792,3.0677863 l 0.142009,0.297176 -0.293087,0.09694 a 1.7520619,1.6691124 0 0 1 -0.808877,-0.0041 c -0.397677,-0.115845 -0.665787,0.41728 -0.26266,0.5797 a 2.5947807,2.471933 0 0 0 1.830286,0.151318 l 0.07841,0.127669 a 4.1870377,3.9888067 0 0 0 0.524559,0.737152 10.540375,10.041352 0 0 1 -0.688001,2.086628 c -0.216974,0.463853 -0.458503,0.915649 -0.713568,1.361297 l -0.07643,-0.07802 a 7.2600261,6.9163077 0 0 1 -0.643817,-0.827952 5.8519552,5.5749006 0 0 1 -0.854775,-2.07268 0.34519833,0.32885554 0 0 0 -0.685557,0.07329 6.9281046,6.6001006 0 0 0 0.700079,2.452156 6.3441644,6.0438066 0 0 0 1.000122,1.402906 c -0.415652,0.684431 -0.841041,1.363898 -1.233047,2.06015 A 7.6788504,7.3153034 0 0 1 68.78475,16.474503 c -0.08163,-0.303798 -0.635387,-0.174946 -0.566793,0.134758 a 15.81008,15.061568 0 0 0 0.539523,2.082135 l -0.367745,-0.0922 a 1.9932184,1.8988514 0 0 1 -0.980396,-0.674338 c -0.225843,-0.335005 -0.720076,-0.01506 -0.607128,0.325313 a 1.9958737,1.9013809 0 0 0 0.97766,1.161522 3.5888548,3.4189442 0 0 0 1.589817,0.442103 7.2672682,6.9232069 0 0 0 1.260561,1.427257 15.79994,15.05191 0 0 0 -0.703214,1.90908 l -0.315678,-0.252738 a 5.5951084,5.3302139 0 0 1 -0.728559,-1.027 c -0.190829,-0.345172 -0.785514,-0.137114 -0.603477,0.229333 a 6.7859218,6.4646494 0 0 0 0.865425,1.324887 l 0.337785,0.448721 0.193066,0.246585 a 21.841876,20.807796 0 0 0 -0.236692,6.800172 l -0.510936,-0.392224 a 10.783221,10.272701 0 0 1 -1.95774,-2.40804 c -0.153862,-0.255805 -0.600126,-0.01187 -0.474086,0.254151 0.371419,0.784672 0.658562,1.591567 1.074951,2.350469 a 2.2343742,2.1285901 0 0 1 -1.239825,-0.244895 c -0.333643,-0.179678 -0.679075,0.365029 -0.345626,0.554875 a 3.7872832,3.6079784 0 0 0 2.230034,0.657243 7.2025734,6.861575 0 0 0 0.770521,0.814458 4.0518547,3.8600242 0 0 0 0.82822,0.626037 l 0.07224,0.352972 c 0.214763,1.053954 0.497557,2.092777 0.817862,3.122969 a 23.012895,21.923373 0 0 0 0.809432,2.550576 l 0.11514,0.830299 -0.494871,-0.217508 a 6.1821868,5.8894977 0 0 1 -1.881422,-1.49653 0.35171564,0.33506436 0 0 0 -0.560996,0.403569 9.1675489,8.7335198 0 0 0 1.825429,2.241482 4.5679627,4.3516975 0 0 0 1.203826,0.696015 14.544192,13.855612 0 0 1 -0.102312,1.639325 l -0.02786,0.198593 c -0.280166,0.547545 -0.563685,1.093671 -0.800481,1.655872 a 13.795861,13.14271 0 0 0 -0.543122,1.604809 5.0529298,4.8137043 0 0 1 -0.955468,-1.245214 l 0.212526,-0.251077 c 0.282014,-0.605704 0.517775,-1.231975 0.76838,-1.850445 a 0.59287219,0.56480293 0 0 0 -1.087995,-0.447298 l -0.452066,1.034801 a 6.1112163,5.8218867 0 0 1 -0.0072,-2.405509 c 0.164421,-0.75252 -1.055455,-0.916831 -1.231151,-0.179679 a 6.9981099,6.666792 0 0 0 -0.167669,1.264838 l -0.131902,-0.238779 a 5.7452575,5.4732542 0 0 1 -0.509319,-1.840282 c -0.02416,-0.364555 -0.674686,-0.389615 -0.683611,-0.01384 a 5.250393,5.001819 0 0 0 0.370036,2.166302 4.1892103,3.9908762 0 0 0 1.107078,1.585655 7.5443925,7.1872111 0 0 0 0.621134,1.723018 9.6529991,9.1959879 0 0 0 1.738073,2.431208 c -0.138333,0.635257 -0.274199,1.270986 -0.442846,1.898913 a 30.42838,28.987781 0 0 1 -1.8346,4.743569 l -0.193066,0.398833 a 13.867797,13.211241 0 0 0 -0.353047,-2.928202 28.332809,26.991423 0 0 0 -3.184757,-7.198015 5.9680673,5.6855156 0 0 0 0.951351,-1.809074 8.586987,8.180445 0 0 0 0.286156,-3.61394 l -0.04438,-0.258642 a 6.3183351,6.0191999 0 0 0 3.451946,-5.309291 c -0.05398,-0.701219 -1.120786,-0.557476 -1.118395,0.115845 a 3.2062399,3.054444 0 0 1 -0.479435,1.61781 1.9369723,1.8452687 0 0 1 -0.391242,-0.476619 3.9854708,3.7967829 0 0 1 -0.355292,-1.914278 c 0.01202,-0.404513 -0.645002,-0.507355 -0.661913,-0.09692 a 6.966487,6.6366656 0 0 0 0.141032,2.498398 2.9607389,2.8205656 0 0 0 0.523347,0.876403 12.758333,12.154305 0 0 1 -1.450339,1.1471 11.581281,11.032976 0 0 1 -0.346539,-6.322771 c 0.265054,-0.683014 -0.819785,-1.135753 -1.094477,-0.449905 a 8.1387125,7.7533941 0 0 0 -0.436856,1.595114 l -0.231755,-0.317744 a 3.6950699,3.5201306 0 0 1 -0.373267,-1.894659 0.34495697,0.32862504 0 0 0 -0.681959,-0.09929 4.0050238,3.8154101 0 0 0 0.120825,2.266304 c 0.173836,0.427445 0.524557,1.284698 1.046696,1.542393 -0.0041,0.540456 0.02637,1.082323 0.07224,1.625614 a 3.6986908,3.5235802 0 0 1 -0.745205,-0.480382 3.5837854,3.414115 0 0 1 -1.073743,-1.716871 c -0.09962,-0.376847 -0.786943,-0.217507 -0.701954,0.165501 a 4.5428572,4.3277803 0 0 0 2.637027,3.220702 c 0.07224,0.686087 0.142755,1.374773 0.173321,2.067005 a 11.987552,11.420015 0 0 1 -0.301026,3.09254 18.557183,17.678611 0 0 0 -1.90704,-2.262286 20.076054,19.125575 0 0 1 -1.83221,-5.347924 v -0.0087 a 7.6477101,7.2856376 0 0 1 0.140544,-0.915414 14.44015,13.756496 0 0 1 1.518387,-3.610509 L 61.146057,29.518 a 27.831668,26.51401 0 0 0 2.353639,-1.903854 l 0.294464,0.02016 a 3.6105807,3.4396415 0 0 0 0.784308,1.494872 c 0.257604,0.313491 0.712384,-0.03783 0.506951,-0.365265 A 2.3287603,2.218508 0 0 1 64.78533,27.887037 l -0.02416,-0.299071 a 6.2719867,5.9750459 0 0 0 0.953521,-0.191503 4.6831091,4.4613924 0 0 0 1.234992,-0.537143 3.5562661,3.3878983 0 0 0 0.989739,-1.05466 0.35171564,0.33506436 0 0 0 -0.553772,-0.412786 2.8108313,2.6777553 0 0 1 -1.225081,0.590571 1.9010041,1.8110032 0 0 1 -1.182822,-0.137113 l -0.03329,-0.01091 0.06312,-0.101663 a 12.269505,11.688617 0 0 0 2.609521,-2.327774 c 0.461338,-0.552038 -0.417967,-1.197459 -0.901865,-0.67214 q -0.325806,0.353919 -0.677867,0.682069 a 12.229916,11.650903 0 0 0 0.476773,-3.253827 c -0.0017,-0.683958 -1.238125,-0.714694 -1.267811,-0.026 a 9.8007328,9.3367274 0 0 1 -2.394415,5.685057 l -0.02416,-0.01724 a 7.5948449,7.2352742 0 0 0 0.925045,-5.574673 4.7895652,4.5628085 0 0 1 1.223155,-1.69843 11.625215,11.074831 0 0 0 2.126949,-2.536556 3.4642935,3.3002804 0 0 0 0.890252,-0.186768 6.4588285,6.1530417 0 0 0 1.454432,-0.580406 c 0.30598,-0.167854 0.01518,-0.640932 -0.302309,-0.512318 a 3.2320694,3.0790505 0 0 1 -1.407787,0.296226 l -0.108228,-0.0071 0.189364,-0.345172 0.04833,-0.09694 0.269121,-0.265024 0.577392,-0.355336 a 7.8282755,7.4576538 0 0 0 1.435568,-1.199092 7.351033,7.003006 0 0 0 1.683731,-3.1965636 c 0.09222,-0.3820609 -0.51612,-0.4518046 -0.622337,-0.089857 a 7.4314184,7.0795853 0 0 1 -1.701124,2.8092266 6.625634,6.3119501 0 0 1 -0.743995,0.655114 c 0.148927,-0.648968 0.196742,-1.344981 0.374181,-1.976929 L 69.443182,9.9533687 69.5492,9.8847987 A 8.9015283,8.4800952 0 0 0 70.43052,9.2897583 6.7634715,6.4432621 0 0 0 71.795595,7.7802288 C 72.012571,7.4504225 71.551244,7.0811354 71.284777,7.398174 a 7.9455948,7.5694185 0 0 1 -1.416511,1.3144858 l -0.01008,0.00678 a 3.0855414,2.9394596 0 0 0 0.04511,-1.6256075 C 69.811577,6.7742138 69.30534,6.9236427 69.329479,7.2286112 A 3.5608528,3.3922681 0 0 1 68.88387,9.0388648 l -0.205637,0.3350047 -0.32028,0.20333 v 0 L 68.252971,9.3809246 A 6.8812735,6.5554869 0 0 0 67.53553,7.2881502 0.31816183,0.30309846 0 0 0 66.944354,7.5103925 10.537962,10.039053 0 0 1 67.609918,11.541254 l -0.05623,0.483002 a 4.4634376,4.2521205 0 0 1 -1.360511,-1.332689 4.0378538,3.846686 0 0 1 -0.574779,-2.4238792 0.31478076,0.29987798 0 0 0 -0.62234,-0.089839 5.3681949,5.1140431 0 0 0 0.04833,2.0556576 3.5673704,3.398477 0 0 1 -1.948068,-2.3457426 c -0.08581,-0.3196425 -0.559297,-0.151323 -0.555699,0.1323994 a 3.5680946,3.3991668 0 0 0 2.783292,3.1188542 l 0.07224,0.0085 a 4.5568585,4.3411188 0 0 0 1.842566,1.895602 9.3903584,8.9457816 0 0 1 -0.444694,0.983265 l -0.03008,0.02016 -0.04709,0.04019 A 1.7402337,1.6578441 0 0 1 66.22458,13.814115 6.4663117,6.1601706 0 0 1 65.292805,12.900122 c -0.236459,-0.282283 -0.642386,0.03309 -0.458503,0.330514 a 4.619139,4.4004507 0 0 0 1.44499,1.622066 7.3503091,7.0023162 0 0 1 -1.57559,1.583292 19.560911,18.634821 0 0 0 0.132651,-1.864159 c 0.0149,-0.422952 -0.637996,-0.544235 -0.702248,-0.101662 a 12.51742,11.924795 0 0 1 -0.687484,2.932768 l -0.05301,0.08985 -0.05203,0.137115 a 4.882745,4.6515763 0 0 1 -0.513214,0.827937 l -0.111933,0.04966 -0.19502,0.0095 c -0.185182,-0.500449 -0.386182,-0.992675 -0.587328,-1.47473 a 12.007348,11.438872 0 0 1 -0.609667,-1.869124 c 1.067952,-0.345171 1.728657,-1.669585 2.045609,-2.595424 0.127227,-0.371177 -0.457121,-0.617762 -0.590216,-0.242809 a 3.2277242,3.0749111 0 0 1 -0.921417,1.326308 6.9481406,6.6191882 0 0 1 -0.678335,0.480164 4.6348298,4.4153983 0 0 1 0.352998,-2.02374 0.32492102,0.30953779 0 0 0 -0.596254,-0.245402 8.4752208,8.0739703 0 0 0 -0.614822,4.472208 17.873787,17.027571 0 0 0 0.392155,2.107905 v 0 A 6.6717407,6.3558743 0 0 1 58.97197,16.712083 c -0.18615,-0.294105 -0.710216,-0.01312 -0.555203,0.29765 a 9.3075587,8.8669018 0 0 0 1.500782,2.271273 2.0180823,1.922538 0 0 0 -0.85768,0.609722 c -0.223864,0.242323 0.140055,0.555583 0.400462,0.387728 a 2.2498236,2.1433081 0 0 1 1.196382,-0.282286 l 0.490038,0.354392 0.114399,0.696962 a 6.448207,6.1429234 0 0 1 -0.697172,3.844633 6.3646834,6.0633541 0 0 1 -0.906427,1.203369 9.6059256,9.1511429 0 0 1 0.569948,-1.56367 c 0.34008,-0.693178 -0.803857,-1.16176 -1.14325,-0.469999 -0.365893,0.745426 -0.799986,1.455864 -1.137205,2.215005 a 17.591833,16.758967 0 0 0 -0.803858,2.296564 l -0.221165,0.909742 a 3.4372573,3.274524 0 0 1 -1.014001,-1.080911 0.56607709,0.53927637 0 0 0 -0.2705,-0.5518 5.7015645,5.4316301 0 0 1 -0.362198,-1.919244 c 0.34055,-0.115845 0.669607,-0.30829 1.005424,-0.454634 a 3.2047915,3.0530641 0 0 0 1.400112,-1.135044 c 0.227078,-0.335951 -0.27097,-0.724858 -0.522163,-0.389144 a 2.0972604,1.997968 0 0 1 -1.446222,0.777582 1.2190569,1.161342 0 0 1 -0.307361,-0.01554 v 0 c 0.157047,-0.541634 0.337787,-1.075231 0.500911,-1.61403 a 6.761058,6.4409627 0 0 0 2.669842,-4.482862 0.41882449,0.39899564 0 0 0 -0.82748,-0.120579 5.9661361,5.6836756 0 0 1 -1.419418,2.67687 l 0.07792,-0.875457 a 14.122954,13.454317 0 0 1 0.664822,-2.288529 c 0.362197,-0.841413 0.949872,-1.569345 1.291727,-2.424092 a 7.9315939,7.5560805 0 0 0 0.373735,-1.234103 11.231495,10.699753 0 0 0 0.09222,-1.432695 c 0.02786,-0.418459 -0.653958,-0.520121 -0.681967,-0.09693 a 7.5781876,7.2194064 0 0 1 -0.862046,2.611074 16.244112,15.475052 0 0 1 -0.965603,1.421348 l -0.04834,-0.746134 c -0.02416,-0.397924 -0.720577,-0.422035 -0.74348,-0.01509 a 27.692864,26.381774 0 0 1 -0.861557,5.882338 2.0419804,1.9453049 0 0 1 -0.779004,-0.928177 c -0.136834,-0.402386 -0.777298,-0.158409 -0.640899,0.242324 a 8.4621852,8.0615524 0 0 0 0.419347,1.226537 3.8365285,3.6548921 0 0 0 0.535182,0.755357 14.023498,13.359569 0 0 0 -0.719607,2.225169 6.2978166,5.9996527 0 0 0 -0.492946,-0.716348 L 52.568929,24.275907 52.314088,23.703065 A 9.5035732,9.0536367 0 0 1 51.68843,20.93307 l 0.03353,-0.388672 a 3.1794447,3.0289177 0 0 0 1.075179,-0.518465 4.5583066,4.3424984 0 0 0 1.482392,-1.814747 0.34978483,0.33322478 0 0 0 -0.593865,-0.335951 3.1306827,2.9824637 0 0 1 -1.641471,0.979483 l -0.04291,0.01044 0.190829,-0.352975 a 8.0093235,7.6301305 0 0 1 1.102687,-1.341437 14.004428,13.341403 0 0 0 1.829547,-2.320919 6.8501335,6.5258211 0 0 0 2.157126,-2.276707 5.8036759,5.528907 0 0 1 1.816503,-1.434351 3.0843343,2.9383098 0 0 1 1.368727,-0.07093 9.3473898,8.9048473 0 0 0 1.412911,-0.03548 0.34302563,0.32678546 0 0 0 0.01415,-0.644005 10.865297,10.350891 0 0 0 -1.546646,-0.224599 l 0.33456,-0.2818095 a 2.4171119,2.3026765 0 0 0 0.72416,-2.444793 C 61.271721,7.0836951 60.746318,7.3023812 60.846766,7.6499147 61.257362,9.0724416 59.581372,9.7982471 58.298352,10.351823 a 9.2455198,8.8078007 0 0 0 0.305983,-3.4361998 0.35214839,0.3354766 0 0 0 -0.700083,0.07327 9.6134087,9.1582727 0 0 1 -0.894125,4.0769148 9.2696588,8.8307975 0 0 1 -1.062128,1.678809 11.80916,11.250067 0 0 0 -0.259901,-6.0261145 0.30947136,0.29481981 0 0 0 -0.600815,0.1347583 15.484677,14.75157 0 0 1 0.128951,4.7856522 5.9509281,5.6691877 0 0 1 -1.026181,-2.1906518 0.35509547,0.33828391 0 0 0 -0.705604,0.073279 5.2675321,5.0181465 0 0 0 1.391434,3.1903708 l 0.04834,0.03783 a 6.5901484,6.2781448 0 0 1 -0.79878,1.552796 22.018096,20.975672 0 0 1 -1.979453,2.235335 c 0.114654,-0.676157 0.228079,-1.352784 0.313819,-2.033671 A 35.649566,33.961775 0 0 0 52.573718,8.7497107 C 52.547078,8.2466124 51.744289,8.338107 51.761674,8.8348147 a 18.643361,17.76071 0 0 1 -0.06683,2.1433683 l -0.101339,-0.09219 A 4.1322402,3.9366035 0 0 1 50.648311,9.0712539 C 50.545998,8.6778544 49.892012,8.7199374 49.969236,9.1421697 a 7.4026919,7.0522192 0 0 0 0.492429,1.9738583 5.0671723,4.8272722 0 0 0 0.512474,0.788692 3.107267,2.9601568 0 0 0 0.517086,0.62296 c -0.101827,0.600503 -0.226845,1.195805 -0.371419,1.783778 a 46.172802,43.986795 0 0 0 -1.264752,5.021594 12.830029,12.222606 0 0 0 2.764492,8.671661 c 0.250677,0.324366 0.513953,0.639277 0.784996,0.948512 0.219442,0.402383 0.427191,0.809969 0.617039,1.225828 a 15.545992,14.809981 0 0 1 1.096919,3.417545 c 0.116124,0.65015 0.190341,1.297934 0.29999,1.939576 -0.586862,-0.447304 -1.174166,-0.901463 -1.740735,-1.375244 l -0.138823,-1.011849 c -0.159028,-1.06932 -0.407833,-2.126111 -0.545341,-3.19659 a 0.61990845,0.59055974 0 0 0 -1.231122,0.127668 c 0.106504,0.829355 0.149414,1.66533 0.215252,2.499273 a 11.579349,11.031138 0 0 1 -1.739403,-2.375341 6.8013712,6.4793673 0 0 0 0.685336,-2.454 0.29257361,0.27872207 0 0 0 -0.555203,-0.151294 10.900298,10.384235 0 0 1 -0.688961,1.325125 6.8211653,6.4982248 0 0 1 -0.0651,-4.148175 c 0.246074,-0.677101 -0.818332,-1.12677 -1.081682,-0.444702 a 8.7035824,8.2915204 0 0 0 0.406453,6.212365 10.549066,10.049631 0 0 1 -1.659865,-1.535063 6.9631075,6.6334464 0 0 1 -0.574777,-0.846379 7.9451122,7.568959 0 0 0 0.509564,-2.644624 8.2123386,7.8235342 0 0 0 -0.329034,-2.824226 0.34737077,0.33092489 0 0 0 -0.66142,0.07093 c -0.0747,0.89697 -0.03132,1.795597 -0.101827,2.692237 -0.02933,0.374487 -0.07917,0.746848 -0.130929,1.118969 -0.158053,-0.442101 -0.294936,-0.891771 -0.424402,-1.340255 -0.170854,-0.590336 -1.250428,-0.341151 -1.107523,0.261949 a 13.113429,12.492588 0 0 0 1.530248,4.231441 c 0.921689,1.333872 2.469752,2.08379 3.527558,3.298887 a 13.24306,12.616082 0 0 1 1.32913,1.890399 l 0.406897,0.707602 -0.513952,0.04492 h -0.01671 A 2.5484321,2.4277792 0 0 1 49.205905,35.159296 7.9047985,7.5305539 0 0 1 48.240328,34.071064 4.6452101,4.4252873 0 0 1 47.25976,32.476895 c -0.102811,-0.409714 -0.790127,-0.354863 -0.700081,0.07327 a 8.0576032,7.6761241 0 0 0 1.342416,3.201414 9.3300091,8.8882895 0 0 1 -0.938554,-0.156029 7.997254,7.6186322 0 0 1 -1.743595,-0.591284 2.6218167,2.4976896 0 0 0 0.135351,-0.711147 10.392881,9.9008418 0 0 0 -0.31059,-4.903385 c -0.226332,-0.677811 -1.274123,-0.264317 -1.070341,0.404984 a 9.4649493,9.0168416 0 0 1 0.31244,1.496057 6.3330602,6.0332279 0 0 1 -0.581043,-0.600506 2.9339436,2.7950391 0 0 1 -0.498964,-1.161996 15.499885,14.766058 0 0 1 -0.106502,-2.376475 c -0.0059,-0.322003 -0.511611,-0.30427 -0.570737,-0.01163 a 6.9281046,6.6001006 0 0 0 0.398615,4.271439 7.906006,7.531704 0 0 1 0.938083,1.97315 3.9007403,3.7160639 0 0 1 0.06361,0.858668 6.2695727,5.9727466 0 0 1 -2.49869,-3.881632 0.57621537,0.54893524 0 0 0 -1.14495,0.118196 7.2257477,6.883652 0 0 0 0.304599,1.318739 1.5104236,1.4389141 0 0 1 -0.60974,-0.174944 4.3555327,4.1493247 0 0 1 -0.979115,-0.755357 c -0.236949,-0.25013 -0.782383,-0.03309 -0.589991,0.316091 a 3.2933845,3.1374625 0 0 0 1.499821,1.399599 c 0.5429,0.280865 1.027389,0.64164 1.553129,0.934323 a 8.1592314,7.7729412 0 0 0 1.579216,1.675736 8.4073878,8.0093485 0 0 1 -3.787506,-2.069607 c -0.426677,-0.409201 -1.167588,0.279249 -0.762295,0.71284 a 8.8923547,8.471356 0 0 0 0.84491,0.790347 3.2994196,3.1432117 0 0 1 -1.059243,-0.108755 c -0.381108,-0.101662 -0.570688,0.519176 -0.193065,0.638567 a 3.6129944,3.441941 0 0 0 2.146991,0.115846 8.2400994,7.8499806 0 0 0 1.075912,0.567876 l -0.169131,0.229334 a 4.5735146,4.3569866 0 0 1 -0.498743,0.505934 0.32878313,0.31321717 0 0 0 0.423027,0.475911 3.2639339,3.1094065 0 0 0 0.684868,-0.549201 l 0.241369,-0.305925 0.06041,-0.07327 a 8.6524058,8.2427665 0 0 0 3.343828,0.423425 l 0.02186,-0.0023 0.289857,0.106379 a 12.06649,11.495213 0 0 0 2.824351,0.596012 2.3234499,2.2134485 0 0 1 -0.283863,0.507589 c -0.241372,0.313017 0.250675,0.684432 0.500911,0.373304 a 10.386363,9.8946321 0 0 0 0.630773,-0.801222 l 0.96195,0.07093 c 0.778956,0.05436 1.559909,0.01821 2.340125,0.07802 0.736523,0.826282 1.510179,1.620885 2.267682,2.429836 a 5.7452575,5.4732542 0 0 1 -0.666746,0.442576 15.318352,14.593122 0 0 1 -1.915471,0.774978 0.3765802,0.35875136 0 0 0 0.179748,0.686795 6.3055412,6.0070118 0 0 0 2.156387,-0.624852 10.621485,10.118622 0 0 0 0.974034,-0.490333 c 0.348832,0.387255 0.69017,0.781835 1.018216,1.187295 a 30.672676,29.220507 0 0 1 3.497609,5.360121 29.788436,28.378134 0 0 1 1.843081,4.759201 l -0.03131,0.881736 A 8.1215732,7.7370661 0 0 1 60.863044,51.84855 c -0.520439,-0.574969 -1.510919,0.118198 -0.999134,0.719183 a 26.313763,25.067967 0 0 0 1.98165,2.107678 16.131138,15.367426 0 0 1 -0.506953,2.385011 15.439294,14.708337 0 0 1 -1.172687,2.771104 c -0.169125,-0.429084 -0.355285,-0.852272 -0.563899,-1.264824 a 14.587402,13.896775 0 0 0 -2.184517,-3.154788 7.0488033,6.7150852 0 0 0 0.446519,-1.76037 8.276792,7.884936 0 0 0 -0.484935,-3.454568 c -0.253915,-0.729115 -1.416779,-0.286773 -1.163514,0.440213 a 5.7138761,5.4433583 0 0 1 -0.141521,3.495539 21.612066,20.588865 0 0 0 -3.278671,-2.183559 l -0.742047,-0.40971 a 3.8273558,3.6461531 0 0 1 0.401845,-0.540695 c 0.38939,-0.422479 0.844909,-0.785144 1.241033,-1.202895 l 0.458526,-0.533596 0.201447,-0.15841 a 3.0174672,2.8746085 0 0 1 2.754582,-0.678283 6.6690855,6.3533441 0 0 1 1.386086,0.530523 4.3026667,4.0989617 0 0 1 1.388524,0.85536 0.35171564,0.33506436 0 0 0 0.560997,-0.403565 15.020469,14.309341 0 0 0 -1.04164,-1.428678 3.9502267,3.7632074 0 0 0 -0.482795,-0.409764 0.53831595,0.51283013 0 0 0 -0.311971,-0.265971 l -0.291708,-0.09457 -0.501648,-0.208038 a 4.767357,4.5416513 0 0 0 -1.341212,-0.251548 l -0.27373,-0.06383 0.183452,-0.395291 A 5.5279999,5.2662824 0 0 0 56.7593,42.872872 c -0.214243,-0.648258 -1.1623,-0.329328 -1.146373,0.271174 a 4.5624101,4.3464075 0 0 1 -0.850681,3.079774 8.4916353,8.089608 0 0 1 -1.569081,1.440969 l 0.176537,-0.53998 a 5.78195,5.5082097 0 0 0 0.205147,-2.314534 c -0.04661,-0.368103 -0.672516,-0.407114 -0.703655,-0.01433 a 6.7919564,6.4703988 0 0 1 -0.53109,2.082848 5.6680107,5.3996645 0 0 1 -1.478074,1.668639 c -0.516126,0.464562 -1.114527,0.872385 -1.658387,1.32347 l -0.193067,-0.132397 a 6.6169437,6.3036713 0 0 1 0.175071,-0.758903 l 0.431774,-0.931252 a 13.103774,12.483389 0 0 1 0.83135,-1.616627 6.008622,5.7241499 0 0 1 2.344463,-2.247394 0.35171564,0.33506436 0 0 0 -0.25943,-0.62249 6.9244835,6.5966513 0 0 0 -1.963775,1.027712 7.8531393,7.4813408 0 0 0 -0.163707,-1.48187 c 0.106504,-0.528869 0.325335,-1.032911 0.482813,-1.557051 a 6.2780217,5.9807951 0 0 0 0.199466,-2.214295 0.34978483,0.33322478 0 0 0 -0.690389,-0.01384 9.6921044,9.2332417 0 0 1 -0.522608,2.081427 c -0.142757,-0.352503 -0.30184,-0.698383 -0.470734,-1.034806 -0.340547,-0.678993 -1.478075,-0.26337 -1.151212,0.435244 a 7.7338892,7.3677366 0 0 1 0.713569,5.054697 l -0.08432,0.219864 A 2.4511488,2.3351019 0 0 1 47.957123,45.417884 2.854041,2.7189195 0 0 1 47.32948,43.888967 c -0.04312,-0.490096 -0.819564,-0.401913 -0.792294,0.08275 a 4.3934323,4.1854302 0 0 0 1.783908,3.085471 13.965563,13.304377 0 0 0 -0.895333,1.385883 14.652821,13.959099 0 0 1 -1.634245,-1.836733 16.354914,15.580608 0 0 1 -1.501721,-2.487099 6.4257568,6.1215363 0 0 0 0.754596,-1.988749 l 0.05719,-0.04966 c 0.253426,-0.263843 0.518515,-0.526269 0.79804,-0.76505 0.273263,-0.234069 0.571131,-0.4343 0.827774,-0.685376 0.246075,-0.240916 -0.102313,-0.64826 -0.406453,-0.517757 a 3.5067795,3.3407549 0 0 0 -1.092555,0.787036 l 0.0257,-0.457706 a 12.5348,11.941353 0 0 0 -0.143243,-1.59937 0.34519833,0.32885554 0 0 0 -0.68556,0.07093 9.692346,9.233472 0 0 1 -0.412888,2.770681 7.9477669,7.5714887 0 0 1 -0.359907,0.947567 l -0.05941,-0.153676 a 12.186464,11.609508 0 0 1 -0.76185,-4.62246 c 0.05768,-0.705237 -1.086291,-0.873802 -1.145196,-0.165498 a 19.754031,18.818796 0 0 0 -0.0022,4.208433 17.580729,16.748387 0 0 0 0.591422,2.497217 28.267633,26.92933 0 0 1 -2.344905,-2.552656 c -0.365421,-0.444253 -0.727568,-0.905742 -1.059955,-1.385907 a 5.1840088,4.9385771 0 0 0 0.906205,-1.662969 4.5788256,4.3620457 0 0 0 0.203658,-1.044496 9.012571,8.5858806 0 0 0 -0.123527,-1.177125 0.36861386,0.3511623 0 0 0 -0.731912,0.07566 3.4242218,3.2621059 0 0 1 -0.541691,1.654692 2.7541029,2.6237126 0 0 1 -0.586343,0.6693 L 37.715706,38.298737 37.414339,37.359211 A 20.196029,19.23987 0 0 0 36.969633,33.80296 11.380437,10.841643 0 0 1 37.82901,30.225122 l 0.239648,-0.305216 a 4.084685,3.8913 0 0 0 1.422083,-0.259825 6.2232244,5.9285924 0 0 0 1.870081,-1.022272 c 0.311061,-0.217509 0.01852,-0.754884 -0.341461,-0.578279 a 5.6868397,5.417602 0 0 1 -1.825207,0.462197 l -0.223144,0.01748 0.281547,-0.459835 c 0.728559,-0.563621 1.456822,-1.12677 2.194037,-1.681881 a 24.427001,23.27053 0 0 0 3.395993,-2.9061 10.692456,10.186232 0 0 0 1.546373,-2.235808 2.6293001,2.5048188 0 0 0 0.780683,-0.0922 4.1896927,3.9913361 0 0 0 1.321906,-0.570004 0.35412996,0.33736422 0 0 0 -0.25024,-0.600264 8.3509009,7.9555363 0 0 1 -1.331816,0.06857 v 0 a 12.856342,12.247672 0 0 0 0.388017,-1.284019 8.3784203,7.9817526 0 0 0 1.204122,-1.790632 17.562384,16.73091 0 0 0 1.055127,-2.630154 c 0.155353,-0.470945 -0.579325,-0.786798 -0.75002,-0.30829 a 11.393955,10.854521 0 0 1 -1.149928,2.243137 l 0.02859,-0.85087 c 0.0015,-0.237369 -0.0029,-0.474728 -0.01155,-0.711144 a 6.0385555,5.7526664 0 0 0 1.423045,-2.429152 6.9790398,6.6486243 0 0 0 0.201935,-3.0801989 c -0.07569,-0.4260258 -0.76473,-0.3610104 -0.705826,0.073288 a 6.6881556,6.3715118 0 0 1 -0.265433,2.7754569 6.7707138,6.4501614 0 0 1 -0.527439,1.15845 l -0.207848,0.313016 c -0.10647,-1.068607 -0.293056,-2.128709 -0.508105,-3.187603 -0.09962,-0.4891479 -0.889784,-0.4212966 -0.818823,0.0851 a 26.075986,24.841445 0 0 1 0.228079,5.187845 5.847127,5.5703012 0 0 1 -2.504497,-3.426503 c -0.107767,-0.477569 -0.897048,-0.410189 -0.805575,0.0851 a 8.0694314,7.6873929 0 0 0 1.018466,2.583696 2.9151147,2.7771016 0 0 1 -1.005175,-0.284412 c -0.390303,-0.191503 -0.645962,0.395766 -0.267739,0.591522 a 7.2098155,6.8684743 0 0 0 1.248258,0.562439 2.3794539,2.2668011 0 0 0 0.856005,0.189123 5.0415841,4.8028958 0 0 0 1.299689,0.970969 13.076013,12.456943 0 0 1 -0.487868,1.913806 10.633795,10.13035 0 0 1 -2.122608,3.541526 20.169958,19.215033 0 0 1 -2.458125,2.166302 l 0.434563,-0.816828 a 19.786619,18.849843 0 0 0 0.867346,-1.931774 L 42.735309,21.63613 A 16.960821,16.157829 0 0 0 44.96535,18.370575 C 45.05189,18.09444 44.64692,17.78024 44.457216,18.083092 a 8.4151131,8.0167076 0 0 1 -1.220002,1.365317 10.99034,10.470014 0 0 0 0.13782,-3.114222 0.30826443,0.2936701 0 0 0 -0.612431,0.06383 11.025584,10.503589 0 0 1 -0.575002,3.797728 17.070175,16.262004 0 0 1 -1.499305,2.955112 8.2528937,7.8621691 0 0 0 -0.123525,-0.867893 15.552751,14.816422 0 0 0 -0.550865,-1.84288 5.5229306,5.2614532 0 0 0 1.152692,-1.675495 9.3918064,8.9471604 0 0 0 0.838131,-2.427782 8.9799824,8.5548347 0 0 0 -0.664084,-4.902013 0.35509547,0.33828391 0 0 0 -0.659475,0.249655 8.518914,8.1155945 0 0 1 0.289856,4.501879 8.3989391,8.0013001 0 0 1 -0.78238,2.092774 7.3015465,6.9558622 0 0 1 -0.474828,0.745899 l -0.108737,-0.08984 -0.127717,-0.69507 a 11.770777,11.213503 0 0 1 0.169131,-4.105165 0.36982077,0.352312 0 0 0 -0.702473,-0.191503 9.5351971,9.0837625 0 0 0 -0.61413,3.527005 l 0.04833,0.542344 -0.331326,-0.333822 a 4.4518505,4.2410821 0 0 1 -1.103083,-2.476312 c -0.02885,-0.434773 -0.710906,-0.352501 -0.700083,0.07329 a 7.334859,6.9875981 0 0 0 0.07841,0.852523 3.4208422,3.2588861 0 0 1 -1.368259,-0.08985 c -0.319816,-0.07801 -0.420263,0.377324 -0.151625,0.504754 a 3.4860196,3.3209774 0 0 0 1.677002,0.309946 h 0.0039 a 6.3564757,6.055535 0 0 0 0.611688,1.39865 4.781599,4.5552199 0 0 0 1.042382,1.197221 4.927162,4.6938907 0 0 0 0.538338,0.400493 c 0.09124,0.502625 0.177769,1.006435 0.228568,1.514499 a 12.540111,11.946413 0 0 1 0.01671,3.660627 4.4011569,4.1927888 0 0 1 -0.817343,1.668643 9.7792498,9.3162607 0 0 0 0.05474,-1.214008 9.4144984,8.9687784 0 0 0 -1.161688,-4.070437 10.793119,10.282129 0 0 0 -1.134572,-4.030226 0.31181051,0.29704771 0 0 0 -0.579341,0.219864 10.084858,9.6074013 0 0 1 0.52892,2.14715 11.785503,11.227531 0 0 0 -2.045114,-1.844299 0.39854719,0.37967814 0 0 0 -0.490999,0.597902 8.7330329,8.3195768 0 0 1 2.07988,3.05585 7.4673865,7.1138511 0 0 1 -3.963025,-2.10247 c -0.285565,-0.295993 -0.808666,0.0591 -0.534443,0.384654 a 8.7436545,8.3296952 0 0 0 3.121993,2.348818 l -0.330464,0.115844 a 1.6253282,1.548379 0 0 1 -1.486806,-0.284351 c -0.262908,-0.224599 -0.658537,0.151318 -0.440307,0.412314 a 2.502084,2.3836254 0 0 0 3.406118,0.153674 l 0.616523,0.132403 a 11.501619,10.957086 0 0 1 0.334089,2.035313 9.8393575,9.3735234 0 0 1 -1.06965,-0.08036 7.7515112,7.3845239 0 0 1 -5.154316,-3.546371 c -0.26552,-0.451571 -1.065532,-0.167867 -0.80265,0.303313 a 10.133379,9.6536243 0 0 0 2.971845,3.288558 l -0.371737,0.226953 a 4.1713466,3.9738589 0 0 1 -1.341212,0.364801 8.2741365,7.882406 0 0 1 -3.186448,-0.313964 c -0.406528,-0.104014 -0.597215,0.538326 -0.203167,0.674976 a 17.520139,16.690666 0 0 0 2.071201,0.633365 l -0.07249,0.241375 a 1.738061,1.6557747 0 0 1 -0.484735,0.671429 c -0.257311,0.191502 -0.01907,0.650387 0.292813,0.495769 a 2.1757145,2.0727074 0 0 0 0.911507,-0.711382 2.3150008,2.2053995 0 0 0 0.277354,-0.558657 5.4000594,5.1443994 0 0 0 0.692563,0.0148 3.9714698,3.7834444 0 0 0 2.61771,-1.022746 9.7874569,9.3240804 0 0 0 1.228704,0.530759 7.7560982,7.3888933 0 0 0 1.584762,0.470001 11.927927,11.363212 0 0 1 -0.779941,2.782621 3.1357519,2.987293 0 0 1 -1.179469,-1.969366 c -0.02984,-0.396238 -0.635359,-0.316092 -0.632474,0.0662 a 4.6724878,4.4512736 0 0 0 0.690391,2.499273 l 0.05769,0.252732 0.417967,0.784672 -0.08061,0.06857 A 5.5634854,5.300088 0 0 1 33.60368,30.290736 11.429924,10.888786 0 0 1 31.591874,27.370144 c -0.326616,-0.599556 -1.346265,-0.244928 -1.045486,0.39529 a 16.463302,15.683863 0 0 0 1.682547,2.938752 6.8216484,6.4986845 0 0 0 1.129491,1.149939 c 0.139798,0.111106 0.431133,0.252731 0.686545,0.411132 a 5.9772404,5.6942543 0 0 0 -0.250676,1.887089 L 33.396982,34.02232 a 6.4711395,6.1647704 0 0 0 -1.486288,-0.718482 c -0.551109,-0.172585 -1.078797,-0.409714 -1.626061,-0.595299 a 6.7108473,6.3931289 0 0 1 -0.521892,-1.515442 5.715083,5.4445082 0 0 0 -0.811329,-1.826806 c -0.42174,-0.574969 -1.262015,0.0662 -0.897748,0.645894 a 7.2054705,6.8643349 0 0 1 0.672294,2.010503 4.1163081,3.9214257 0 0 1 -0.729743,-0.141849 3.0862655,2.9401494 0 0 1 -1.130476,-0.637149 8.2557905,7.8649284 0 0 0 0.213522,-1.516385 5.7966752,5.5222378 0 0 0 -0.262611,-2.101761 c -0.138569,-0.422952 -0.768614,-0.160763 -0.659501,0.249659 a 5.4121293,5.1558977 0 0 1 0.01836,2.003645 l -0.08617,0.396474 a 9.4536037,9.0060331 0 0 1 -0.90156,-2.468333 c -0.168992,-0.729586 -1.387309,-0.62249 -1.231124,0.127669 a 9.6291008,9.1732196 0 0 0 1.679405,4.173943 1.146879,1.0925814 0 0 1 -0.451417,0.179679 2.2541688,2.1474474 0 0 1 -1.013868,-0.05674 6.0433834,5.7572657 0 0 1 -2.152784,-1.3821 c -0.568009,-0.473075 -1.225816,0.37945 -0.70971,0.86411 a 9.4869173,9.0377688 0 0 0 1.577774,1.256564 2.663096,2.5370142 0 0 0 1.369934,0.777344 3.2455877,3.0919289 0 0 0 0.961241,0.06857 3.8367698,3.6551222 0 0 1 -0.865894,0.678757 0.28146933,0.26814353 0 0 0 0.207603,0.497897 4.4202275,4.2109563 0 0 0 2.296172,-1.355387 3.9415364,3.7549285 0 0 1 1.425928,0.210419 6.6678784,6.3521945 0 0 1 -0.591669,0.644002 4.4042948,4.1957786 0 0 1 -1.749892,0.972861 c -0.359945,0.09457 -0.206641,0.698854 0.15982,0.613505 a 11.12842,10.601556 0 0 0 1.778618,-0.517517 l 0.05622,0.310416 c 0.02736,0.282756 0.02811,0.556292 0.07594,0.837392 a 0.33433566,0.31850679 0 0 0 0.633683,0.08985 1.8913486,1.8018046 0 0 0 0.191823,-0.966003 2.5914011,2.4687135 0 0 0 -0.107257,-0.699092 2.8760083,2.7398469 0 0 0 0.924303,-0.758901 11.160766,10.632371 0 0 1 1.838499,0.99532 7.4123478,7.0614179 0 0 1 2.811805,3.483318 24.07963,22.939605 0 0 1 0.57934,3.006392 l -0.22487,-0.115869 -0.117849,-0.06148 A 7.8360008,7.4650129 0 0 1 33.492024,39.006894 6.811027,6.4885663 0 0 0 31.44377,36.144461 c -0.318876,-0.285358 -0.724197,0.222243 -0.416662,0.507354 a 6.9763842,6.6460947 0 0 1 1.617356,3.318676 l 0.187632,0.698377 a 4.0356813,3.8446162 0 0 1 -1.81241,-2.559558 0.59311311,0.56503272 0 0 0 -1.17826,0.122934 5.812366,5.537186 0 0 0 2.886871,3.903242 c 1.331816,0.861982 2.768854,1.56982 4.154947,2.352364 l -0.157048,0.0029 q -1.389666,0.01116 -2.778893,-0.0045 a 8.5884358,8.1818258 0 0 0 -1.150261,-0.210419 3.4374991,3.2747536 0 0 1 -2.551569,-2.57313 0.37199369,0.35438185 0 0 0 -0.738915,0.07802 4.4093644,4.2006078 0 0 0 1.416288,2.689021 c -0.516592,-0.01068 -1.032939,-0.03309 -1.543735,-0.08036 a 11.510794,10.965825 0 0 1 -2.065157,-0.511547 l -0.20292,-0.04019 a 8.6837875,8.2726636 0 0 1 -0.111448,-2.646252 l -0.0054,-0.165499 a 5.1811117,4.9358176 0 0 0 0.708737,-3.206471 c -0.03008,-0.293157 -0.543863,-0.321765 -0.55762,-0.01116 a 4.729699,4.5057761 0 0 1 -0.35747,1.586749 11.216288,10.685264 0 0 0 -0.831853,-2.370519 c -0.335797,-0.681446 -1.455389,-0.274098 -1.151225,0.435157 a 10.05589,9.5798048 0 0 1 0.594322,4.730447 8.3088978,7.9155216 0 0 0 -0.03936,1.115421 7.3853113,7.0356615 0 0 1 -1.569083,-1.009269 l -0.112686,-0.09935 a 0.46879378,0.44659918 0 0 0 0.293771,-0.255801 4.0332672,3.8423164 0 0 0 0.110556,-1.902695 8.9222882,8.4998722 0 0 0 -0.465172,-1.902222 l -0.05309,-0.134757 c -0.03234,-0.64212 -0.100917,-1.275011 -0.202524,-1.931784 a 5.250393,5.001819 0 0 0 -0.941451,-2.350233 c -0.241381,-0.303797 -0.685327,0.03546 -0.486176,0.3499 a 5.277671,5.0278054 0 0 1 0.706087,2.274579 8.6903054,8.2788721 0 0 0 -1.27192,-1.372881 c -0.293512,-0.254644 -0.77365,0.18439 -0.501832,0.469977 a 8.5903673,8.1836656 0 0 1 1.797925,2.970052 7.7529599,7.3859039 0 0 1 0.348561,1.658713 c 0.04249,0.474962 -0.04562,0.981369 -0.01062,1.458227 a 8.4168025,8.0183179 0 0 1 -1.693592,-2.975439 c -0.205434,-0.66883 -1.223646,-0.258169 -1.045495,0.39529 a 10.201936,9.7189361 0 0 0 2.242099,3.953623 4.1319987,3.9363738 0 0 1 -1.147123,0.115845 4.3567399,4.1504744 0 0 1 -2.395383,-0.75441 0.27133078,0.25848466 0 0 0 -0.334094,0.407112 4.8878142,4.6564057 0 0 0 2.588266,1.228667 z"
     id="path876"
     inkscape:connector-curvature="0"
     style="fill:#ffffff;fill-opacity:1;stroke-width:23.56137466" />
  <text
     xml:space="preserve"
     style="font-style:normal;font-weight:normal;font-size:42.66666794px;line-height:1;font-family:sans-serif;letter-spacing:0px;word-spacing:0px;fill:#9cff71;fill-opacity:1;stroke:none;"
     x="137.65663"
     y="59.107471"
     id="text892"><tspan
       sodipodi:role="line"
       id="tspan890"
       x="137.65663"
       y="59.107471">Groot</tspan></text>
  <text
     xml:space="preserve"
     style="font-style:normal;font-weight:normal;font-size:10.66666698px;line-height:1;font-family:sans-serif;letter-spacing:0px;word-spacing:0px;fill:#ffffff;fill-opacity:1;stroke:none"
     x="121.79488"
     y="76.142708"
     id="text896"><tspan
       sodipodi:role="line"
       id="tspan894"
       x="121.79488"
       y="76.142708">The fancy BehaviorTree Editor</tspan></text>
</svg>
