<svg xmlns:dc="http://purl.org/dc/elements/1.1/" xmlns:cc="http://creativecommons.org/ns#" xmlns:rdf="http://www.w3.org/1999/02/22-rdf-syntax-ns#" xmlns:svg="http://www.w3.org/2000/svg" xmlns="http://www.w3.org/2000/svg" xmlns:sodipodi="http://sodipodi.sourceforge.net/DTD/sodipodi-0.dtd" xmlns:inkscape="http://www.inkscape.org/namespaces/inkscape" version="1.1" x="0px" y="0px" viewBox="0 0 100 125"><g transform="translate(0,-952.36218)"><path style="text-indent:0;text-transform:none;direction:ltr;block-progression:tb;baseline-shift:baseline;color:#000000;enable-background:accumulate;" d="m 41.812509,958.36218 c -0.98331,0.0927 -1.81696,1.01256 -1.8125,2 l 0,6 c -5.05629,0 -10.145351,0 -15.187501,0 -0.9832,0.0926 -1.81681,1.01249 -1.8125,2 l 0,76.00002 c 5e-5,1.0472 0.9528,1.9999 2,2 l 50.000001,0 c 1.0472,-10e-5 1.99995,-0.9528 2,-2 l 0,-76.00002 c -5e-5,-1.04717 -0.9528,-1.99993 -2,-2 l -15,0 0,-6 c 1.1e-4,-1.04708 -0.95269,-1.99988 -2,-2 -5.38979,0 -10.81177,0 -16.1875,0 z m 2.1875,4 12,0 0,4 -12,0 z m -17.000001,8 46.000001,0 0,60.00002 -46.000001,0 z m 16.562501,15.4375 -6,22.03122 c -0.3252,1.1856 0.70864,2.5363 1.9375,2.5313 l 8.21875,0 -5.125,15.3437 c -0.29722,0.9174 0.18054,2.0194 1.05314,2.4291 0.8726,0.4098 2.02516,0.073 2.54061,-0.7416 l 15,-24.0312 c 0.71962,-1.1998 -0.28902,-3.0117 -1.6875,-3.0313 l -7,0 9.59375,-12.81247 c 0.43388,-0.59014 0.50524,-1.42627 0.17765,-2.08147 -0.3276,-0.65519 -1.03917,-1.09949 -1.7714,-1.10603 l -15,0 c -1,-0.0128 -1.53467,0.84506 -1.9375,1.46875 z m 3.46875,2.53125 9.46875,0 -9.59375,12.78127 c -0.45161,0.5898 -0.53417,1.4399 -0.20451,2.1057 0.32966,0.6657 1.05561,1.1151 1.79826,1.113 l 7.40625,0 -4.1875,6.7188 0.6875,-2.0625 c 0.41705,-1.2054 -0.6313,-2.6662 -1.90625,-2.6563 l -8.375,0 z m -20.031251,46.03127 46.000001,0 0,8 -46.000001,0 z" fill="#000000" fill-opacity="1" stroke="none" marker="none" visibility="visible" display="inline" overflow="visible"/></g><text x="0" y="115" fill="#000000" font-size="5px" font-weight="bold" font-family="'Helvetica Neue', Helvetica, Arial-Unicode, Arial, Sans-serif">Created by AFY Studio</text><text x="0" y="120" fill="#000000" font-size="5px" font-weight="bold" font-family="'Helvetica Neue', Helvetica, Arial-Unicode, Arial, Sans-serif">from the Noun Project</text></svg>