<?xml version="1.0" encoding="iso-8859-1"?>
<!-- Generator: Adobe Illustrator 16.0.0, SVG Export Plug-In . SVG Version: 6.00 Build 0)  -->
<!DOCTYPE svg PUBLIC "-//W3C//DTD SVG 1.1//EN" "http://www.w3.org/Graphics/SVG/1.1/DTD/svg11.dtd">
<svg xmlns="http://www.w3.org/2000/svg" xmlns:xlink="http://www.w3.org/1999/xlink" version="1.1" id="Capa_1" x="0px" y="0px" width="512px" height="512px" viewBox="0 0 467.374 467.374" style="enable-background:new 0 0 467.374 467.374;" xml:space="preserve">
<g>
	<g>
		<path d="M459.657,82.222c0-5.136-1.704-9.419-5.133-12.843l-56.531-56.531c-3.425-3.427-7.706-5.14-12.847-5.14    c-5.144,0-9.421,1.713-12.847,5.14L5.14,380.005C1.709,383.434,0,387.719,0,392.858c0,5.141,1.709,9.418,5.14,12.847    l56.529,56.527c3.431,3.429,7.708,5.141,12.85,5.141c5.137,0,9.419-1.704,12.847-5.141l367.162-367.16    C457.953,91.642,459.657,87.364,459.657,82.222z M332.038,165.877l-30.546-30.55l83.651-83.654l30.546,30.549L332.038,165.877z" fill="#FFFFFF"/>
		<polygon points="65.384,73.087 73.948,45.109 101.925,36.545 73.948,27.979 65.384,0.001 56.818,27.979 28.84,36.545     56.818,45.109   " fill="#FFFFFF"/>
		<polygon points="139.61,108.494 156.743,164.455 173.876,108.494 229.835,91.361 173.876,74.23 156.743,18.269 139.61,74.23     83.651,91.361   " fill="#FFFFFF"/>
		<polygon points="439.392,210.7 430.829,182.723 422.267,210.7 394.287,219.265 422.267,227.83 430.829,255.805 439.392,227.83     467.374,219.265   " fill="#FFFFFF"/>
		<polygon points="248.106,73.087 256.672,45.109 284.648,36.545 256.672,27.979 248.106,0.001 239.544,27.979 211.564,36.545     239.544,45.109   " fill="#FFFFFF"/>
	</g>
</g>
<g>
</g>
<g>
</g>
<g>
</g>
<g>
</g>
<g>
</g>
<g>
</g>
<g>
</g>
<g>
</g>
<g>
</g>
<g>
</g>
<g>
</g>
<g>
</g>
<g>
</g>
<g>
</g>
<g>
</g>
</svg>
