<svg xmlns="http://www.w3.org/2000/svg" xmlns:xlink="http://www.w3.org/1999/xlink" version="1.1" x="0px" y="0px" viewBox="0 0 100 125" enable-background="new 0 0 100 100" xml:space="preserve"><path d="M91.758,64.217l-4.822-6.022c0.568-0.353,0.949-0.977,0.949-1.695v-6.167c0-1.104-0.896-2-2-2h-2.167v-7.666  c0.735-1.111,1.166-2.44,1.166-3.869c0-3.11-2.064-5.845-4.994-6.733l-9.569-9.569c1.303-4.288-2.613-12.455-10.866-11.089  l-3.155-3.155c-0.76-0.759-1.982-0.783-2.771-0.056c-7.873,7.267-20.442,18.8-22.953,20.938c-4.082,0.36-8.35,3.682-8.35,8.044  v1.053h-5.818c-1.057,0-1.932,0.822-1.996,1.877l-1.586,25.82H9.803c-1.104,0-2,0.896-2,2v26.403c0,1.104,0.896,2,2,2h44.279  c1.104,0,2-0.896,2-2V65.931c0-1.104-0.896-2-2-2H39.914l-5.636-14.389c2.986-1.037,5.652-3.531,6.051-6.719l13.963-15.451  c2.025,1.544,4.572,2.298,7.228,1.974l9.665,9.665c0.505,1.534,1.511,2.793,2.797,3.645v5.678h-2.167c-1.104,0-2,0.896-2,2V56.5  c0,0.718,0.381,1.342,0.949,1.695l-4.822,6.022c-0.284,0.354-0.439,0.795-0.439,1.25v6.783c0,1.104,0.896,2,2,2H73.5  c1.104,0,2-0.896,2-2v-2.584l2.735-3.772l1.073-0.01l2.892,3.895v2.471c0,1.104,0.896,2,2,2h5.998c1.104,0,2-0.896,2-2v-6.783  C92.197,65.012,92.042,64.571,91.758,64.217z M73.814,52.333h10.071V54.5H73.814V52.333z M77.85,33.806  c1.65,0,2.993,1.343,2.993,2.993s-1.343,2.993-2.993,2.993s-2.993-1.342-2.993-2.993S76.2,33.806,77.85,33.806z M77.981,43.827  c0.601-0.011,1.183-0.1,1.738-0.253v6.76h-1.738V43.827z M60.361,25.354c-3.288,0-5.962-2.675-5.962-5.962s2.674-5.962,5.962-5.962  s5.962,2.674,5.962,5.962S63.648,25.354,60.361,25.354z M36.378,41.434c0,2.194-2.791,4.075-5.075,4.075s-5.075-1.88-5.075-4.075  v-5.692c0-2.194,2.791-4.075,5.075-4.075s5.075,1.88,5.075,4.075V41.434z M52.082,90.333H11.803V67.931h40.279V90.333z   M35.619,63.931H16.834l1.456-23.698h5.937c0.001,0,0.001,0,0.002,0v1.201c0,2.873,2.682,5.198,5.479,5.871  C29.515,47.776,35.619,63.931,35.619,63.931z M38.378,39.015v-3.273c0-2.724-2.413-4.957-5.048-5.755  c2.268-1.836,7.57-6.691,21.5-19.547l1.882,1.883c-2.559,1.326-4.315,3.994-4.315,7.069c0,1.22,0.284,2.372,0.776,3.406  c-0.174,0.101-0.339,0.219-0.477,0.372L38.378,39.015z M64.196,26.366c1.332-0.736,2.434-1.84,3.162-3.177l8.901,8.901  c-1.494,0.507-2.66,1.692-3.142,3.197L64.196,26.366z M88.197,70.25H86.2v-1.132c0-0.429-0.138-0.847-0.394-1.192l-3.893-5.244  c-0.381-0.514-0.965-0.776-1.625-0.808l-3.099,0.03c-0.634,0.006-1.228,0.313-1.6,0.826l-3.708,5.113  c-0.248,0.341-0.381,0.752-0.381,1.174v1.233h-1.998v-4.081l6.085-7.599h6.524l6.085,7.599V70.25z M32.781,36.529  c-0.089-0.155-0.254-0.25-0.433-0.25H30.26c-0.179,0-0.344,0.095-0.433,0.25l-1.044,1.809c-0.089,0.155-0.089,0.345,0,0.5  l1.044,1.808c0.089,0.155,0.254,0.25,0.433,0.25h2.088c0.179,0,0.344-0.095,0.433-0.25l1.044-1.808c0.089-0.155,0.089-0.345,0-0.5  L32.781,36.529z M61.838,17.333c-0.089-0.155-0.254-0.25-0.433-0.25h-2.088c-0.179,0-0.344,0.095-0.433,0.25l-1.044,1.808  c-0.089,0.155-0.089,0.345,0,0.5l1.044,1.809c0.089,0.155,0.254,0.25,0.433,0.25h2.088c0.179,0,0.344-0.095,0.433-0.25l1.044-1.809  c0.089-0.155,0.089-0.345,0-0.5L61.838,17.333z"/><text x="0" y="115" fill="#000000" font-size="5px" font-weight="bold" font-family="'Helvetica Neue', Helvetica, Arial-Unicode, Arial, Sans-serif">Created by H Alberto Gongora</text><text x="0" y="120" fill="#000000" font-size="5px" font-weight="bold" font-family="'Helvetica Neue', Helvetica, Arial-Unicode, Arial, Sans-serif">from the Noun Project</text></svg>