<svg xmlns:dc="http://purl.org/dc/elements/1.1/" xmlns:cc="http://creativecommons.org/ns#" xmlns:rdf="http://www.w3.org/1999/02/22-rdf-syntax-ns#" xmlns:svg="http://www.w3.org/2000/svg" xmlns="http://www.w3.org/2000/svg" xmlns:sodipodi="http://sodipodi.sourceforge.net/DTD/sodipodi-0.dtd" xmlns:inkscape="http://www.inkscape.org/namespaces/inkscape" viewBox="0 0 32 40.00000125" version="1.1" x="0px" y="0px"><g transform="translate(0,-1020.3622)"><path style="color:#000000;font-style:normal;font-variant:normal;font-weight:normal;font-stretch:normal;font-size:medium;line-height:normal;font-family:sans-serif;text-indent:0;text-align:start;text-decoration:none;text-decoration-line:none;text-decoration-style:solid;text-decoration-color:#000000;letter-spacing:normal;word-spacing:normal;text-transform:none;direction:ltr;block-progression:tb;writing-mode:lr-tb;baseline-shift:baseline;text-anchor:start;white-space:normal;clip-rule:nonzero;display:inline;overflow:visible;visibility:visible;opacity:1;isolation:auto;mix-blend-mode:normal;color-interpolation:sRGB;color-interpolation-filters:linearRGB;solid-color:#000000;solid-opacity:1;fill:#ffffff;fill-opacity:1;fill-rule:evenodd;stroke:none;stroke-width:0.99999994;stroke-linecap:butt;stroke-linejoin:round;stroke-miterlimit:4;stroke-dasharray:none;stroke-dashoffset:0;stroke-opacity:1;color-rendering:auto;image-rendering:auto;shape-rendering:auto;text-rendering:auto;enable-background:accumulate" d="M 2.5,2 C 2.2238691,2.0000276 2.0000276,2.2238691 2,2.5 l 0,18.5 1,0 0,-11 5,0 0,3.001953 -2,0 0,8 1,0 0,-7 6,0 L 13,16 l -4,0 0,1 4,0 0,2 1,0 0,-7 -1,0 0,1.001953 -4,0 L 9,10 11,10 11,9 3,9 3,3 6,3 6,7 7,7 7,3 l 6,0 0,2 -3,0 0,1 3,0 0,3 1,0 0,-3 2,0 0,-1 -2,0 0,-2 6,0 0,2 -1,0 0,1 4,0 0,-1 -2,0 0,-2 8,0 0,4 -3,0 -1,0 0,1 0,1 -4.033203,0 0,1 L 25,10 l 0,2.5 0,3.5 -3,0 0,-3 -1,0 0,4 1,0 3,0 1,0 0,-6 0,-2 0,-1 3,0 1,0 0,-1 0,-4.5 C 29.999972,2.2238691 29.776131,2.0000276 29.5,2 L 7,2 6,2 Z m 12.5,5 0,13 -1,0 -0.5,0 -5.5,0 0,2 -8.00541745,0 0,1 L 9,23 l 0,-2 4.5,0 0.5,0 2,0 0,-13 3,0 0,11 9,0 0,-9 3.996971,0 0,-1 L 27,9 27,18 20,18 20,7 Z M 17,8.9746094 17,23 l -2,0 0,-1 -1,0 0,1 0,1 0,5 -4,0 0,-2 -1,0 0,2 -6,0 0,-5 -1,0 0,5.5 c 2.76e-5,0.276131 0.2238691,0.499972 0.5,0.5 l 6.5,0 1,0 19.5,0 c 0.276131,-2.8e-5 0.499972,-0.223869 0.5,-0.5 l 0,-8.5 0,-1 0,-9 -1,0 0,9 -8,0 0,1 8,0 0,8 -8,0 0,-1.177734 -1,0 L 20,29 l -5,0 0,-5 2,0 0,1 0,1 1,0 0,-1 6,0 0,1 1,0 0,-1 1,0 0,-1 -8,0 0,-1 0,-14.0253906 z M 10.037109,22 l 0,2 -5.0390621,0 0,1 L 6,25 l 0,2 1,0 0,-2 3.037109,0 0.5,0 0.5,0 0,-3 z" transform="translate(0,1020.3622)"/></g><text x="0" y="47.000001" fill="#000000" font-size="5px" font-weight="bold" font-family="'Helvetica Neue', Helvetica, Arial-Unicode, Arial, Sans-serif">Created by Chameleon Design</text><text x="0" y="52.000001" fill="#000000" font-size="5px" font-weight="bold" font-family="'Helvetica Neue', Helvetica, Arial-Unicode, Arial, Sans-serif">from the Noun Project</text></svg>