<svg xmlns="http://www.w3.org/2000/svg" viewBox="0 0 60 75" x="0px" y="0px"><title>Robots - Outline - 049 - Bot</title><g data-name="Bot 33"><path d="M7.94,33.89A5.7,5.7,0,0,0,9,34a5,5,0,0,0,3.28-1.23A5,5,0,0,0,14,29a4.82,4.82,0,0,0-.12-1.06,5,5,0,0,0-3.38-3.71A5.12,5.12,0,0,0,9,24a5,5,0,0,0-1.06,9.89ZM9,26a3.13,3.13,0,0,1,.91.14,3,3,0,0,1,2,2.23A2.84,2.84,0,0,1,12,29a3,3,0,0,1-1,2.26,3.07,3.07,0,0,1-2.64.67A3,3,0,0,1,9,26Z"/><path d="M33.09,9.86h0A3,3,0,0,0,34,10a3,3,0,1,0-3-3,3,3,0,0,0,.06.63A3,3,0,0,0,33.09,9.86ZM34,6a1,1,0,0,1,0,2,1.06,1.06,0,0,1-.29,0,1,1,0,0,1-.19-.09l0,0a1.08,1.08,0,0,1-.16-.13l0,0a1.05,1.05,0,0,1-.1-.14l-.05-.07A.9.9,0,0,1,33,7.22,1,1,0,0,1,33,7,1,1,0,0,1,34,6Z"/><path d="M2.49,45.49A8.49,8.49,0,0,0,8.5,60h25a8.5,8.5,0,0,0,0-17H20.37l-4.84-7.82A9,9,0,0,0,18,29a8.88,8.88,0,0,0-.11-1.32l14.6-13.87A7,7,0,0,0,34,14a7.07,7.07,0,0,0,1.71-.24L43,19.93s0,0,0,.07a6,6,0,0,0,2,4.46V29a2,2,0,0,0,1.34,1.88,2,2,0,0,0,.06.67l.67,2.36a2,2,0,0,0,3.85,0l.67-2.36a2,2,0,0,0,.06-.67A2,2,0,0,0,53,29V24.46A6,6,0,0,0,49,14a6,6,0,0,0-1.06.1l-7.05-6A6.84,6.84,0,0,0,41,7,7,7,0,0,0,27,7a7.22,7.22,0,0,0,0,.83L11.14,20.28A9.07,9.07,0,0,0,9,20,9,9,0,0,0,6.65,37.69L9,43H8.5A8.44,8.44,0,0,0,2.49,45.49ZM40,51.5A6.51,6.51,0,0,1,33.5,58H8.5a6.5,6.5,0,0,1,0-13h25A6.51,6.51,0,0,1,40,51.5ZM50.15,25.88a5.91,5.91,0,0,0,.81-.21h0V29H47V25.66h0a5.91,5.91,0,0,0,.8.2l.14,0a6,6,0,0,0,2,0Zm-2.2-9.74H48v7.72l-.26-.06a3.8,3.8,0,0,1-1.14-.59A4,4,0,0,1,45,20a3.41,3.41,0,0,1,0-.41,3.92,3.92,0,0,1,.11-.6A4,4,0,0,1,47.95,16.14ZM49.67,31,49,33.36,48.33,31h1.35ZM53,20a4,4,0,0,1-1.6,3.2,3.82,3.82,0,0,1-1.4.65V16.14A4,4,0,0,1,53,20Zm-7.21-5.06a6,6,0,0,0-.55.41l-.18.13a6.08,6.08,0,0,0-1.18,1.39l0,0a6,6,0,0,0-.39.77v0l-5.68-4.81,0,0a7,7,0,0,0,.69-.51h0a7,7,0,0,0,.64-.62l.14-.17c.15-.17.29-.34.42-.52l.16-.25c.11-.17.21-.34.31-.52l0-.07,5.58,4.73ZM34,2a5,5,0,0,1,5,5,4.83,4.83,0,0,1-.17,1.27,4.78,4.78,0,0,1-.19.58,5,5,0,0,1-6.15,2.91A5,5,0,0,1,29.11,8,4.71,4.71,0,0,1,29,7,5,5,0,0,1,34,2ZM27.63,9.91l.07.13c.09.2.2.38.31.57s.11.2.18.3a7,7,0,0,0,.51.66l.1.12a7,7,0,0,0,.72.69l.22.16a7,7,0,0,0,.6.42l.09.06L17.29,25.49c-.08-.19-.17-.38-.27-.56l0-.09a9,9,0,0,0-.54-.89l-.13-.19a9,9,0,0,0-.65-.82l0,0a9,9,0,0,0-.73-.7l-.16-.14a9,9,0,0,0-.84-.62l-.13-.08-.43-.26ZM2,29a7,7,0,0,1,7-7,7.12,7.12,0,0,1,2.08.31,7,7,0,0,1,4.76,5.22A6.74,6.74,0,0,1,16,29a7,7,0,0,1-2.39,5.27,7.08,7.08,0,0,1-5.49,1.66l-.55-.07A7,7,0,0,1,2,29Zm7,9H9a8.93,8.93,0,0,0,1.23-.09l.15,0a9,9,0,0,0,1.16-.26l.18-.06a9,9,0,0,0,1-.4l.1,0a9.11,9.11,0,0,0,1-.57l.12-.07L18,43H11.2Z"/><path d="M7.19,47.2a4.11,4.11,0,0,0-.79.33A4.5,4.5,0,0,0,8.5,56h25a4.55,4.55,0,0,0,1.32-.2,4.08,4.08,0,0,0,.79-.33h0A4.5,4.5,0,0,0,33.5,47H8.5A4.55,4.55,0,0,0,7.19,47.2ZM6,51.5a2.5,2.5,0,0,1,1.33-2.21,2.16,2.16,0,0,1,.42-.18A2.6,2.6,0,0,1,8.5,49,2.5,2.5,0,1,1,6,51.5Zm30,0a2.5,2.5,0,0,1-1.33,2.21,2.19,2.19,0,0,1-.42.18,2.7,2.7,0,0,1-.57.1h-.11a2.45,2.45,0,0,1-.35,0,2.48,2.48,0,0,1-1.07-.37l-.06,0a2.52,2.52,0,0,1-.29-.24l-.1-.1a2.51,2.51,0,0,1-.21-.26l-.12-.18a2,2,0,0,1-.24-.53c0-.07,0-.14-.06-.21A2.53,2.53,0,0,1,31,51.5a2.5,2.5,0,0,1,5,0ZM29.76,49a4.49,4.49,0,0,0-.37.68l-.08.21a4.45,4.45,0,0,0-.18.57c0,.08,0,.15-.05.23a4.07,4.07,0,0,0,0,1.63c0,.08,0,.15.05.23a4.45,4.45,0,0,0,.18.57l.08.21a4.49,4.49,0,0,0,.37.68H12.24a4.49,4.49,0,0,0,.37-.68l.08-.21a4.45,4.45,0,0,0,.18-.57c0-.08,0-.15.05-.23a4.07,4.07,0,0,0,0-1.63c0-.08,0-.15-.05-.23a4.45,4.45,0,0,0-.18-.57l-.08-.21a4.49,4.49,0,0,0-.37-.68Z"/></g><text x="0" y="75" fill="#000000" font-size="5px" font-weight="bold" font-family="'Helvetica Neue', Helvetica, Arial-Unicode, Arial, Sans-serif">Created by Creaticca Creative Agency</text><text x="0" y="80" fill="#000000" font-size="5px" font-weight="bold" font-family="'Helvetica Neue', Helvetica, Arial-Unicode, Arial, Sans-serif">from the Noun Project</text></svg>