<?xml version="1.0" encoding="UTF-8" standalone="no"?>
<svg
   xmlns:dc="http://purl.org/dc/elements/1.1/"
   xmlns:cc="http://creativecommons.org/ns#"
   xmlns:rdf="http://www.w3.org/1999/02/22-rdf-syntax-ns#"
   xmlns:svg="http://www.w3.org/2000/svg"
   xmlns="http://www.w3.org/2000/svg"
   xmlns:sodipodi="http://sodipodi.sourceforge.net/DTD/sodipodi-0.dtd"
   xmlns:inkscape="http://www.inkscape.org/namespaces/inkscape"
   version="1.1"
   x="0px"
   y="0px"
   viewBox="0 0 90 90"
   enable-background="new 0 0 100 100"
   xml:space="preserve"
   id="svg5879"
   sodipodi:docname="nodes_tree.svg"
   width="90"
   height="90"
   inkscape:version="0.92.3 (unknown)"><metadata
     id="metadata5885"><rdf:RDF><cc:Work
         rdf:about=""><dc:format>image/svg+xml</dc:format><dc:type
           rdf:resource="http://purl.org/dc/dcmitype/StillImage" /><dc:title></dc:title></cc:Work></rdf:RDF></metadata><defs
     id="defs5883" /><sodipodi:namedview
     pagecolor="#ffffff"
     bordercolor="#666666"
     borderopacity="1"
     objecttolerance="10"
     gridtolerance="10"
     guidetolerance="10"
     inkscape:pageopacity="0"
     inkscape:pageshadow="2"
     inkscape:window-width="1855"
     inkscape:window-height="1056"
     id="namedview5881"
     showgrid="false"
     inkscape:zoom="7.312"
     inkscape:cx="60.694754"
     inkscape:cy="31.381595"
     inkscape:window-x="65"
     inkscape:window-y="24"
     inkscape:window-maximized="1"
     inkscape:current-layer="svg5879" /><path
     d="m 74.529798,55.954408 c -1.975,0 -3.409716,0.207096 -4.996716,1.147096 l -6.333238,-6.47 c 1.904,-1.927 2.535954,-4.229096 2.535954,-7.145096 0,-5.878 -4.782,-10.66 -10.66,-10.66 -2.061,0 -3.39977,0.355238 -5.03177,1.372238 l -6.65941,-6.65941 c 1.788,-1.907 2.50618,-4.027828 2.50618,-6.842828 0,-5.878 -4.782,-10.66 -10.66,-10.66 -5.878,0 -10.66,4.782 -10.66,10.66 0,2.731 0.509123,4.63677 2.203123,6.52477 l -6.563353,6.70841 c -1.588,-0.94 -2.85177,-1.10218 -4.82677,-1.10218 -5.8780002,0 -10.6600002,4.782 -10.6600002,10.66 0,5.878 4.782,10.66 10.6600002,10.66 5.878,0 10.66,-4.782 10.66,-10.66 0,-2.817 -0.628335,-5.102477 -2.419335,-7.010477 l 6.328239,-6.533381 c 1.634,1.019 3.008954,1.482239 5.072954,1.482239 1.978,0 2.874548,-0.01771 4.866954,-1.287858 l 6.922284,6.990665 c -1.698,1.889 -2.399096,3.624812 -2.399096,6.358812 0,2.817 0.558954,4.895335 2.349954,6.803335 l -6.743381,6.880142 c -1.588,-0.94 -2.816573,-1.215477 -4.791573,-1.215477 -5.878,0 -10.66,4.782 -10.66,10.66 0.120401,5.536109 3.751863,10.30638 10.72553,10.458338 6.03541,-0.127565 10.304389,-5.083479 10.304355,-10.410986 0,-3.349877 -0.269839,-4.740545 -2.060839,-6.648545 l 6.469858,-7.084284 c 1.588,0.941 3.091096,1.216477 5.067096,1.216477 1.874,0 2.950193,-0.01134 4.482193,-0.864335 l 6.59538,6.868904 c -1.791,1.908 -2.282573,3.645431 -2.282573,6.463431 0,5.878 4.782,10.66 10.66,10.66 5.878,0 10.66,-4.782 10.66,-10.66 0,-5.878 -4.784,-10.66 -10.662,-10.66 z m -59.147,-5.807 c -3.673,0 -6.6600002,-2.987 -6.6600002,-6.66 0,-3.673 2.9870002,-6.66 6.6600002,-6.66 3.673,0 6.66,2.987 6.66,6.66 0,3.673 -2.988,6.66 -6.66,6.66 z m 13.186,-29.45 c 0,-3.673 2.987,-6.66 6.66,-6.66 3.673,0 6.66,2.987 6.66,6.66 0,3.673 -2.987,6.66 -6.66,6.66 -3.673,0 -6.66,-2.987 -6.66,-6.66 z m 6.66,52.578 c -3.673,0 -6.66,-2.987 -6.66,-6.66 0,-3.673 2.987,-6.66 6.66,-6.66 3.673,0 6.66,2.987 6.66,6.66 0,3.673 -2.987,6.66 -6.66,6.66 z m 13.186,-29.788 c 0,-3.673 2.987,-6.66 6.66,-6.66 3.673,0 6.66,2.987 6.66,6.66 0,3.673 -2.987,6.66 -6.66,6.66 -3.673,0 -6.66,-2.987 -6.66,-6.66 z m 26.115,29.788 c -3.673,0 -6.66,-2.987 -6.66,-6.66 0,-3.673 2.987,-6.66 6.66,-6.66 3.673,0 6.66,2.987 6.66,6.66 0,3.673 -2.987,6.66 -6.66,6.66 z"
     id="path5873"
     inkscape:connector-curvature="0"
     style="fill:#ffffff;fill-opacity:1"
     sodipodi:nodetypes="sccssccsssccssssccsccsccscccccsccsssssssssssssssssssssssssssss" /></svg>