<?xml version="1.0" encoding="UTF-8" standalone="no"?>
<svg
   xmlns:dc="http://purl.org/dc/elements/1.1/"
   xmlns:cc="http://creativecommons.org/ns#"
   xmlns:rdf="http://www.w3.org/1999/02/22-rdf-syntax-ns#"
   xmlns:svg="http://www.w3.org/2000/svg"
   xmlns="http://www.w3.org/2000/svg"
   xmlns:sodipodi="http://sodipodi.sourceforge.net/DTD/sodipodi-0.dtd"
   xmlns:inkscape="http://www.inkscape.org/namespaces/inkscape"
   version="1.1"
   x="0px"
   y="0px"
   viewBox="0 0 100 100"
   xml:space="preserve"
   id="svg3814"
   sodipodi:docname="not_equal.svg"
   width="100"
   height="100"
   inkscape:version="0.92.3 (d244b95, 2018-08-02)"><metadata
     id="metadata3820"><rdf:RDF><cc:Work
         rdf:about=""><dc:format>image/svg+xml</dc:format><dc:type
           rdf:resource="http://purl.org/dc/dcmitype/StillImage" /><dc:title></dc:title></cc:Work></rdf:RDF></metadata><defs
     id="defs3818" /><sodipodi:namedview
     pagecolor="#ffffff"
     bordercolor="#666666"
     borderopacity="1"
     objecttolerance="10"
     gridtolerance="10"
     guidetolerance="10"
     inkscape:pageopacity="0"
     inkscape:pageshadow="2"
     inkscape:window-width="1855"
     inkscape:window-height="1056"
     id="namedview3816"
     showgrid="false"
     inkscape:zoom="2.5370991"
     inkscape:cx="-77.894733"
     inkscape:cy="18.156452"
     inkscape:window-x="1985"
     inkscape:window-y="24"
     inkscape:window-maximized="1"
     inkscape:current-layer="svg3814"
     inkscape:pagecheckerboard="true" /><path
     style="fill:#ffffff;stroke-width:0.13935339;fill-opacity:1"
     d="m 23.337718,92.564177 c -0.887946,-0.295064 -1.353233,-0.58568 -1.971212,-1.231205 -0.978531,-1.02215 -1.231761,-1.661283 -1.232917,-3.111791 -9.75e-4,-1.149579 0.03535,-1.318103 0.434846,-2.020624 0.239715,-0.421544 2.889172,-4.550361 5.887681,-9.175149 2.99851,-4.624787 5.451836,-8.465715 5.451836,-8.535396 0,-0.07513 -5.37897,-0.12669 -13.216315,-0.12669 H 5.475321 L 4.6209941,67.93641 C 1.1893483,66.221597 1.2727605,61.391505 4.7618418,59.780437 l 0.8779936,-0.40541 16.0907896,-0.06968 16.09079,-0.06968 6.380262,-9.824415 6.380264,-9.824407 L 27.971535,39.517168 5.3611286,39.447491 4.5723125,39.060119 C 3.6634683,38.613804 2.8807527,37.810448 2.4545485,36.88651 2.2207841,36.37975 2.1575322,35.974866 2.1579877,34.988182 c 5.055e-4,-1.095168 0.04874,-1.345831 0.3804467,-1.977066 0.496314,-0.944482 1.2464402,-1.668307 2.1956038,-2.118618 l 0.7664438,-0.363624 25.431997,-0.04035 25.431995,-0.04035 7.245885,-11.365703 C 68.56305,11.31381 71.047115,7.5408282 71.459346,7.1608472 c 1.59385,-1.4691604 3.89308,-1.607604 5.610386,-0.337818 0.732819,0.54185 1.452032,1.555054 1.686954,2.376526 0.209396,0.732213 0.2039,1.9604528 -0.01169,2.6131098 -0.09349,0.28301 -2.765065,4.547224 -5.936839,9.476031 l -5.766865,8.961468 13.26527,0.06968 13.265272,0.06968 0.787063,0.369002 c 1.60737,0.753592 2.495575,2.078381 2.595543,3.871342 0.102613,1.84042 -0.743371,3.370805 -2.357605,4.26491 l -0.746294,0.413364 -16.302674,0.06968 -16.302673,0.06968 -6.348859,9.894092 -6.34886,9.894091 22.442503,0.06968 22.442503,0.06968 0.772802,0.362474 c 1.011017,0.474206 1.663411,1.060897 2.127135,1.912908 1.251551,2.29951 0.386656,5.028107 -1.959975,6.183399 l -0.934019,0.459837 -25.424481,0.06968 -25.424481,0.06968 -7.256863,11.314197 c -3.991275,6.222808 -7.44308,11.508166 -7.670677,11.745241 -0.955406,0.995191 -3.016957,1.50614 -4.324202,1.07174 z"
     id="path3822"
     inkscape:connector-curvature="0" /></svg>