<?xml version="1.0" encoding="UTF-8" standalone="no"?>
<svg
   xmlns:dc="http://purl.org/dc/elements/1.1/"
   xmlns:cc="http://creativecommons.org/ns#"
   xmlns:rdf="http://www.w3.org/1999/02/22-rdf-syntax-ns#"
   xmlns:svg="http://www.w3.org/2000/svg"
   xmlns="http://www.w3.org/2000/svg"
   xmlns:sodipodi="http://sodipodi.sourceforge.net/DTD/sodipodi-0.dtd"
   xmlns:inkscape="http://www.inkscape.org/namespaces/inkscape"
   version="1.1"
   x="0px"
   y="0px"
   viewBox="0 0 100 100"
   xml:space="preserve"
   id="svg4667"
   sodipodi:docname="question_mark.svg"
   width="100"
   height="100"
   inkscape:version="0.92.3 (unknown)"><metadata
     id="metadata4673"><rdf:RDF><cc:Work
         rdf:about=""><dc:format>image/svg+xml</dc:format><dc:type
           rdf:resource="http://purl.org/dc/dcmitype/StillImage" /><dc:title></dc:title></cc:Work></rdf:RDF></metadata><defs
     id="defs4671" /><sodipodi:namedview
     pagecolor="#ffffff"
     bordercolor="#666666"
     borderopacity="1"
     objecttolerance="10"
     gridtolerance="10"
     guidetolerance="10"
     inkscape:pageopacity="0"
     inkscape:pageshadow="2"
     inkscape:window-width="1855"
     inkscape:window-height="1056"
     id="namedview4669"
     showgrid="false"
     inkscape:zoom="5.3400704"
     inkscape:cx="30.211715"
     inkscape:cy="39.239407"
     inkscape:window-x="65"
     inkscape:window-y="24"
     inkscape:window-maximized="1"
     inkscape:current-layer="svg4667" /><path
     style="fill:#ffffff;fill-opacity:1;stroke:#000000;stroke-width:0.18726344;stroke-opacity:1"
     d="M 49.010299,70.811744 C 47.133026,70.533862 45.340222,69.144333 44.492592,67.310258 44.14256,66.552865 44.0916,66.131345 44.115073,64.187515 c 0.08045,-6.662207 3.3948,-13.495364 8.561983,-17.65215 0.763786,-0.614434 2.382826,-1.733984 3.597866,-2.487892 3.293586,-2.0436 4.941839,-3.916976 5.992165,-6.810592 2.089624,-5.756849 -0.35476,-12.484727 -5.675873,-15.622168 -2.36025,-1.391653 -5.525652,-2.053207 -8.203746,-1.714542 -3.380794,0.427527 -5.441836,1.419305 -7.775009,3.741348 -2.470375,2.458592 -3.425951,4.591196 -3.723616,8.310166 -0.246418,3.07871 -1.204718,4.716176 -3.434366,5.868368 -0.813934,0.420609 -1.226755,0.506503 -2.474982,0.514958 -1.271574,0.0086 -1.658395,-0.06857 -2.55812,-0.510404 C 27.249819,37.24928 26.253068,36.25663 25.614892,35.029671 24.70177,33.274104 25.01243,28.665155 26.30406,24.805176 29.185657,16.19365 36.473958,9.9131835 45.492413,8.2702125 c 2.049106,-0.373304 6.993441,-0.332301 9.022768,0.07483 13.759383,2.7604255 22.56584,15.8273605 19.806338,29.3884555 -1.429623,7.025634 -5.643618,12.707325 -12.328777,16.622772 -2.16564,1.268399 -3.801879,2.957088 -4.760194,4.912789 -0.833953,1.701903 -1.186683,3.086531 -1.401599,5.501918 -0.193646,2.176322 -0.636357,3.290962 -1.749028,4.403633 -1.308202,1.308202 -3.19002,1.91566 -5.071622,1.637138 z"
     id="path822"
     inkscape:connector-curvature="0" /><path
     style="fill:#ffffff;fill-opacity:1;stroke:#000000;stroke-width:0.18726344;stroke-opacity:1"
     d="m 48.40973,90.665943 c -2.105446,-0.724061 -3.669621,-2.152318 -4.670439,-4.264606 -0.542657,-1.14531 -0.587671,-1.390929 -0.587671,-3.206582 0,-1.817865 0.04418,-2.058134 0.585336,-3.183479 1.085288,-2.256866 2.669859,-3.630698 5.006085,-4.340305 4.801597,-1.45844 9.74474,2.03039 10.00895,7.064234 0.126532,2.410756 -0.475802,4.084216 -2.112694,5.869683 -2.045587,2.231256 -5.337391,3.055672 -8.229567,2.061055 z"
     id="path824"
     inkscape:connector-curvature="0" /></svg>