<?xml version="1.0" encoding="UTF-8" standalone="no"?>
<svg
   xmlns:dc="http://purl.org/dc/elements/1.1/"
   xmlns:cc="http://creativecommons.org/ns#"
   xmlns:rdf="http://www.w3.org/1999/02/22-rdf-syntax-ns#"
   xmlns:svg="http://www.w3.org/2000/svg"
   xmlns="http://www.w3.org/2000/svg"
   xmlns:sodipodi="http://sodipodi.sourceforge.net/DTD/sodipodi-0.dtd"
   xmlns:inkscape="http://www.inkscape.org/namespaces/inkscape"
   viewBox="0 0 100 100"
   class="feather feather-repeat"
   x="0px"
   y="0px"
   version="1.1"
   id="svg6114"
   sodipodi:docname="repeat.svg"
   width="100"
   height="100"
   style="fill:none;stroke:currentColor;stroke-width:2;stroke-linecap:round;stroke-linejoin:round"
   inkscape:version="0.92.3 (d244b95, 2018-08-02)">
  <metadata
     id="metadata6120">
    <rdf:RDF>
      <cc:Work
         rdf:about="">
        <dc:format>image/svg+xml</dc:format>
        <dc:type
           rdf:resource="http://purl.org/dc/dcmitype/StillImage" />
        <dc:title></dc:title>
      </cc:Work>
    </rdf:RDF>
  </metadata>
  <defs
     id="defs6118" />
  <sodipodi:namedview
     pagecolor="#ffffff"
     bordercolor="#666666"
     borderopacity="1"
     objecttolerance="10"
     gridtolerance="10"
     guidetolerance="10"
     inkscape:pageopacity="0"
     inkscape:pageshadow="2"
     inkscape:window-width="1855"
     inkscape:window-height="1056"
     id="namedview6116"
     showgrid="false"
     inkscape:zoom="5.5625734"
     inkscape:cx="60.485036"
     inkscape:cy="60.957673"
     inkscape:window-x="1985"
     inkscape:window-y="24"
     inkscape:window-maximized="1"
     inkscape:current-layer="svg6114"
     inkscape:pagecheckerboard="true" />
  <path
     style="fill:#ffffff;fill-opacity:1;stroke:#000000;stroke-width:0.1;stroke-opacity:1;stroke-miterlimit:4;stroke-dasharray:none"
     d="M 25.858702,93.564775 C 25.334004,93.392154 20.415925,89.271096 14.929637,84.406875 6.1404571,76.614268 4.9545691,75.368962 4.9545691,73.931986 c 0,-1.435252 1.212979,-2.71452 10.1132469,-10.665934 8.761834,-7.827741 10.349524,-9.03508 11.881408,-9.03508 1.23395,0 2.123672,0.406042 2.944855,1.343945 2.157215,2.463841 1.652233,3.470433 -4.608554,9.186319 l -5.785249,5.281736 27.501439,-0.0048 27.501437,-0.0048 2.87895,-1.20438 c 3.299674,-1.380385 6.037002,-4.090554 6.976269,-6.907046 0.356406,-1.068743 0.648038,-4.280631 0.648038,-7.137505 0,-3.56119 0.261142,-5.648015 0.830616,-6.637365 1.41508,-2.458455 4.106952,-2.78781 6.345795,-0.776421 1.432503,1.286972 1.445353,1.372057 1.251616,8.288553 -0.185215,6.611502 -0.292896,7.172475 -1.99799,10.406023 -2.292906,4.348303 -6.018016,7.694963 -10.858032,9.754927 l -3.804289,1.619147 -28.902527,0.145467 -28.902531,0.145466 6.050855,5.516543 c 6.222265,5.672819 6.938384,6.872065 5.276847,8.836841 -0.95209,1.125847 -3.219046,1.882633 -4.438067,1.481567 z"
     id="path6745"
     inkscape:connector-curvature="0" />
  <path
     style="fill:#ffffff;fill-opacity:1;stroke:#000000;stroke-width:0.1;stroke-opacity:1;stroke-miterlimit:4;stroke-dasharray:none"
     d="M 6.7025184,50.95832 C 5.4635809,49.773509 5.4219152,49.443594 5.6235352,42.414735 5.8195589,35.580376 5.9408621,34.904686 7.4835314,32.054291 c 1.9245604,-3.556057 5.9178696,-7.343188 9.4568406,-8.968586 5.266334,-2.418749 6.502212,-2.506511 35.38666,-2.512933 l 27.217565,-0.006 -5.785244,-5.281739 c -4.862596,-4.439378 -5.785248,-5.53756 -5.785248,-6.8858646 0,-2.0972838 1.744931,-3.6443949 4.110384,-3.6443949 1.625985,0 3.009322,1.0498446 11.922615,9.0483275 8.617837,7.733368 10.083201,9.272256 10.083201,10.589158 0,1.316897 -1.465364,2.85579 -10.083201,10.589153 -8.913293,7.998482 -10.29663,9.048328 -11.922615,9.048328 -2.365453,0 -4.110384,-1.547112 -4.110384,-3.644391 0,-1.348309 0.922652,-2.44649 5.785248,-6.885873 l 5.785244,-5.281731 -27.501434,0.0048 -27.501439,0.0048 -2.861919,1.197289 c -5.722114,2.393864 -7.641337,5.718528 -7.641337,13.237084 0,2.912771 -0.282356,6.023627 -0.627464,6.913021 -1.093315,2.817666 -4.4786258,3.515708 -6.7084856,1.383271 z"
     id="path6747"
     inkscape:connector-curvature="0" />
  <path
     style="fill:#ffffff;fill-opacity:1;stroke:#000000;stroke-width:0.25423729;stroke-opacity:1"
     d=""
     id="path6749"
     inkscape:connector-curvature="0" />
</svg>
