<?xml version="1.0" encoding="UTF-8" standalone="no"?>
<svg
   xmlns:dc="http://purl.org/dc/elements/1.1/"
   xmlns:cc="http://creativecommons.org/ns#"
   xmlns:rdf="http://www.w3.org/1999/02/22-rdf-syntax-ns#"
   xmlns:svg="http://www.w3.org/2000/svg"
   xmlns="http://www.w3.org/2000/svg"
   xmlns:sodipodi="http://sodipodi.sourceforge.net/DTD/sodipodi-0.dtd"
   xmlns:inkscape="http://www.inkscape.org/namespaces/inkscape"
   viewBox="0 0 28 28"
   class="feather feather-repeat"
   x="0px"
   y="0px"
   version="1.1"
   id="svg6114"
   sodipodi:docname="repeat.svg"
   width="28"
   height="28"
   style="fill:none;stroke:currentColor;stroke-width:2;stroke-linecap:round;stroke-linejoin:round"
   inkscape:version="0.92.3 (unknown)">
  <metadata
     id="metadata6120">
    <rdf:RDF>
      <cc:Work
         rdf:about="">
        <dc:format>image/svg+xml</dc:format>
        <dc:type
           rdf:resource="http://purl.org/dc/dcmitype/StillImage" />
        <dc:title></dc:title>
      </cc:Work>
    </rdf:RDF>
  </metadata>
  <defs
     id="defs6118" />
  <sodipodi:namedview
     pagecolor="#ffffff"
     bordercolor="#666666"
     borderopacity="1"
     objecttolerance="10"
     gridtolerance="10"
     guidetolerance="10"
     inkscape:pageopacity="0"
     inkscape:pageshadow="2"
     inkscape:window-width="1855"
     inkscape:window-height="1056"
     id="namedview6116"
     showgrid="false"
     inkscape:zoom="7.8666667"
     inkscape:cx="-7.7669492"
     inkscape:cy="15"
     inkscape:window-x="65"
     inkscape:window-y="24"
     inkscape:window-maximized="1"
     inkscape:current-layer="svg6114" />
  <polyline
     points="17 1 21 5 17 9"
     id="polyline6102"
     transform="translate(1.6525424,2.7033899)"
     style="fill:#ffffff;fill-opacity:1" />
  <path
     d="m 4.6525423,13.703389 v -2 a 4,4 0 0 1 4,-3.9999991 H 22.652543"
     id="path6104"
     inkscape:connector-curvature="0"
     style="fill:none;fill-opacity:1;stroke:#000000;stroke-opacity:1" />
  <polyline
     points="7 23 3 19 7 15"
     id="polyline6106"
     transform="translate(1.6525424,2.7033899)"
     style="fill:#ffffff;fill-opacity:1" />
  <path
     d="m 22.652543,15.703389 v 2 a 4,4 0 0 1 -4,4 H 4.6525423"
     id="path6108"
     inkscape:connector-curvature="0"
     style="fill:#ffffff;fill-opacity:1" />
  <path
     style="fill:#ffffff;fill-opacity:1;stroke:#000000;stroke-width:0.25423729;stroke-opacity:1"
     d="M 8.4304668,26.590934 C 8.3129863,26.547912 7.211821,25.52086 5.9834329,24.308596 4.0155221,22.366517 3.75,22.056161 3.75,21.698037 c 0,-0.357695 0.2715878,-0.676515 2.2643714,-2.658172 1.9617878,-1.950835 2.3172739,-2.251729 2.6602651,-2.251729 0.2762835,0 0.4754935,0.101194 0.6593576,0.334939 0.483004,0.61404 0.3699375,0.864904 -1.0318624,2.289421 l -1.2953259,1.316318 6.1576142,-0.0012 6.157614,-0.0012 0.644601,-0.300156 c 0.738802,-0.344021 1.351694,-1.019451 1.561997,-1.721379 0.0798,-0.266353 0.145097,-1.066822 0.145097,-1.778814 0,-0.887523 0.05847,-1.407603 0.185976,-1.654169 0.316839,-0.612698 0.919553,-0.69478 1.420833,-0.1935 0.32074,0.32074 0.323617,0.341944 0.280239,2.065678 -0.04147,1.647724 -0.06558,1.78753 -0.447353,2.593397 -0.513385,1.083687 -1.347443,1.917744 -2.43113,2.43113 l -0.851786,0.403525 -6.47132,0.03625 -6.4713205,0.03625 1.3547951,1.374836 c 1.3931751,1.413784 1.5535154,1.712661 1.1814944,2.202324 -0.213174,0.280585 -0.7207493,0.469191 -0.9936902,0.369237 z"
     id="path6745"
     inkscape:connector-curvature="0" />
  <path
     style="fill:#ffffff;fill-opacity:1;stroke:#000000;stroke-width:0.25423729;stroke-opacity:1"
     d="M 4.0142498,14.31998 C 3.7368502,14.024701 3.7275211,13.942479 3.7726634,12.190742 3.8165566,10.487478 3.843717,10.319082 4.1891196,9.6087043 4.620032,8.7224614 5.5141394,7.7786295 6.3065206,7.3735472 7.4856608,6.7707453 7.7623763,6.7488727 14.229648,6.7472715 L 20.323702,6.7457615 19.028377,5.429444 C 17.939634,4.3230589 17.733051,4.0493688 17.733051,3.7133436 c 0,-0.5226868 0.390693,-0.9082589 0.920321,-0.9082589 0.364061,0 0.673792,0.2616433 2.669492,2.2550315 1.929547,1.9273143 2.257644,2.3108379 2.257644,2.6390363 0,0.3281985 -0.328097,0.7117221 -2.257644,2.6390365 -1.9957,1.993388 -2.305431,2.255031 -2.669492,2.255031 -0.529628,0 -0.920321,-0.385572 -0.920321,-0.908258 0,-0.336026 0.206583,-0.609716 1.295326,-1.7161021 l 1.295325,-1.3163175 -6.157613,0.00124 -6.1576144,0.00124 -0.6407879,0.2983898 c -1.2811898,0.5965997 -1.710907,1.4251758 -1.710907,3.2989558 0,0.725923 -0.06322,1.501213 -0.1404895,1.722868 -0.2447956,0.702221 -1.0027714,0.876187 -1.5020404,0.34474 z"
     id="path6747"
     inkscape:connector-curvature="0" />
  <path
     style="fill:#ffffff;fill-opacity:1;stroke:#000000;stroke-width:0.25423729;stroke-opacity:1"
     d=""
     id="path6749"
     inkscape:connector-curvature="0" />
</svg>
