<?xml version="1.0" encoding="UTF-8" standalone="no"?>
<svg
   xmlns:dc="http://purl.org/dc/elements/1.1/"
   xmlns:cc="http://creativecommons.org/ns#"
   xmlns:rdf="http://www.w3.org/1999/02/22-rdf-syntax-ns#"
   xmlns:svg="http://www.w3.org/2000/svg"
   xmlns="http://www.w3.org/2000/svg"
   xmlns:sodipodi="http://sodipodi.sourceforge.net/DTD/sodipodi-0.dtd"
   xmlns:inkscape="http://www.inkscape.org/namespaces/inkscape"
   viewBox="0 0 28 28"
   class="feather feather-repeat"
   x="0px"
   y="0px"
   version="1.1"
   id="svg6114"
   sodipodi:docname="repeat.svg"
   width="28"
   height="28"
   style="fill:none;stroke:currentColor;stroke-width:2;stroke-linecap:round;stroke-linejoin:round"
   inkscape:version="0.92.3 (unknown)">
  <metadata
     id="metadata6120">
    <rdf:RDF>
      <cc:Work
         rdf:about="">
        <dc:format>image/svg+xml</dc:format>
        <dc:type
           rdf:resource="http://purl.org/dc/dcmitype/StillImage" />
        <dc:title />
      </cc:Work>
    </rdf:RDF>
  </metadata>
  <defs
     id="defs6118" />
  <sodipodi:namedview
     pagecolor="#ffffff"
     bordercolor="#666666"
     borderopacity="1"
     objecttolerance="10"
     gridtolerance="10"
     guidetolerance="10"
     inkscape:pageopacity="0"
     inkscape:pageshadow="2"
     inkscape:window-width="1855"
     inkscape:window-height="1056"
     id="namedview6116"
     showgrid="false"
     inkscape:zoom="7.8666667"
     inkscape:cx="-26.898305"
     inkscape:cy="15"
     inkscape:window-x="65"
     inkscape:window-y="24"
     inkscape:window-maximized="1"
     inkscape:current-layer="svg6114" />
  <path
     style="fill:#ffffff;fill-opacity:1;stroke:#000000;stroke-width:0.25423729;stroke-opacity:1"
     d="M 8.6847041,24.938391 C 8.5672236,24.895369 7.4660583,23.868317 6.2376702,22.656053 4.2697594,20.713974 4.0042373,20.403618 4.0042373,20.045494 c 0,-0.357695 0.2715878,-0.676515 2.2643714,-2.658172 1.9617878,-1.950835 2.3172739,-2.251729 2.6602651,-2.251729 0.2762835,0 0.4754935,0.101194 0.6593576,0.334939 0.4830036,0.61404 0.3699375,0.864904 -1.0318624,2.289421 l -1.2953259,1.316318 6.1576139,-0.0012 6.157614,-0.0012 0.644601,-0.300156 c 0.738802,-0.344021 1.351694,-1.019451 1.561997,-1.721379 0.0798,-0.266353 0.145097,-1.066822 0.145097,-1.778814 0,-0.887523 0.05847,-1.407603 0.185976,-1.654169 0.316839,-0.612698 0.919553,-0.69478 1.420833,-0.1935 0.32074,0.32074 0.323617,0.341944 0.280239,2.065678 -0.04147,1.647724 -0.06558,1.78753 -0.447353,2.593397 -0.513385,1.083687 -1.347443,1.917744 -2.43113,2.43113 l -0.851786,0.403525 -6.47132,0.03625 -6.4713202,0.03625 1.3547951,1.374836 c 1.3931751,1.413784 1.5535151,1.712661 1.1814944,2.202324 -0.213174,0.280585 -0.7207493,0.469191 -0.9936902,0.369237 z"
     id="path6745"
     inkscape:connector-curvature="0" />
  <path
     style="fill:#ffffff;fill-opacity:1;stroke:#000000;stroke-width:0.25423729;stroke-opacity:1"
     d="m 4.3956058,14.31998 c -0.2774,-0.295279 -0.286729,-0.377501 -0.241586,-2.129238 0.04389,-1.703264 0.07105,-1.87166 0.416456,-2.5820382 0.430912,-0.886242 1.32502,-1.830074 2.117401,-2.235157 1.17914,-0.602802 1.455855,-0.624674 7.9231272,-0.626275 l 6.094054,-0.0015 -1.295325,-1.316318 C 18.32099,4.3230689 18.114407,4.0493788 18.114407,3.7133536 c 0,-0.5226868 0.390693,-0.9082589 0.920321,-0.9082589 0.364061,0 0.673792,0.2616433 2.669492,2.2550315 1.929547,1.9273146 2.257644,2.3108376 2.257644,2.6390366 0,0.328198 -0.328097,0.711722 -2.257644,2.6390362 -1.9957,1.993388 -2.305431,2.255031 -2.669492,2.255031 -0.529628,0 -0.920321,-0.385572 -0.920321,-0.908258 0,-0.336026 0.206583,-0.609716 1.295326,-1.7161022 l 1.295325,-1.316317 -6.157613,0.0012 -6.1576142,0.0012 -0.640788,0.298389 c -1.28119,0.5966 -1.710907,1.4251762 -1.710907,3.2989562 0,0.725923 -0.06322,1.501213 -0.14049,1.722868 -0.244795,0.702221 -1.002771,0.876187 -1.50204,0.34474 z"
     id="path6747"
     inkscape:connector-curvature="0" />
  <path
     style="fill:#ffffff;fill-opacity:1;stroke:#000000;stroke-width:0.25423729;stroke-opacity:1"
     d=""
     id="path6749"
     inkscape:connector-curvature="0" />
</svg>
