<?xml version="1.0" encoding="UTF-8" standalone="no"?>
<svg
   xmlns:dc="http://purl.org/dc/elements/1.1/"
   xmlns:cc="http://creativecommons.org/ns#"
   xmlns:rdf="http://www.w3.org/1999/02/22-rdf-syntax-ns#"
   xmlns:svg="http://www.w3.org/2000/svg"
   xmlns="http://www.w3.org/2000/svg"
   xmlns:sodipodi="http://sodipodi.sourceforge.net/DTD/sodipodi-0.dtd"
   xmlns:inkscape="http://www.inkscape.org/namespaces/inkscape"
   version="1.1"
   x="0px"
   y="0px"
   viewBox="0 0 80 80"
   enable-background="new 0 0 100 100"
   xml:space="preserve"
   id="svg879"
   sodipodi:docname="retry.svg"
   width="80"
   height="80"
   inkscape:version="0.92.3 (unknown)"><metadata
     id="metadata885"><rdf:RDF><cc:Work
         rdf:about=""><dc:format>image/svg+xml</dc:format><dc:type
           rdf:resource="http://purl.org/dc/dcmitype/StillImage" /><dc:title></dc:title></cc:Work></rdf:RDF></metadata><defs
     id="defs883" /><sodipodi:namedview
     pagecolor="#ffffff"
     bordercolor="#666666"
     borderopacity="1"
     objecttolerance="10"
     gridtolerance="10"
     guidetolerance="10"
     inkscape:pageopacity="0"
     inkscape:pageshadow="2"
     inkscape:window-width="1855"
     inkscape:window-height="1056"
     id="namedview881"
     showgrid="false"
     inkscape:zoom="7.312"
     inkscape:cx="50"
     inkscape:cy="62.5"
     inkscape:window-x="65"
     inkscape:window-y="24"
     inkscape:window-maximized="1"
     inkscape:current-layer="svg879" /><path
     style="fill:#ffffff;fill-opacity:1;stroke:#000000;stroke-width:0.13676149;stroke-opacity:1"
     d="M 37.226477,75.449623 C 34.021009,75.280539 30.761956,74.595862 27.448031,73.395321 25.774892,72.78919 22.397232,71.062463 20.815099,70.004435 11.35095,63.675423 5.7713347,53.322069 5.7713347,42.089716 c 0,-4.330628 0.7740821,-8.306733 2.4228932,-12.445296 C 12.737127,18.241618 23.482897,10.105686 35.65858,8.8503701 c 2.356525,-0.242958 6.938735,-0.104195 9.072221,0.274735 7.123697,1.2652439 13.268394,4.4711809 18.369798,9.5842679 l 1.598958,1.60262 0.0453,-4.736139 c 0.0509,-5.321666 0.03821,-5.247751 1.098505,-6.3980349 0.784992,-0.8516145 1.467782,-1.1713722 2.668723,-1.2497911 0.909005,-0.059356 1.067999,-0.027885 1.880917,0.3723137 0.619208,0.3048354 1.03365,0.6279314 1.369259,1.0674654 0.912776,1.1954259 0.896796,0.9771909 0.854833,11.6737729 l -0.03777,9.628551 -0.309973,0.629084 c -0.373967,0.758957 -1.135472,1.548998 -1.878211,1.948594 -0.543455,0.292381 -0.61161,0.294561 -10.38219,0.332019 -11.09621,0.04254 -10.61314,0.08344 -11.818908,-1.00065 -2.086008,-1.875499 -1.564915,-5.219605 1.003067,-6.437187 0.675292,-0.320183 0.738738,-0.324237 5.094366,-0.325556 2.440627,-6.84e-4 4.410558,-0.05498 4.410558,-0.12145 0,-0.229746 -1.854021,-2.123311 -3.077134,-3.142764 -5.179503,-4.317068 -11.88849,-6.481301 -18.370628,-5.926128 -3.636918,0.31149 -6.193516,1.00867 -9.391954,2.561171 -11.515662,5.589626 -17.05186,18.780151 -12.988312,30.945898 3.088541,9.246697 11.192567,15.911466 20.893293,17.182691 7.738965,1.014147 15.482232,-1.515526 21.055491,-6.878691 1.594993,-1.534866 2.546787,-2.708037 3.973349,-4.897501 0.888503,-1.36366 1.309029,-1.879497 1.794233,-2.200882 2.224729,-1.4736 5.118812,-0.475096 5.948545,2.052341 0.257745,0.785112 0.204309,2.051354 -0.117243,2.778277 -0.334922,0.757148 -1.781261,2.984599 -2.920335,4.497499 -1.150038,1.527459 -4.544852,4.872669 -6.17353,6.083323 -1.719551,1.278204 -4.149172,2.754918 -5.822712,3.539022 -3.782414,1.772176 -8.17731,2.927484 -11.811428,3.10493 -0.837549,0.0409 -1.768988,0.09202 -2.069863,0.113597 -0.300875,0.02158 -1.377872,-0.0046 -2.393326,-0.05815 z"
     id="path887"
     inkscape:connector-curvature="0" /></svg>