<svg xmlns="http://www.w3.org/2000/svg" xmlns:xlink="http://www.w3.org/1999/xlink" version="1.1" x="0px" y="0px" viewBox="0 0 100 125" enable-background="new 0 0 100 100" xml:space="preserve"><path d="M79.5,17.1c-2.2,0-4,1.8-4,4v8.5C69.2,22.3,59.9,17.9,50,17.9c-18.5,0-33.5,15-33.5,33.5s15,33.5,33.5,33.5  c12,0,23.2-6.5,29.1-17c1.1-1.9,0.4-4.4-1.5-5.5c-1.9-1.1-4.4-0.4-5.5,1.5c-4.5,8-13,12.9-22.2,12.9c-14.1,0-25.5-11.4-25.5-25.5  S35.9,25.9,50,25.9c7.6,0,14.7,3.4,19.5,9.1h-7.9c-2.2,0-4,1.8-4,4s1.8,4,4,4h17.9c2.2,0,4-1.8,4-4V21.1  C83.5,18.9,81.7,17.1,79.5,17.1z"/><text x="0" y="115" fill="#000000" font-size="5px" font-weight="bold" font-family="'Helvetica Neue', Helvetica, Arial-Unicode, Arial, Sans-serif">Created by Kid A</text><text x="0" y="120" fill="#000000" font-size="5px" font-weight="bold" font-family="'Helvetica Neue', Helvetica, Arial-Unicode, Arial, Sans-serif">from the Noun Project</text></svg>