<svg xmlns="http://www.w3.org/2000/svg" xmlns:xlink="http://www.w3.org/1999/xlink" version="1.1" x="0px" y="0px" viewBox="0 0 100 125" enable-background="new 0 0 100 100" xml:space="preserve"><g display="none"><rect x="-574.249" y="-157.244" display="inline" fill="#000000" width="1345.273" height="1337.592"/></g><g><g><path d="M10.606,62.016v7.865c0,3.313,2.696,6.009,6.009,6.009h8.497V94.69h49.775V75.891h8.497c3.313,0,6.009-2.696,6.009-6.009    V62.65c0-0.176-0.036-0.342-0.091-0.499c3.242-0.655,5.692-3.527,5.692-6.962c0-2.398-1.203-4.615-3.217-5.931    c-0.693-0.453-1.623-0.257-2.076,0.436c-0.166,0.253-0.243,0.538-0.242,0.82c0,0.489,0.238,0.969,0.678,1.256    c1.163,0.76,1.857,2.038,1.857,3.419c0,2.262-1.838,4.103-4.098,4.103c-2.262,0-4.103-1.841-4.103-4.103    c0-1.381,0.694-2.66,1.857-3.419c0.44-0.287,0.678-0.767,0.678-1.256c0-0.282-0.077-0.566-0.242-0.82    c-0.454-0.695-1.383-0.89-2.076-0.436c-2.015,1.315-3.217,3.532-3.217,5.931c0,3.433,2.449,6.305,5.692,6.961    c-0.056,0.157-0.092,0.323-0.092,0.499v1.199v6.033c0,1.659-1.35,3.009-3.009,3.009h-8.307h-0.19v-6.12H53.719v-3.682h21.169    V35.171H51.157v-6.846h-2.313v6.846H25.112v27.918h21.169v3.682H25.112v6.12h-0.027h-8.47c-1.659,0-3.009-1.35-3.009-3.009v-7.034    v-0.833c3.197-0.692,5.6-3.539,5.6-6.94c0-2.398-1.203-4.616-3.217-5.931c-0.693-0.453-1.623-0.258-2.076,0.436    c-0.166,0.253-0.243,0.538-0.242,0.82c0,0.489,0.238,0.969,0.678,1.256c1.163,0.759,1.857,2.038,1.857,3.419    c0,2.263-1.841,4.104-4.103,4.104c-2.259,0-4.098-1.841-4.098-4.104c0-1.381,0.694-2.659,1.857-3.419    c0.44-0.288,0.677-0.767,0.678-1.256c0-0.282-0.077-0.567-0.242-0.82c-0.453-0.694-1.384-0.888-2.076-0.436    c-2.014,1.315-3.217,3.533-3.217,5.931C5.005,58.478,7.409,61.326,10.606,62.016z M27.426,60.776V37.484h45.148v23.292H27.426z     M51.405,63.089v3.682h-2.81v-3.682H51.405z M27.426,69.085h45.148v23.292H27.426V69.085z"/><path d="M42.194,41.416c-3.393,0-6.153,2.76-6.153,6.153s2.76,6.153,6.153,6.153s6.153-2.76,6.153-6.153    S45.586,41.416,42.194,41.416z M42.194,51.408c-2.117,0-3.839-1.723-3.839-3.839s1.723-3.839,3.839-3.839s3.839,1.723,3.839,3.839    S44.311,51.408,42.194,51.408z"/><path d="M57.806,41.416c-3.393,0-6.153,2.76-6.153,6.153s2.76,6.153,6.153,6.153s6.153-2.76,6.153-6.153    S61.199,41.416,57.806,41.416z M57.806,51.408c-2.117,0-3.839-1.723-3.839-3.839s1.723-3.839,3.839-3.839s3.839,1.723,3.839,3.839    S59.923,51.408,57.806,51.408z"/><rect x="47.19" y="55.155" width="5.62" height="2.313"/><path d="M44.082,22.353c0,3.263,2.655,5.918,5.918,5.918s5.918-2.655,5.918-5.918c0-3.263-2.655-5.918-5.918-5.918    S44.082,19.09,44.082,22.353z M50,18.749c1.991,0,3.604,1.614,3.604,3.604S51.991,25.958,50,25.958s-3.604-1.614-3.604-3.604    S48.009,18.749,50,18.749z"/><path d="M62.75,15.477l3.105-5.378l-2.593-1.498l-3.105,5.378C61.054,14.426,61.92,14.926,62.75,15.477z"/><path d="M37.25,15.477c0.829-0.552,1.696-1.051,2.593-1.498l-3.105-5.378l-2.593,1.498L37.25,15.477z"/><path d="M51.497,5.31h-2.994v6.214c0.496-0.031,0.994-0.051,1.497-0.051c0.503,0,1.002,0.021,1.497,0.051V5.31z"/><path d="M32.407,85.961h20.918V75.5H32.407V85.961z M34.721,77.814h16.292v5.833H34.721V77.814z"/><path d="M63.285,76.423c-2.375,0-4.308,1.933-4.308,4.308s1.933,4.308,4.308,4.308s4.308-1.932,4.308-4.308    S65.661,76.423,63.285,76.423z M63.285,82.725c-1.1,0-1.995-0.895-1.995-1.994s0.895-1.995,1.995-1.995s1.994,0.895,1.994,1.995    S64.385,82.725,63.285,82.725z"/></g></g><text x="0" y="115" fill="#000000" font-size="5px" font-weight="bold" font-family="'Helvetica Neue', Helvetica, Arial-Unicode, Arial, Sans-serif">Created by Oksana Latysheva</text><text x="0" y="120" fill="#000000" font-size="5px" font-weight="bold" font-family="'Helvetica Neue', Helvetica, Arial-Unicode, Arial, Sans-serif">from the Noun Project</text></svg>