<svg xmlns="http://www.w3.org/2000/svg" data-name="Layer 1" viewBox="0 0 100 125" x="0px" y="0px"><title>17</title><g data-name="Group"><path data-name="Compound Path" d="M35.4,57.3A7.4,7.4,0,1,0,28,64.7,7.4,7.4,0,0,0,35.4,57.3ZM28,60.7a3.4,3.4,0,1,1,3.4-3.4A3.4,3.4,0,0,1,28,60.7Z"/><path data-name="Compound Path" d="M48.6,50A7.4,7.4,0,1,0,56,57.3,7.3,7.3,0,0,0,48.6,50Zm0,10.7A3.4,3.4,0,1,1,52,57.3,3.4,3.4,0,0,1,48.6,60.7Z"/><path data-name="Compound Path" d="M70.6,39.1H94.7V7.7H50.6V37.5H40.3V18.9h-4V37.5H11v13H5.3V71.2H11V92.3H65.6V71.2h5.8V50.5H65.6V43.6Zm-16-27.4H90.7V35.1H69.1L61.3,42V35.1H54.6ZM67.4,54.5V67.2H61.6V88.3H15V67.2H9.3V54.5H15v-13H57.3v9.4l4.3-3.8v7.4Z"/><path data-name="Compound Path" d="M28.2,83H48.5V70.2H28.2Zm4-8.8H44.5V79H32.2Z"/></g><text x="0" y="115" fill="#000000" font-size="5px" font-weight="bold" font-family="'Helvetica Neue', Helvetica, Arial-Unicode, Arial, Sans-serif">Created by Jugalbandi</text><text x="0" y="120" fill="#000000" font-size="5px" font-weight="bold" font-family="'Helvetica Neue', Helvetica, Arial-Unicode, Arial, Sans-serif">from the Noun Project</text></svg>