<?xml version="1.0" encoding="iso-8859-1"?>
<!-- Generator: Adobe Illustrator 19.0.0, SVG Export Plug-In . SVG Version: 6.00 Build 0)  -->
<svg version="1.1" id="Layer_1" xmlns="http://www.w3.org/2000/svg" xmlns:xlink="http://www.w3.org/1999/xlink" x="0px" y="0px"
	 viewBox="0 0 512 512" style="enable-background:new 0 0 512 512;" xml:space="preserve">
<g>
	<g>
		<g>
			<path d="M508.704,112.448L399.552,3.296C397.443,1.186,394.58,0,391.596,0H36.571C16.406,0,0,16.406,0,36.571v438.857
				C0,495.594,16.406,512,36.571,512h438.857C495.594,512,512,495.594,512,475.429V120.404
				C512,117.42,510.814,114.557,508.704,112.448z M308.888,22.505h33.841v123.78h-33.841V22.505z M106.422,22.505h179.961v123.78
				H106.422V22.505z M411.851,489.495H100.149v-24.193h311.701V489.495z M411.851,442.796H100.149v-24.193h311.701V442.796z
				 M411.851,349.398h-58.796c-6.215,0-11.253,5.038-11.253,11.253s5.038,11.253,11.253,11.253h58.796v24.193H100.149v-24.193
				h164.29c6.215,0,11.253-5.038,11.253-11.253s-5.038-11.253-11.253-11.253h-164.29V326.33h311.701V349.398z M411.851,303.824
				H100.149v-36.571h311.701V303.824z M489.495,475.429c0,7.757-6.309,14.066-14.066,14.066h-41.073V256
				c0-6.215-5.038-11.253-11.253-11.253H88.897c-6.215,0-11.253,5.038-11.253,11.253v233.495H36.571
				c-7.756,0-14.066-6.309-14.066-14.066V36.571c0-7.756,6.309-14.066,14.066-14.066h47.345v135.033
				c0,6.215,5.038,11.253,11.253,11.253h258.813c6.215,0,11.253-5.038,11.253-11.253V22.505h21.7l102.56,102.56V475.429z"/>
			<path d="M307.2,371.903h1.125c6.215,0,11.253-5.038,11.253-11.253s-5.038-11.253-11.253-11.253H307.2
				c-6.215,0-11.253,5.038-11.253,11.253S300.985,371.903,307.2,371.903z"/>
		</g>
	</g>
</g>
<g>
</g>
<g>
</g>
<g>
</g>
<g>
</g>
<g>
</g>
<g>
</g>
<g>
</g>
<g>
</g>
<g>
</g>
<g>
</g>
<g>
</g>
<g>
</g>
<g>
</g>
<g>
</g>
<g>
</g>
</svg>
