<?xml version="1.0" encoding="UTF-8" standalone="no"?>
<!-- Generator: Adobe Illustrator 19.0.0, SVG Export Plug-In . SVG Version: 6.00 Build 0)  -->

<svg
   xmlns:dc="http://purl.org/dc/elements/1.1/"
   xmlns:cc="http://creativecommons.org/ns#"
   xmlns:rdf="http://www.w3.org/1999/02/22-rdf-syntax-ns#"
   xmlns:svg="http://www.w3.org/2000/svg"
   xmlns="http://www.w3.org/2000/svg"
   xmlns:xlink="http://www.w3.org/1999/xlink"
   xmlns:sodipodi="http://sodipodi.sourceforge.net/DTD/sodipodi-0.dtd"
   xmlns:inkscape="http://www.inkscape.org/namespaces/inkscape"
   version="1.1"
   id="Layer_1"
   x="0px"
   y="0px"
   viewBox="0 0 70 70"
   xml:space="preserve"
   sodipodi:docname="sequence_star.svg"
   inkscape:version="0.92.3 (d244b95, 2018-08-02)"
   width="70"
   height="70"><metadata
   id="metadata2932"><rdf:RDF><cc:Work
       rdf:about=""><dc:format>image/svg+xml</dc:format><dc:type
         rdf:resource="http://purl.org/dc/dcmitype/StillImage" /><dc:title></dc:title></cc:Work></rdf:RDF></metadata><defs
   id="defs2930"><linearGradient
     inkscape:collect="always"
     id="linearGradient3484"><stop
       style="stop-color:#000000;stop-opacity:1;"
       offset="0"
       id="stop3480" /><stop
       style="stop-color:#000000;stop-opacity:0;"
       offset="1"
       id="stop3482" /></linearGradient><linearGradient
     inkscape:collect="always"
     xlink:href="#linearGradient3484"
     id="linearGradient3486"
     x1="-0.050000001"
     y1="246.002"
     x2="492.05411"
     y2="246.002"
     gradientUnits="userSpaceOnUse" /></defs><sodipodi:namedview
   pagecolor="#ffffff"
   bordercolor="#666666"
   borderopacity="1"
   objecttolerance="10"
   gridtolerance="10"
   guidetolerance="10"
   inkscape:pageopacity="0"
   inkscape:pageshadow="2"
   inkscape:window-width="928"
   inkscape:window-height="1028"
   id="namedview2928"
   showgrid="false"
   inkscape:pagecheckerboard="true"
   inkscape:zoom="2.8284271"
   inkscape:cx="22.869299"
   inkscape:cy="-21.570515"
   inkscape:window-x="1985"
   inkscape:window-y="24"
   inkscape:window-maximized="0"
   inkscape:current-layer="Layer_1" />
<g
   id="g2895"
   style="fill:#ffffff;fill-opacity:1;stroke:#000000;stroke-width:0.81949896;stroke-miterlimit:4;stroke-dasharray:none;stroke-opacity:1"
   transform="matrix(0.12192725,0,0,0.10971877,8.6237724,17.597952)">
	<g
   id="g2893"
   style="fill:#ffffff;fill-opacity:1;stroke:#000000;stroke-width:0.81949896;stroke-miterlimit:4;stroke-dasharray:none;stroke-opacity:1">
		<path
   d="M 484.14,226.886 306.46,49.202 c -5.072,-5.072 -11.832,-7.856 -19.04,-7.856 -7.216,0 -13.972,2.788 -19.044,7.856 l -16.132,16.136 c -5.068,5.064 -7.86,11.828 -7.86,19.04 0,7.208 2.792,14.2 7.86,19.264 L 355.9,207.526 H 26.58 C 11.732,207.526 0,219.15 0,234.002 v 22.812 c 0,14.852 11.732,27.648 26.58,27.648 H 357.076 L 252.248,388.926 c -5.068,5.072 -7.86,11.652 -7.86,18.864 0,7.204 2.792,13.88 7.86,18.948 l 16.132,16.084 c 5.072,5.072 11.828,7.836 19.044,7.836 7.208,0 13.968,-2.8 19.04,-7.872 l 177.68,-177.68 c 5.084,-5.088 7.88,-11.88 7.86,-19.1 0.016,-7.244 -2.776,-14.04 -7.864,-19.12 z"
   id="path2891"
   style="fill:#ffffff;fill-opacity:1;stroke:#000000;stroke-width:0.81949896;stroke-miterlimit:4;stroke-dasharray:none;stroke-opacity:1"
   inkscape:connector-curvature="0" />
	</g>
</g>
<g
   id="g2897"
   transform="translate(0,-422.004)">
</g>
<g
   id="g2899"
   transform="translate(0,-422.004)">
</g>
<g
   id="g2901"
   transform="translate(0,-422.004)">
</g>
<g
   id="g2903"
   transform="translate(0,-422.004)">
</g>
<g
   id="g2905"
   transform="translate(0,-422.004)">
</g>
<g
   id="g2907"
   transform="translate(0,-422.004)">
</g>
<g
   id="g2909"
   transform="translate(0,-422.004)">
</g>
<g
   id="g2911"
   transform="translate(0,-422.004)">
</g>
<g
   id="g2913"
   transform="translate(0,-422.004)">
</g>
<g
   id="g2915"
   transform="translate(0,-422.004)">
</g>
<g
   id="g2917"
   transform="translate(0,-422.004)">
</g>
<g
   id="g2919"
   transform="translate(0,-422.004)">
</g>
<g
   id="g2921"
   transform="translate(0,-422.004)">
</g>
<g
   id="g2923"
   transform="translate(0,-422.004)">
</g>
<g
   id="g2925"
   transform="translate(0,-422.004)">
</g>
<g
   transform="matrix(1.3593248,0,0,1.2078566,1.7711482,4.7753883)"
   id="g897"
   style="fill:#ffffff;fill-opacity:1;stroke:#000000;stroke-width:0.1;stroke-miterlimit:4;stroke-dasharray:none;stroke-opacity:1"><path
     inkscape:connector-curvature="0"
     d="m 23.091,18.561 c -0.37,0.644 -1.042,1 -1.734,1 -0.339,0 -0.683,-0.086 -0.998,-0.268 l -5.982,-3.455 v 6.91 c 0,1.104 -0.896,2 -2,2 -1.104,0 -2,-0.896 -2,-2 v -6.911 l -5.985,3.456 c -0.315,0.182 -0.659,0.268 -0.998,0.268 -0.691,0 -1.364,-0.356 -1.734,-1 -0.552,-0.957 -0.225,-2.18 0.732,-2.73 L 8.375,12.375 2.39,8.919 C 1.433,8.366 1.106,7.145 1.658,6.188 2.21,5.231 3.434,4.903 4.39,5.456 l 5.984,3.455 V 2 c 0,-1.104 0.896,-2 2,-2 1.104,0 2,0.896 2,2 v 6.91 l 5.982,-3.455 c 0.956,-0.553 2.183,-0.225 2.732,0.732 0.552,0.957 0.225,2.18 -0.732,2.731 l -5.981,3.456 5.982,3.455 c 0.957,0.552 1.286,1.775 0.734,2.732 z"
     id="path895"
     style="fill:#ffffff;fill-opacity:1;stroke:#000000;stroke-width:0.1;stroke-miterlimit:4;stroke-dasharray:none;stroke-opacity:1" /></g></svg>