<?xml version="1.0" encoding="iso-8859-1"?>
<!-- Generator: Adobe Illustrator 19.0.0, SVG Export Plug-In . SVG Version: 6.00 Build 0)  -->
<svg xmlns="http://www.w3.org/2000/svg" xmlns:xlink="http://www.w3.org/1999/xlink" version="1.1" id="Capa_1" x="0px" y="0px" viewBox="0 0 512.044 512.044" style="enable-background:new 0 0 512.044 512.044;" xml:space="preserve" width="512px" height="512px">
<g transform="translate(-1)">
	<g>
		<g>
			<path d="M188.756,110.956h17.067c4.713,0,8.533-3.82,8.533-8.533s-3.821-8.533-8.533-8.533h-17.067     c-4.713,0-8.533,3.82-8.533,8.533S184.043,110.956,188.756,110.956z" fill="#FFFFFF"/>
			<path d="M239.956,110.956h85.333c4.713,0,8.533-3.82,8.533-8.533s-3.82-8.533-8.533-8.533h-85.333     c-4.713,0-8.533,3.82-8.533,8.533S235.243,110.956,239.956,110.956z" fill="#FFFFFF"/>
			<path d="M188.756,145.089h17.067c4.713,0,8.533-3.82,8.533-8.533s-3.821-8.533-8.533-8.533h-17.067     c-4.713,0-8.533,3.82-8.533,8.533S184.043,145.089,188.756,145.089z" fill="#FFFFFF"/>
			<path d="M239.956,145.089h85.333c4.713,0,8.533-3.82,8.533-8.533s-3.82-8.533-8.533-8.533h-85.333     c-4.713,0-8.533,3.82-8.533,8.533S235.243,145.089,239.956,145.089z" fill="#FFFFFF"/>
			<path d="M188.756,179.222h17.067c4.713,0,8.533-3.82,8.533-8.533s-3.821-8.533-8.533-8.533h-17.067     c-4.713,0-8.533,3.82-8.533,8.533S184.043,179.222,188.756,179.222z" fill="#FFFFFF"/>
			<path d="M513.022,269.589c0.675-37.722-22.782-71.674-58.304-84.388c0.801-5.313,1.208-10.677,1.217-16.05     c0.816-53.031-37.144-98.743-89.422-107.684c-2.712-6.214-8.843-10.235-15.623-10.245H306.37     c-26.001-32.17-65.073-50.965-106.436-51.2c-78.204,0-141.825,66.875-141.825,149.079c0.005,11.888,1.349,23.738,4.004,35.325     c-36.863,11.882-61.65,46.436-61.092,85.163c-1.072,47.874,36.78,87.597,84.65,88.833h128.683v59.733h-25.6     c-3.36,0.001-6.407,1.973-7.784,5.039s-0.827,6.653,1.405,9.165l68.267,76.8c1.62,1.821,3.942,2.863,6.379,2.863     c2.438,0,4.759-1.042,6.379-2.863l68.267-76.8c2.232-2.512,2.781-6.1,1.405-9.165c-1.377-3.065-4.424-5.038-7.784-5.039h-25.6     v-59.733h128.683C476.242,357.186,514.094,317.463,513.022,269.589z M350.889,68.289v170.667h-52.15     c-8.897,0.01-16.107,7.22-16.117,16.117v52.15H163.156V68.289H350.889z M338.822,256.022l-39.133,39.133v-39.133H338.822z      M306.285,435.222l-49.263,55.421l-49.263-55.421h15.13c4.713,0,8.533-3.82,8.533-8.533v-68.267h51.2v68.267     c0,4.713,3.82,8.533,8.533,8.533H306.285z M428.372,341.356h-342.7c-38.446-1.232-68.659-33.316-67.583-71.767     c-0.73-33.925,22.798-63.562,56.004-70.546c2.364-0.441,4.432-1.858,5.696-3.904s1.606-4.53,0.941-6.841     c-3.674-12.742-5.543-25.935-5.554-39.196c0-72.792,55.967-132.012,124.758-132.012c31.112,0.15,60.947,12.39,83.201,34.133     h-119.98c-9.422,0.009-17.057,7.645-17.067,17.067v238.933c0.009,9.422,7.645,17.057,17.067,17.067h128     c2.262-0.01,4.43-0.909,6.036-2.503l68.261-68.261l0.012-0.016c0.686-0.71,1.242-1.535,1.643-2.437     c0.391-0.978,0.641-2.007,0.741-3.056c0.012-0.184,0.106-0.34,0.106-0.527V78.941c42.046,9.438,71.67,47.124,70.913,90.21     c-0.028,6.82-0.791,13.618-2.275,20.275c-1.002,4.552,1.838,9.066,6.375,10.133c31.817,8.154,53.79,37.194,52.987,70.029     C497.032,308.039,466.818,340.123,428.372,341.356z" fill="#FFFFFF"/>
			<path d="M239.956,179.222h85.333c4.713,0,8.533-3.82,8.533-8.533s-3.82-8.533-8.533-8.533h-85.333     c-4.713,0-8.533,3.82-8.533,8.533S235.243,179.222,239.956,179.222z" fill="#FFFFFF"/>
		</g>
	</g>
</g>
<g>
</g>
<g>
</g>
<g>
</g>
<g>
</g>
<g>
</g>
<g>
</g>
<g>
</g>
<g>
</g>
<g>
</g>
<g>
</g>
<g>
</g>
<g>
</g>
<g>
</g>
<g>
</g>
<g>
</g>
</svg>
