<?xml version="1.0" encoding="UTF-8" standalone="no"?>
<svg
   xmlns:dc="http://purl.org/dc/elements/1.1/"
   xmlns:cc="http://creativecommons.org/ns#"
   xmlns:rdf="http://www.w3.org/1999/02/22-rdf-syntax-ns#"
   xmlns:svg="http://www.w3.org/2000/svg"
   xmlns="http://www.w3.org/2000/svg"
   xmlns:sodipodi="http://sodipodi.sourceforge.net/DTD/sodipodi-0.dtd"
   xmlns:inkscape="http://www.inkscape.org/namespaces/inkscape"
   width="20"
   height="20"
   viewBox="0 0 20 20"
   version="1.1"
   id="svg915"
   sodipodi:docname="settings.svg"
   inkscape:version="0.92.3 (d244b95, 2018-08-02)">
  <metadata
     id="metadata921">
    <rdf:RDF>
      <cc:Work
         rdf:about="">
        <dc:format>image/svg+xml</dc:format>
        <dc:type
           rdf:resource="http://purl.org/dc/dcmitype/StillImage" />
        <dc:title></dc:title>
      </cc:Work>
    </rdf:RDF>
  </metadata>
  <defs
     id="defs919" />
  <sodipodi:namedview
     pagecolor="#ffffff"
     bordercolor="#666666"
     borderopacity="1"
     objecttolerance="10"
     gridtolerance="10"
     guidetolerance="10"
     inkscape:pageopacity="0"
     inkscape:pageshadow="2"
     inkscape:window-width="734"
     inkscape:window-height="480"
     id="namedview917"
     showgrid="false"
     inkscape:pagecheckerboard="true"
     inkscape:zoom="11.8"
     inkscape:cx="10"
     inkscape:cy="10"
     inkscape:window-x="2422"
     inkscape:window-y="141"
     inkscape:window-maximized="0"
     inkscape:current-layer="svg915" />
  <path
     fill="none"
     d="M0 0h20v20H0V0z"
     id="path911" />
  <path
     d="m 16.727984,10.958708 c 0.03392,-0.293698 0.05654,-0.599143 0.05654,-0.916335 0,-0.3171928 -0.02261,-0.6226373 -0.06784,-0.9163348 l 1.910973,-1.5507203 c 0.169607,-0.1409746 0.214837,-0.399428 0.113069,-0.599142 L 16.93152,3.7220128 C 16.818445,3.5105509 16.580986,3.4400636 16.37745,3.5105509 L 14.127251,4.4503814 C 13.652334,4.0744492 13.154803,3.7690043 12.600733,3.5340467 L 12.261507,1.0434957 C 12.227585,0.80853812 12.035357,0.6440678 11.809205,0.6440678 H 8.190794 c -0.2261507,0 -0.4070713,0.16447032 -0.4409938,0.3994279 L 7.410574,3.5340467 C 6.8565048,3.7690043 6.3476655,4.0861971 5.8840566,4.4503814 L 3.6338568,3.5105509 c -0.2035357,-0.082235 -0.440994,0 -0.5540693,0.2114619 L 1.2705817,6.9761759 C 1.1575063,7.1876378 1.2027365,7.4343433 1.383657,7.5753179 l 1.9109737,1.5507203 c -0.04523,0.2936975 -0.079152,0.6108896 -0.079152,0.9163348 0,0.305445 0.022614,0.622637 0.067845,0.916335 l -1.9109735,1.55072 c -0.1696138,0.140975 -0.214844,0.399428 -0.113076,0.599142 l 1.8092057,3.254163 c 0.1130754,0.211462 0.3505336,0.281949 0.5540693,0.211462 l 2.2501998,-0.93983 c 0.4749165,0.375931 0.9724482,0.681377 1.5265175,0.916334 l 0.339226,2.490551 c 0.04523,0.234958 0.2261508,0.399428 0.4523015,0.399428 h 3.618412 c 0.226151,0 0.418379,-0.16447 0.440995,-0.399428 l 0.339225,-2.490551 c 0.554069,-0.234957 1.062909,-0.55215 1.526517,-0.916334 l 2.2502,0.93983 c 0.203536,0.08223 0.440994,0 0.55407,-0.211462 l 1.809206,-3.254163 c 0.113075,-0.211462 0.06784,-0.458167 -0.113076,-0.599142 z m -6.727983,2.608029 c -1.8657446,0 -3.3922622,-1.585963 -3.3922622,-3.524364 0,-1.9384005 1.5265176,-3.5243645 3.3922622,-3.5243645 1.865743,0 3.39226,1.585964 3.39226,3.5243645 0,1.938401 -1.526517,3.524364 -3.39226,3.524364 z"
     id="path913"
     inkscape:connector-curvature="0"
     style="stroke-width:1.15256059" />
</svg>
