<?xml version="1.0" encoding="UTF-8" standalone="no"?>
<svg
   xmlns:ns="http://ns.adobe.com/SaveForWeb/1.0/"
   xmlns:dc="http://purl.org/dc/elements/1.1/"
   xmlns:cc="http://creativecommons.org/ns#"
   xmlns:rdf="http://www.w3.org/1999/02/22-rdf-syntax-ns#"
   xmlns:svg="http://www.w3.org/2000/svg"
   xmlns="http://www.w3.org/2000/svg"
   xmlns:sodipodi="http://sodipodi.sourceforge.net/DTD/sodipodi-0.dtd"
   xmlns:inkscape="http://www.inkscape.org/namespaces/inkscape"
   version="1.1"
   x="0px"
   y="0px"
   viewBox="0 0 100 100"
   enable-background="new 0 0 100 100"
   xml:space="preserve"
   id="svg2394"
   sodipodi:docname="subtree.svg"
   width="100"
   height="100"
   inkscape:version="0.92.3 (unknown)"><defs
     id="defs2398" /><sodipodi:namedview
     pagecolor="#ffffff"
     bordercolor="#666666"
     borderopacity="1"
     objecttolerance="10"
     gridtolerance="10"
     guidetolerance="10"
     inkscape:pageopacity="0"
     inkscape:pageshadow="2"
     inkscape:window-width="1855"
     inkscape:window-height="1056"
     id="namedview2396"
     showgrid="false"
     inkscape:zoom="7.552"
     inkscape:cx="47.4383"
     inkscape:cy="53.360558"
     inkscape:window-x="65"
     inkscape:window-y="24"
     inkscape:window-maximized="1"
     inkscape:current-layer="svg2394" /><metadata
     id="metadata2386"><ns:sfw><ns:slices /><ns:sliceSourceBounds
         width="1447.2"
         height="1444.2"
         x="1"
         y="-1446.1"
         bottomLeftOrigin="true" /></ns:sfw><rdf:RDF><cc:Work
         rdf:about=""><dc:format>image/svg+xml</dc:format><dc:type
           rdf:resource="http://purl.org/dc/dcmitype/StillImage" /><dc:title></dc:title></cc:Work></rdf:RDF></metadata><path
     style="fill:#ffffff;fill-opacity:1;stroke:#000000;stroke-width:0.13241525;stroke-opacity:1"
     d="M 3.0515443,81.055191 C 2.7702272,80.954088 2.3690736,80.707553 2.160092,80.507336 1.3387203,79.720412 1.3664798,80.198822 1.4072616,67.532953 L 1.4443856,56.003089 1.8086752,55.452677 C 2.0090345,55.149951 2.408872,54.781915 2.697203,54.634819 3.1931662,54.381798 3.4678595,54.367373 7.7902135,54.367373 h 4.5687725 l 0.03793,-4.667638 c 0.04291,-5.280148 0.05773,-5.363384 1.075149,-6.036711 l 0.532373,-0.352325 16.727123,-0.03461 16.727123,-0.03461 v -3.308877 -3.308877 l -4.469015,-0.0029 c -4.049312,-0.0026 -4.519272,-0.02574 -5.004154,-0.245988 -0.662014,-0.300711 -1.201782,-0.924939 -1.383575,-1.600065 -0.0921,-0.342037 -0.126327,-4.297007 -0.102794,-11.878248 0.03375,-10.874082 0.04619,-11.387462 0.287701,-11.873856 0.138832,-0.279605 0.491978,-0.66692 0.78477,-0.860699 l 0.532347,-0.3523196 11.696503,-0.03522 c 11.484212,-0.03458 11.705956,-0.03039 12.217357,0.2305046 0.286471,0.146146 0.688173,0.485064 0.89267,0.75315 l 0.371812,0.48743 0.03521,11.76336 c 0.03473,11.606121 0.0316,11.770422 -0.234343,12.291717 -0.148251,0.290596 -0.51714,0.692287 -0.819754,0.892646 l -0.550205,0.36429 -4.677581,0.03942 -4.677581,0.03942 v 3.30407 3.30407 h 16.62339 c 16.336382,0 16.632311,0.0046 17.140104,0.263608 0.284193,0.144984 0.684031,0.482884 0.888528,0.750888 l 0.371813,0.487282 0.03782,4.810552 0.03782,4.810551 h 4.567864 c 4.963336,0 5.095015,0.01699 5.775775,0.745079 0.195645,0.209248 0.419095,0.548193 0.496557,0.753213 0.09561,0.253043 0.14084,4.104075 0.14084,11.99076 v 11.617998 l -0.379387,0.598231 c -0.750433,1.18331 0.135215,1.10392 -12.771106,1.144786 -8.062332,0.02551 -11.522556,-0.007 -11.912576,-0.112051 -0.713574,-0.192145 -1.48282,-0.961392 -1.674965,-1.674966 -0.105022,-0.39002 -0.137564,-3.850243 -0.112037,-11.912573 0.04087,-12.906321 -0.03852,-12.020672 1.144787,-12.771105 l 0.598231,-0.379387 h 4.608609 4.60861 V 51.255614 48.143856 H 67.45339 52.358051 v 3.111758 3.111759 h 4.572579 c 3.540901,0 4.669183,0.04036 5.000745,0.178898 0.568858,0.237684 1.252755,1.034617 1.349694,1.572773 0.04292,0.238249 0.06075,5.621613 0.03963,11.963031 l -0.03839,11.52985 -0.352325,0.532347 c -0.193779,0.292791 -0.581093,0.645936 -0.860699,0.784768 -0.486356,0.24149 -1.000512,0.25398 -11.87126,0.2884 -8.06233,0.02553 -11.522553,-0.007 -11.912573,-0.112036 -0.713545,-0.192139 -1.482821,-0.961394 -1.67495,-1.674909 -0.105028,-0.390041 -0.137558,-3.87095 -0.112037,-11.988518 l 0.03596,-11.438889 0.36429,-0.550412 c 0.200359,-0.302725 0.600196,-0.670761 0.888528,-0.817857 0.495994,-0.253038 0.770641,-0.267446 5.097839,-0.267446 h 4.573602 V 51.255614 48.143856 H 32.363348 17.268009 v 3.111758 3.111759 l 4.60143,2.65e-4 c 5.164131,2.65e-4 5.135712,-0.0044 5.916168,0.972056 l 0.40666,0.508808 0.03523,11.726515 c 0.03514,11.698856 0.03457,11.727878 -0.244446,12.304239 -0.194941,0.402697 -0.466371,0.687479 -0.895925,0.939995 l -0.616254,0.362211 -11.45392,0.02878 C 5.5251852,81.234085 3.4754079,81.207524 3.0515443,81.055191 Z M 23.35911,67.807521 V 59.266737 H 14.818326 6.2775426 v 8.540784 8.540784 h 8.5407834 8.540784 z m 35.090043,0 v -8.540784 h -8.540784 -8.540784 v 8.540784 8.540784 h 8.540784 8.540784 z m 35.090042,0 v -8.540784 h -8.540784 -8.540784 v 8.540784 8.540784 h 8.540784 8.540784 z M 58.449153,23.18358 v -8.540783 h -8.540784 -8.540784 v 8.540783 8.540784 h 8.540784 8.540784 z"
     id="path2962"
     inkscape:connector-curvature="0" /></svg>