<svg xmlns="http://www.w3.org/2000/svg" xmlns:xlink="http://www.w3.org/1999/xlink" version="1.1" x="0px" y="0px" viewBox="0 0 64 80" style="enable-background:new 0 0 64 64;" xml:space="preserve"><g><polygon points="3,3 14,3 14,1 1,1 1,14 3,14  "/><polygon points="3,50 1,50 1,63 14,63 14,61 3,61  "/><polygon points="61,61 51,61 51,63 63,63 63,51 61,51  "/><polygon points="50,1 50,3 61,3 61,14 63,14 63,1  "/><path d="M60,32C60,16.561,47.439,4,32,4S4,16.561,4,32s12.561,28,28,28S60,47.439,60,32z M57.975,31H39.931   c-0.453-3.612-3.319-6.477-6.931-6.931V6.025C46.542,6.541,57.459,17.458,57.975,31z M32,38c-3.309,0-6-2.691-6-6s2.691-6,6-6   s6,2.691,6,6S35.309,38,32,38z M31,6.025v18.044c-3.612,0.453-6.477,3.319-6.931,6.931H6.025C6.541,17.458,17.458,6.541,31,6.025z    M6.025,33h18.044c0.453,3.612,3.319,6.477,6.931,6.931v18.044C17.458,57.459,6.541,46.542,6.025,33z M33,57.975V39.931   c3.612-0.453,6.477-3.319,6.931-6.931h18.044C57.459,46.542,46.542,57.459,33,57.975z"/><path d="M14.224,29.156c1.223-7.709,7.224-13.71,14.933-14.933l-0.313-1.976c-8.567,1.359-15.236,8.028-16.595,16.595   L14.224,29.156z"/><path d="M14.223,34.844l-1.976,0.313c1.359,8.567,8.028,15.236,16.595,16.595l0.313-1.976   C21.447,48.554,15.446,42.553,14.223,34.844z"/><path d="M49.777,34.844c-1.223,7.709-7.224,13.71-14.933,14.933l0.313,1.976c8.567-1.359,15.236-8.028,16.595-16.595L49.777,34.844   z"/><path d="M49.777,29.157l1.976-0.313c-0.55-3.468-2.019-6.745-4.247-9.476l-1.55,1.265C47.961,23.089,49.282,26.037,49.777,29.157z"/><path d="M40.421,13.854c-1.67-0.777-3.442-1.317-5.264-1.607l-0.313,1.976c1.639,0.26,3.232,0.747,4.735,1.445L40.421,13.854z"/><path d="M35.23,18.375l-0.46,1.946c4.378,1.034,7.875,4.531,8.909,8.91l1.946-0.46C44.419,23.662,40.338,19.581,35.23,18.375z"/><path d="M18.375,28.77l1.946,0.46c1.034-4.378,4.531-7.875,8.909-8.909l-0.46-1.946C23.662,19.581,19.581,23.662,18.375,28.77z"/><path d="M28.776,45.626l0.459-1.946c-4.38-1.033-7.879-4.529-8.914-8.909l-1.946,0.46C19.583,40.341,23.665,44.422,28.776,45.626z"/><path d="M45.625,35.229l-1.946-0.46c-1.034,4.378-4.531,7.875-8.909,8.91l0.46,1.946C40.338,44.419,44.419,40.338,45.625,35.229z"/><path d="M44,20c1.654,0,3-1.346,3-3s-1.346-3-3-3s-3,1.346-3,3S42.346,20,44,20z M44,16c0.551,0,1,0.449,1,1s-0.449,1-1,1   s-1-0.449-1-1S43.449,16,44,16z"/><polygon points="53,57 53,59 59,59 59,53 57,53 57,57  "/><polygon points="59,11 59,5 53,5 53,7 57,7 57,11  "/><polygon points="7,11 7,7 11,7 11,5 5,5 5,11  "/><polygon points="5,53 5,59 11,59 11,57 7,57 7,53  "/></g><text x="0" y="79" fill="#000000" font-size="5px" font-weight="bold" font-family="'Helvetica Neue', Helvetica, Arial-Unicode, Arial, Sans-serif">Created by Eucalyp</text><text x="0" y="84" fill="#000000" font-size="5px" font-weight="bold" font-family="'Helvetica Neue', Helvetica, Arial-Unicode, Arial, Sans-serif">from the Noun Project</text></svg>