<svg xmlns="http://www.w3.org/2000/svg" data-name="Layer 1" viewBox="0 0 5 6.25" x="0px" y="0px"><title>tree</title><path d="M.78205,2.26319A.17845.17845,0,0,0,.87171,2.258a.745.745,0,0,0,.05672.04914A.25618.25618,0,0,0,.987,2.341a.32212.32212,0,0,1-.25761-.05916c-.02517-.02094-.05607.01876-.03128.04a.38442.38442,0,0,0,.07554.051.24881.24881,0,0,1-.01768.03421c-.01354.01914-.03714.036-.04518.05812a.01263.01263,0,0,0,.00958.01729c.02858.00293.05523-.0223.07245-.04243A.18706.18706,0,0,0,.8236,2.3934a.32166.32166,0,0,0,.05207.01185l-.00442.00619a.09579.09579,0,0,1-.04436.03082c-.02492.00883-.01521.05246.01146.04615l.011-.00293A.15433.15433,0,0,1,.827,2.5086a.23058.23058,0,0,1-.09265.04359c-.01376.00367-.00707.02388.00576.02321A.21052.21052,0,0,0,.90669,2.457L.9119,2.45279a.14585.14585,0,0,0,.03216-.03751l.02741.00207a.17864.17864,0,0,1-.03379.07693c-.00751.01054.00615.0267.01678.01706a.15967.15967,0,0,0,.048-.09329l.021-.00071c.0573-.00327.11353-.01539.17026-.02332.01687-.00236.0338-.00426.05076-.0056.01514.003.03034.00564.04562.00774a.355.355,0,0,0-.08948.04967.02443.02443,0,0,0,.02943.039.341.341,0,0,1,.14823-.05237.19754.19754,0,0,1-.03192.06632.14427.14427,0,0,1-.14785.04382c-.026-.0074-.0389.03711-.01312.04575a.19277.19277,0,0,0,.181-.02988.15636.15636,0,0,1,.02338.02236.108.108,0,0,1,.02231.05358.02429.02429,0,0,0,.04826-.00528A.18545.18545,0,0,0,1.439,2.55231.16314.16314,0,0,0,1.40873,2.511a.27819.27819,0,0,0,.01947-.03632l.0146-.03406L1.537,2.473a.45048.45048,0,0,1,.15726.0747l-.01357.01282a.14035.14035,0,0,1-.06178.02911A.02332.02332,0,0,0,1.624,2.636a.16708.16708,0,0,0,.091-.03l.01745-.01361c.01523.02229.02838.04639.043.069l-.009.00224a.45843.45843,0,0,1-.11933.01216.12724.12724,0,0,1-.09056-.0349.11474.11474,0,0,1-.0281-.08712c.00223-.01592-.022-.02392-.02777-.008a.13911.13911,0,0,0,.00419.11459.14623.14623,0,0,0,.078.07375c-.0127.0032-.02544.006-.03826.00809a.49974.49974,0,0,1-.1479.00264L1.38833,2.7362a.20638.20638,0,0,1-.02772-.05293.01485.01485,0,0,0-.02758.01095.3287.3287,0,0,0,.016.04175.51048.51048,0,0,1-.06712-.02088.51668.51668,0,0,1-.12475-.06933.26748.26748,0,0,0-.00987-.06314.43742.43742,0,0,0-.03607-.09544c-.008-.01636-.03425-.00631-.02655.01054a.2742.2742,0,0,1,.02123.09358l.00028.00945a.36948.36948,0,0,1-.05666-.07555c-.01552-.02769-.06215-.01093-.04717.01873a.59438.59438,0,0,0,.05756.09191c-.01325-.00346-.02637-.00774-.03921-.01229a.24823.24823,0,0,1-.09181-.05807c-.01058-.01037-.0285.00713-.01863.01832a.36128.36128,0,0,0,.09459.07649.2315.2315,0,0,0,.1019.02994.57931.57931,0,0,0,.05841.05241l-.02013.01a.14622.14622,0,0,1-.06238.00941A.14938.14938,0,0,1,.976,2.69676c-.01677-.024-.05007.00277-.03564.02692a.2.2,0,0,0,.13135.09253.13038.13038,0,0,1-.012.03248.12872.12872,0,0,1-.04.0408c-.02612.01747.00285.05273.02876.03807a.16764.16764,0,0,0,.05639-.05176.14837.14837,0,0,0,.02554-.0559.1845.1845,0,0,0,.0318-.00549.1521.1521,0,0,0,.06339-.03066q.02059.01214.04221.02244a.37035.37035,0,0,1-.02989.05883.25429.25429,0,0,1-.05825.06471c-.01811.0132.00212.0382.02057.02723a.2837.2837,0,0,0,.12386-.1277.51926.51926,0,0,0,.13163.02711q.02417.00176.04807.00136a1.02282,1.02282,0,0,1-.12744.09692.53825.53825,0,0,1-.30954.08289.43.43,0,0,1-.07656-.04088.11847.11847,0,0,1-.04075-.105c.00147-.018-.02589-.02248-.028-.00426a.20663.20663,0,0,0,.027.12547L.91518,2.99922c-.01212-.00563-.024-.01191-.03571-.01869l.00572-.01208a.35733.35733,0,0,0-.015-.19391l.0029-.00317a.11665.11665,0,0,0,.01264-.0736.23094.23094,0,0,0-.0196-.07791C.86046,2.60649.837,2.6109.84023,2.62629a.27766.27766,0,0,1,.00553.06918l-.00239.02a.41575.41575,0,0,0-.064-.08683C.7653,2.614.73948,2.63274.75371,2.648a.34886.34886,0,0,1,.08074.30262.41624.41624,0,0,1-.04009-.03479.28848.28848,0,0,0-.05246-.1756C.7311,2.724.709,2.742.71822,2.75812a.2446.2446,0,0,1,.02752.07947L.74823,2.861.73139,2.83423c-.01413-.02528-.05665-.01-.043.01709a.44735.44735,0,0,0,.253.21821l-.0217.02019a.17825.17825,0,0,1-.03489.00915.14993.14993,0,0,1-.072-.00616A.01235.01235,0,0,0,.803,3.11537a.18467.18467,0,0,0,.07893.02249.28311.28311,0,0,0-.04114.128c-.00177.02221.03163.02778.03455.00526a.21673.21673,0,0,1,.05762-.11771.24853.24853,0,0,1,.04917-.03985c.01366-.00874.02966-.01433.04389-.02233q.02105.00344.04244.00508c.01407.00106.02818.00159.04229.00172l-.01389.01741a.68191.68191,0,0,0-.0613.09025.15736.15736,0,0,0-.077.02521c-.01153.00728-.00065.02552.01159.0206a.15153.15153,0,0,1,.04693-.01045.51549.51549,0,0,0-.02933.07815.57989.57989,0,0,0-.01752.12164c-.00136.01952.02781.02453.03044.00463A.492.492,0,0,1,1.07611,3.261a.23442.23442,0,0,1,.01677.02693.65352.65352,0,0,1,.03431.08186.01616.01616,0,0,0,.03095-.00768.49369.49369,0,0,0-.011-.0562.50915.50915,0,0,0,.06078.0293c.01232.00507.02437-.013.01236-.02082-.03165-.02062-.0615-.04391-.092-.06624a.21349.21349,0,0,0-.01762-.03958q.01985-.02806.04171-.05465c.01686-.02044.03929-.03987.05508-.06239A.60861.60861,0,0,0,1.30208,3.07c.00161.00954.00191.02278.00237.027.00185.01656.00287.03326.00336.04992l-.00676.0052c-.00926.0099-.01539.02265-.02485.03262a.10958.10958,0,0,1-.03231.02311.01526.01526,0,0,0,.01126.02835A.15658.15658,0,0,0,1.30556,3.212a.26081.26081,0,0,1-.01164.05446c-.0067.01967.023.03267.02979.01286A.71363.71363,0,0,0,1.36453,3.131a.24615.24615,0,0,0,0-.08488.73029.73029,0,0,0,.14413-.09036A.01917.01917,0,0,0,1.5224,2.9505a.34665.34665,0,0,1,.02906-.02377.3169.3169,0,0,1-.05411.10228c-.01348.01568.011.03382.02491.01949a.39259.39259,0,0,0,.07782-.10323.32684.32684,0,0,0,.02179-.05954h0a.4696.4696,0,0,1,.22224-.04017.45149.45149,0,0,1,.14791.03577.31325.31325,0,0,0-.13049.05682.391.391,0,0,0-.10137.13138l-.00647.01212a.14543.14543,0,0,1-.05545.00923A.14065.14065,0,0,0,1.67946,3.039.13252.13252,0,0,0,1.635,2.98941a.01221.01221,0,0,0-.015.01923.15705.15705,0,0,1,.033.04759.09189.09189,0,0,1,.00585.02642.104.104,0,0,1-.02158-.01184c-.0257-.01843-.056.01977-.03043.03889a.18653.18653,0,0,0,.10789.03689.154.154,0,0,1-.093.059A.30027.30027,0,0,1,1.46673,3.172c-.02931-.0139-.0488.03189-.01989.04609.01932.00949.03837.01978.05762.0291a.09512.09512,0,0,1-.02541.0191.091.091,0,0,1-.07059.00482.01235.01235,0,0,0-.00978.02266.09494.09494,0,0,0,.07823.00675A.20585.20585,0,0,0,1.51475,3.283a.28442.28442,0,0,0,.033-.01748.19594.19594,0,0,0,.06719.01187l-.02811.02508a.60965.60965,0,0,1-.13356.08363.26678.26678,0,0,0-.12553-.04129c-.02005-.00218-.0314.02884-.01024.0357A.57269.57269,0,0,1,1.38,3.40467l.0124.00623a.77066.77066,0,0,1-.09929.02779.024.024,0,0,0,.00522.04771.58206.58206,0,0,0,.11043-.01868.48789.48789,0,0,1-.04173.0718c-.025.02893-.05561.02141-.08524.00153a.15575.15575,0,0,0-.01864-.019.20134.20134,0,0,0-.06847-.07139.2721.2721,0,0,0-.1272-.04833.013.013,0,0,0-.00392.02578.22727.22727,0,0,1,.1098.04967.13945.13945,0,0,0-.11609.00872c-.01258.00816-.00076.02834.0128.02276.068-.028.11944.01835.16164.06475a.17508.17508,0,0,1-.04536-.01065.016.016,0,0,0-.01264.02928A.29886.29886,0,0,0,1.264,3.6201a.19129.19129,0,0,1-.02949.04184.19782.19782,0,0,1-.06217.04339.01346.01346,0,0,0,.00993.025.17371.17371,0,0,0,.11959-.10879l.00668-.00037a.26678.26678,0,0,0,.07905-.01764c-.003.01735-.00512.03483-.00676.05248l-.00416.00493c-.02341.03994-.06751.062-.0869.10488-.00713.01575.01612.025.02419.01044a.30355.30355,0,0,1,.06329-.06353l-.00057.01747c-.00053.01988.03027.02492.031.00472A.59189.59189,0,0,1,1.45509,3.541.32642.32642,0,0,1,1.513,3.43721l.02157-.01529.00427-.00416a.73016.73016,0,0,0,.09437-.057l-.00988.03265a.55913.55913,0,0,1-.09747.10289c-.011.01043.00171.02874.01455.01926.0208-.01536.04143-.03181.063-.04639a.42342.42342,0,0,1-.03762.07253.38772.38772,0,0,1-.08589.0979c-.01454.0104.002.03225.01672.02214.01745-.012.03574-.02215.05211-.03553a.31172.31172,0,0,1,.002.03569.262.262,0,0,1-.01471.075.01221.01221,0,0,0,.02241.00967.4135.4135,0,0,0,.02512-.07964.14413.14413,0,0,0,.00184-.07776l.0176-.0227.01668-.02571a.2364.2364,0,0,0,.01576.042.37685.37685,0,0,1-.00436.1807.01235.01235,0,0,0,.02266.00978A.28131.28131,0,0,0,1.678,3.642c.016.01545.03411.02889.05141.04306.01383.01133.03076-.01037.01709-.02185A.17434.17434,0,0,1,1.697,3.57017a.24988.24988,0,0,1-.0055-.09672.40158.40158,0,0,1,.0107-.0474l.00734.00941a.24435.24435,0,0,1,.07572.14435.01546.01546,0,0,0,.03053.00064.23086.23086,0,0,0-.00272-.07654A.22283.22283,0,0,0,1.78337,3.435a.49085.49085,0,0,1-.04268-.06337.11227.11227,0,0,1-.00795-.02874l.02873-.06535.00729-.01627a.61664.61664,0,0,1,.1427-.12422.27606.27606,0,0,1-.00618.06564.21632.21632,0,0,1-.06269.10212c-.0175.01913.00708.04423.02807.03751a.11355.11355,0,0,0,.03686-.02008l-.00114.0231a.17453.17453,0,0,0-.03782.05151.23665.23665,0,0,0-.02774.07925c-.00214.01391.01959.021.02433.007a.27.27,0,0,1,.03265-.06887l.00579-.00757a.36734.36734,0,0,0,.0065.08638.33286.33286,0,0,0,.04824.11217c.01124.01726.03494.00072.02971-.01671a.48624.48624,0,0,1-.0172-.08587l.01749.0061a.15065.15065,0,0,1,.06436.0489c.01071.01532.033-.00192.023-.01739a.22661.22661,0,0,0-.06116-.0691A.169.169,0,0,0,1.967,3.44724c-.00126-.04576.00152-.09172.00466-.13774a.26869.26869,0,0,1,.1416.11306c.00933.01509.03084-.00156.02191-.01655l-.01616-.02411a.01628.01628,0,0,0,.00729-.02425c-.017-.02169-.03456-.04248-.05295-.063a.39624.39624,0,0,1-.04746-.0577.14583.14583,0,0,1-.00665-.11334.09586.09586,0,0,1,.0943-.02485c.0817.02747.2518.32671-.00462.678a.66826.66826,0,0,1-.48489.15281c-.01779.00086-.0274.01821-.011.02546a.202.202,0,0,0,.06813.02218l.00926.00051A.17556.17556,0,0,1,1.604,4.001a.20694.20694,0,0,1-.14437-.062c-.01065-.01154-.03206-.00209-.02539.01429a.19942.19942,0,0,0,.12947.11725A.2355.2355,0,0,0,1.759,4.03836a.569.569,0,0,1,.09116-.04822l.019-.00644-.00233.00114a.28392.28392,0,0,0-.101.09525c-.00939.01353.01.02914.02032.0159a.19229.19229,0,0,1,.12767-.06154l.01208-.00134a.14882.14882,0,0,1-.04175.047c-.01319.00963.0015.02734.01488.0197a.46059.46059,0,0,0,.05945-.03832.13514.13514,0,0,0,.02936-.02932.46819.46819,0,0,1,.06323.00863c-.01334.01131-.02568.02329-.03673.03419a.24457.24457,0,0,1-.07312.05571.18713.18713,0,0,1-.10009.01456.01462.01462,0,0,0-.008.02777.18235.18235,0,0,0,.09395.019.19993.19993,0,0,0,.091-.03485.32853.32853,0,0,0,.03262-.02642l-.00843.03539a.13238.13238,0,0,1-.056.08429.01415.01415,0,0,0,.01044.02629.11245.11245,0,0,0,.04659-.02505.14909.14909,0,0,0,.02439-.03229.19845.19845,0,0,0,.1049.11326.01536.01536,0,0,0,.01822-.0232.19538.19538,0,0,1-.05095-.12522A.11639.11639,0,0,1,2.21039,4.088l.00675-.00379a.172.172,0,0,0,.01783.1743.25711.25711,0,0,0,.03946.04585.23411.23411,0,0,0,.02624.02166.2678.2678,0,0,1,.02913.01865c.013.01217.02926-.00941.01692-.02163a.18337.18337,0,0,1-.018-.02984l-.01607-.02638A.24671.24671,0,0,1,2.29146,4.218a.13409.13409,0,0,1-.00138-.0773l.02335.02882a.30826.30826,0,0,1,.03415.04769.23762.23762,0,0,1,.02652.05913.01491.01491,0,0,0,.02942.00062.16685.16685,0,0,0-.00041-.11116.20574.20574,0,0,0-.03147-.05614.1234.1234,0,0,1,.06971.06243.69693.69693,0,0,0,.05493.1087.15453.15453,0,0,0,.04481.042.10786.10786,0,0,0,.057.01243c.01287.00069.02517-.0175.01127-.02611a.12464.12464,0,0,1-.03177-.041.3333.3333,0,0,1-.02325-.04994.6717.6717,0,0,0-.04973-.11646l-.0041-.00629.00268.00212.02817.02261c.01108.00887.02411.01547.03488.02446a.0144.0144,0,0,0,.02208-.01652A.31221.31221,0,0,0,2.575,4.08755L2.56555,4.0705l.01317-.00423a.4636.4636,0,0,1,.02835.069.1884.1884,0,0,1,.00269.10512.017.017,0,0,0,.03226.00925.38593.38593,0,0,0,.02406-.13128l.00066.00155a.24679.24679,0,0,1-.01774.21942.01471.01471,0,0,0,.02316.01812.24718.24718,0,0,0,.06459-.10257.2925.2925,0,0,0,.01247-.12553.257.257,0,0,0-.0201-.068L2.73207,4.042l.00017-.00076.00951-.019.01265.00533a.14378.14378,0,0,1,.00352.04889.30153.30153,0,0,0,.00851.13338.19788.19788,0,0,0,.07938.09708.01477.01477,0,0,0,.02079-.02044.24253.24253,0,0,1-.03908-.12363.91722.91722,0,0,1,.01066-.104.05645.05645,0,0,1,.01028.01864c.0088.02728.00164.05742.00794.08527a.11073.11073,0,0,0,.039.05864c.01383.01238.03158-.01036.01778-.02272-.0192-.01719-.00325-.066-.00028-.08771l.00146-.01454a.27066.27066,0,0,1,.02327.19436c-.00393.01472.01826.02309.02661.01148a.25109.25109,0,0,0,.02985-.225.1985.1985,0,0,1,.02939.02618c.01483.01637.035.03844.03285.06176a.01443.01443,0,0,0,.02852.00434.17793.17793,0,0,0,.00116-.0826.18761.18761,0,0,0-.05038-.0772l-.01842-.016a.10665.10665,0,0,1,.10924.06076.13906.13906,0,0,1,.00185.09109.133.133,0,0,1-.02491.0447.25352.25352,0,0,1-.03045.03418c-.0155.00847-.00663.03387.01044.02629l.01081-.003.007-.00058a.1789.1789,0,0,0,.12405-.13858.156.156,0,0,0-.02334-.1201l.01341.00616a.27873.27873,0,0,1,.067.11368c.0037.01465.02848.00841.02588-.00643a.4078.4078,0,0,0-.019-.07551.45976.45976,0,0,0,.0552.01727.26765.26765,0,0,0,.1021.003A.16921.16921,0,0,0,3.493,4.03087a.4106.4106,0,0,0,.03784-.02775c.01575-.00977-.0017-.03276-.01739-.023a.1113.1113,0,0,1-.0453.00729.29039.29039,0,0,1-.04832-.00323.29989.29989,0,0,1-.0751-.02516l.01013-.00251a.26523.26523,0,0,0,.069-.03481c.01323-.00824.00035-.03169-.01361-.0242a.21937.21937,0,0,1-.15444.00348.66906.66906,0,0,1-.1569-.0543.43275.43275,0,0,1-.13374-.55275.12356.12356,0,0,1,.15426.01516.12154.12154,0,0,1,.0234.02236.29889.29889,0,0,0-.05044.08945c-.00547.013.01365.02563.022.01306a.23374.23374,0,0,1,.04191-.04484l.01235-.00983a.10278.10278,0,0,1-.02879.11825.01457.01457,0,0,0,.01756.02324.16418.16418,0,0,0,.0693-.11466.13871.13871,0,0,0-.005-.05384l.01913.02356.00575.0076.02036.03038a.24776.24776,0,0,1-.01523.20067c-.00921.0148.01126.03192.02185.01709a.28212.28212,0,0,0,.04472-.09786c.00821.02748.01526.05542.023.08345a.11818.11818,0,0,0-.03525.0738.189.189,0,0,0,.00538.092c.00406.01365.025.00757.02374-.0059a.17722.17722,0,0,1,.00963-.07865.13965.13965,0,0,1,.01507-.027.212.212,0,0,0,.0176.03241.2081.2081,0,0,0,.06638.05866c.01573.01005.03384-.01314.01795-.02294a.14626.14626,0,0,1-.05061-.07827.80667.80667,0,0,1-.02695-.09447.7824.7824,0,0,0-.02645-.08828l.01824.02072a.43389.43389,0,0,0,.08418.068.16338.16338,0,0,0,.00246.02253c.00142.01279.00186.02566.00359.03843a.2238.2238,0,0,0,.02137.06632.01462.01462,0,1,0,.02543-.01418.09152.09152,0,0,1-.0117-.03677A.42211.42211,0,0,1,3.493,3.59042l.00019-.004a.52192.52192,0,0,0,.06963.03086.48012.48012,0,0,1,.03.05144.1924.1924,0,0,1,.01926.08527c-.0011.01895.02824.02353.02934.00447a.31362.31362,0,0,0-.00382-.08556l.01067.00309a.193.193,0,0,1,.05051.02714.42243.42243,0,0,1,.08128.08525c.01077.014.03021-.00166.02147-.01622-.01142-.019-.02275-.03839-.03538-.05673A.15237.15237,0,0,1,3.824,3.68023c.01724-.0041.01519-.0314-.00308-.02813a.19506.19506,0,0,0-.08257.02807l-.0176-.0172a.2972.2972,0,0,0-.02618-.02029.37165.37165,0,0,0,.04406-.00141c.02107-.00195.02285-.03665.0008-.03795a.58313.58313,0,0,1-.10265-.01494A.35119.35119,0,0,1,3.668,3.5635c.01548-.01016-.00175-.03231-.01722-.0228-.01991.01224-.04361.01957-.0627.03314a.40911.40911,0,0,1-.07262-.034.09657.09657,0,0,0,.03866-.04144c.00576-.01269-.013-.02441-.02129-.01264-.01883.02686-.04695.01393-.07337.01109l-.00324-.00009a.44751.44751,0,0,1-.05706-.05852c-.01416-.01755-.02684-.03621-.03971-.05471a.31141.31141,0,0,1,.08211.00473.015.015,0,0,0,.00819-.02856.39515.39515,0,0,0-.10411-.028l-.02727-.00193-.00794-.0088a.32521.32521,0,0,0-.08671-.06443.99931.99931,0,0,0,.18295-.05144l.01989.00586a.43984.43984,0,0,1,.04337.07018.013.013,0,0,0,.02423-.00962.38.38,0,0,0-.01262-.0394l.026.01241.03237.01708a.57958.57958,0,0,1-.00863.08372.20261.20261,0,0,1-.04588.08874c-.01246.01408.01.03088.02272.01778a.31069.31069,0,0,0,.05044-.0689.53779.53779,0,0,0,.04294.11618.01443.01443,0,0,0,.02681-.01064.74.74,0,0,1-.02421-.12886c-.00243-.02162-.00443-.04323-.00491-.065h0c.0273.01526.0549.0302.0831.04313a.14626.14626,0,0,1,.01308.04885.58253.58253,0,0,0,.00622.06889c.0032.01734.03017.02012.03245.00068A.43381.43381,0,0,0,3.735,3.36858l-.00114-.01025.00561.00195.00372.009a.37075.37075,0,0,0,.0476.04924l.00476.00467v.00018l-.00261.00308a.29935.29935,0,0,0-.03964.12071.01388.01388,0,0,0,.02742.00417A.40147.40147,0,0,1,3.806,3.47917l.008.02619a.2159.2159,0,0,0,.04907.0864c.01309.01368.036-.00209.02413-.01823a.216.216,0,0,1-.01612-.02578l.006.00216a.225.225,0,0,0,.10453-.00032.01429.01429,0,0,0-.00311-.0284.13232.13232,0,0,1-.13073-.045L3.84433,3.4723,3.842,3.4587l.00841.00485a.22029.22029,0,0,0,.14222.02611.01512.01512,0,0,0,.00088-.02974A.309.309,0,0,1,3.863,3.40139a.21346.21346,0,0,1-.02414-.02407c.00769.00005.01544-.00018.02328-.00078a.28613.28613,0,0,0,.07216-.0152.09366.09366,0,0,0,.05049.02486l.01426.00175a.07364.07364,0,0,0,.01585.03179.07788.07788,0,0,0,.016.01456.13461.13461,0,0,0,.022.01c.015.007.03-.01669.01516-.02555A.075.075,0,0,1,4.048,3.3948l-.00527-.01c.01664-.00269.03326-.00612.05016-.00715a.01479.01479,0,0,0,.0005-.02945c-.02806-.00335-.05761-.001-.08519-.00682l-.01607-.00644a.46851.46851,0,0,0,.08179-.06011c.01671-.01513.00193-.0508-.02129-.03785a.54816.54816,0,0,1-.17706.07636l.00964-.02384a.36079.36079,0,0,1,.02127-.044.52769.52769,0,0,1,.04013-.03937.23338.23338,0,0,1,.14777-.01593.01457.01457,0,0,0,.00438-.02879.69625.69625,0,0,0-.1045-.01178.18251.18251,0,0,0-.05367.01011.24552.24552,0,0,0,.032-.11713c-.00012-.01358-.02211-.01376-.02365-.0005a.30187.30187,0,0,1-.06515.13691l-.02394.03535L3.85871,3.192c0-.01521-.02532-.01565-.02667-.00056a.50931.50931,0,0,0-.00446.06733.4412.4412,0,0,0-.02989.03736l-.00917.013a.46423.46423,0,0,1-.10407-.0397L3.65,3.25142a.51252.51252,0,0,0,.08733-.01071c.01588-.00313.0195-.03021.00065-.0308a1.0062,1.0062,0,0,1-.13243-.01668.63846.63846,0,0,1-.06373-.01437c-.01607-.00443-.03167-.01057-.04781-.01451l.01694-.00949a1.26756,1.26756,0,0,0,.12728-.093.19294.19294,0,0,0,.021.04143.16578.16578,0,0,0,.08784.06024c.01585.00541.02624-.0174.01044-.02419a.12991.12991,0,0,1-.0599-.06129.146.146,0,0,1-.01348-.0351.54192.54192,0,0,1,.19055.02029c.0199.00512.02769-.026.00971-.03385a.5035.5035,0,0,0-.13174-.03927l.04249-.02066c.04581-.02124.09307-.04119.13887-.0637A.17321.17321,0,0,1,3.97,2.933l.01529.01424a.50871.50871,0,0,0,.057.11535.16064.16064,0,0,0,.15644.0697.01527.01527,0,0,0-.00332-.03033.12407.12407,0,0,1-.07423-.0239.13333.13333,0,0,0,.06152-.01965c.01551-.01042-.00184-.03281-.01739-.023a.05529.05529,0,0,1-.05014.00571c-.01475-.00478-.02563-.01551-.03982-.02053l-.00476-.01089L4.068,3.00284a.108.108,0,0,0,.07338-.002c.02985-.011.01857-.06318-.01384-.05575a.09956.09956,0,0,1-.08228-.03448c-.01541-.01336-.03036-.02731-.0467-.03935a.60907.60907,0,0,0,.05392-.03569l.00068,0A.22809.22809,0,0,0,4.15,2.87938a.28005.28005,0,0,0,.04675.0442.38163.38163,0,0,0,.0727.04464c.01405.00739.02787-.01538.01432-.02413a.55544.55544,0,0,1-.06027-.04871l-.01115-.01095a.21785.21785,0,0,0,.08339-.02378c.01467-.0074.01118-.03338-.00749-.03014a.24344.24344,0,0,1-.0848-.00151.15836.15836,0,0,0,.05335-.04857A.01318.01318,0,0,0,4.236,2.76419a.14423.14423,0,0,1-.09521.04325l-.01514-.009-.01558-.012.00642-.00933a.3602.3602,0,0,0,.039-.05424l.00756-.00164a.23559.23559,0,0,0,.06867-.04991.10953.10953,0,0,0,.09367-.03192c.0126-.01408-.00991-.03059-.02272-.01778a.04857.04857,0,0,1-.03723.00668.39694.39694,0,0,0,.04809-.1126C4.31788,2.49945,4.29,2.4913,4.285,2.50755a.36045.36045,0,0,1-.09987.14971.2655.2655,0,0,0,.0052-.15281c-.00465-.01689-.03114-.00936-.02934.00729a.24176.24176,0,0,1-.03114.14406.3014.3014,0,0,1-.0494.06142c.00208-.03528-.00217-.07193-.00216-.10727a.01431.01431,0,0,0-.02857-.00108.39977.39977,0,0,1-.01194.08835.27847.27847,0,0,1-.02645.05616c-.023.01756-.04591.036-.07041.05119l-.00026-.00307a.26872.26872,0,0,1,0-.04158A.18024.18024,0,0,1,3.967,2.67343c.00981-.01537-.01194-.03322-.02272-.01778a.29933.29933,0,0,0-.05444.119.16741.16741,0,0,0-.00166.0435.41252.41252,0,0,0-.14108.04715l-.01725.01055.01178-.02422a.36667.36667,0,0,0,.025-.07726l.0104-.00248A.15058.15058,0,0,0,3.843,2.73544a.01416.01416,0,0,0-.01705-.02258.12578.12578,0,0,1-.04723.01651.45343.45343,0,0,1,.111-.13783A.01471.01471,0,0,0,3.872,2.56808a.45247.45247,0,0,0-.1015.08573l-.00035.00046a.30419.30419,0,0,0-.10234-.19443c-.01108-.009-.03083.00387-.02358.01764a.38884.38884,0,0,1,.054.23392.33719.33719,0,0,1-.01514.06442l-.007.01543A.22476.22476,0,0,0,3.615,2.657c-.01368-.01284-.03144.01013-.01795.02294a.10935.10935,0,0,1,.02514.06159c.0038.02358.00732.04756.00965.07132a.20974.20974,0,0,1-.00208.06083.25037.25037,0,0,0-.01766.03l-.00537.00746a.43055.43055,0,0,1-.12633.11252l-.00076-.01219a.20311.20311,0,0,1,.00548-.04422.23613.23613,0,0,1,.03764-.08952c.01277-.01606-.01073-.03294-.02447-.01914a.36075.36075,0,0,0-.03991.04053.23566.23566,0,0,0-.02784.05248.1818.1818,0,0,0-.01742.10172,1.73639,1.73639,0,0,1-.28.03543l.04836-.027A.62327.62327,0,0,0,3.359,2.932a.37406.37406,0,0,0,.03988-.05534.56891.56891,0,0,1,.1491-.07474.01969.01969,0,0,0-.00427-.03751.20951.20951,0,0,0-.08969.01471c.02041-.03914.05113-.07246.07391-.11036a1.05669,1.05669,0,0,0,.07448-.16153A.02428.02428,0,0,0,3.55787,2.488a.99942.99942,0,0,1-.08173.16532l-.0157.02179a.8941.8941,0,0,0-.01169-.18525.02554.02554,0,0,0-.05074.00555.67118.67118,0,0,1,.00244.14585.15381.15381,0,0,1-.05736-.08878c-.00385-.01763-.03161-.01524-.0284.00311a.26928.26928,0,0,0,.077.14692l0,.00005a.28584.28584,0,0,1-.09739.173c-.01238.01009-.02521.01949-.03831.02846L3.25178,2.905l-.018.00362.00049-.00093A.45224.45224,0,0,0,3.26641,2.616c-.00692-.03211-.05763-.02752-.05157.00564a.33778.33778,0,0,1,.00381.09336l-.02387-.02468A.14246.14246,0,0,1,3.159,2.62139a.01194.01194,0,0,0-.02372.00259.21777.21777,0,0,0,.04657.10483.13806.13806,0,0,1,.021.06106.34752.34752,0,0,1-.04053.08339.39922.39922,0,0,1-.03611.04608A.33925.33925,0,0,1,3.10152,2.886a.15849.15849,0,0,0,.018-.06718.42273.42273,0,0,0,.00071-.07656c-.00122-.01853-.02895-.01505-.0284.00311a.31122.31122,0,0,1-.00612.06831l-.00714.02614a.26043.26043,0,0,1-.01693-.10868.01513.01513,0,0,0-.02989-.00455.30918.30918,0,0,0,.0299.227.39741.39741,0,0,0-.09375.05319c-.041.031-.08078.064-.12012.09719l.01387-.05229c.02315-.08324.0489-.166.071-.24964a.43366.43366,0,0,0,.039-.125A.57163.57163,0,0,1,3.007,2.61561a.54748.54748,0,0,1,.16677-.08889A.23935.23935,0,0,0,3.2487,2.543c.0184.00453.02266-.02458.00442-.02907l-.01464-.00635a.2134.2134,0,0,0,.09421-.05382.3641.3641,0,0,0,.0707-.12647.02539.02539,0,0,0-.04658-.02015.369.369,0,0,1-.07271.11557.38783.38783,0,0,1-.14067.05658l-.00075.00029.00183-.00177a.25839.25839,0,0,0,.07221-.12275c.00653-.02715-.034-.03625-.04522-.013a.27755.27755,0,0,1-.09774.09844c-.02606.01858-.053.03629-.07845.05582l.00234-.0146a.32806.32806,0,0,1,.11771-.19318l.02731-.02112.02125.00325a.61229.61229,0,0,1,.05936.01893.09393.09393,0,0,0,.058.004c.015-.00356.01915-.02812.00063-.0297-.0121-.001-.0256-.01426-.03571-.02031-.00975-.00584-.01947-.01171-.02971-.01664l-.00359-.00167.0281-.00563c.04436-.0085.08858-.01682.13282-.02448a.50249.50249,0,0,1,.05478.03363.28441.28441,0,0,1,.04545.1887.014.014,0,0,0,.0277.00422.27964.27964,0,0,0,0-.13665l-.001-.0034a.5146.5146,0,0,0,.09732.05917.34418.34418,0,0,0,.11681.02726.10707.10707,0,0,0,.01979.03335c.00974.02329.02282.04558.03183.0691a.21608.21608,0,0,0,.03489.07808c.01292.01335.03651-.00323.02369-.01789a.20374.20374,0,0,1-.029-.076c.00993.00629.02022.012.03066.01736l.00115.0011a.069.069,0,0,0,.03163.01385.39642.39642,0,0,0,.18362.022c.016-.00151.01742-.02808.00061-.02887A.37.37,0,0,1,3.998,2.47508a.51577.51577,0,0,0,.131-.055c.01411-.00834.00038-.03314-.01429-.02539a.35622.35622,0,0,1-.13974.0412.59288.59288,0,0,1-.06919-.00081L3.8671,2.4316a.33672.33672,0,0,1-.069-.04293.16719.16719,0,0,1-.0219-.02217A.35826.35826,0,0,0,3.836,2.3547c.0297.00774.05934.0162.08946.02243a.23087.23087,0,0,0,.10814-.00228c.01829-.00457.00727-.03185-.01085-.02732a.20073.20073,0,0,1-.11085-.02115l-.00445-.00162a.30042.30042,0,0,0,.04546-.03147A.03026.03026,0,0,0,3.91643,2.245a.3135.3135,0,0,1-.12437.05372.64258.64258,0,0,0,.03878-.05607c.00892-.01422-.01106-.03073-.021-.01641a.389.389,0,0,1-.04571.05614.32672.32672,0,0,1-.02468.02142.29167.29167,0,0,1-.03206-.00149.1.1,0,0,1-.00056-.01494.14663.14663,0,0,1,.0173-.06689c.00805-.01394-.01541-.028-.02437-.01446a.23059.23059,0,0,0-.03625.07476L3.661,2.29366a.30625.30625,0,0,1-.06658-.0268c-.045-.02452-.086-.05765-.12887-.08634a1.93232,1.93232,0,0,1,.257-.022c.04628-.00054.09262-.00051.13885.00172.03645.00176.07331.00812.10995.00985a.18881.18881,0,0,1,.08248.09452c.00475.01718.03049.00681.02578-.01023a.37381.37381,0,0,0-.024-.074l.025.0097a.43016.43016,0,0,1,.07121.10419l.019.03247a.22487.22487,0,0,0,.02112.12721.014.014,0,0,0,.026-.01034A.24919.24919,0,0,1,4.20657,2.379a.4627.4627,0,0,0,.07057.06626c.01408.01183.03169-.01066.01761-.0225a.39282.39282,0,0,1-.06836-.08867c-.01874-.02931-.03608-.05937-.053-.08974L4.16758,2.234l.0304.0192a.23256.23256,0,0,1,.067.0577c.01025.01567.03348-.0019.02324-.01756-.01272-.01944-.02221-.04013-.03452-.05954l.016-.0172a.1217.1217,0,0,1,.02765-.02445c.0176-.00775.00663-.03562-.01105-.02784a.194.194,0,0,1-.02088.00589A.10136.10136,0,0,0,4.243,2.1811l-.01965.01449a.31184.31184,0,0,0-.04957-.04251c-.01-.00689-.02038-.01325-.03093-.0192a.217.217,0,0,1,.02845-.0496l.00847-.00984a.08777.08777,0,0,0,.01962.01011.11737.11737,0,0,0,.05975.0018A.01416.01416,0,0,0,4.256,2.05822.06226.06226,0,0,1,4.213,2.042a.53921.53921,0,0,0,.03893-.044c.00894-.01082-.00388-.03034-.01732-.02315a.35155.35155,0,0,0-.105.07681.25022.25022,0,0,0-.03611.05813l0,0a.60218.60218,0,0,0-.07475-.02541l.02173-.013a.3711.3711,0,0,0,.07668-.07777c.01172-.01439-.011-.0322-.02272-.01778a.34342.34342,0,0,1-.15472.09239.797.797,0,0,0-.19335-.001A.72131.72131,0,0,0,3.89356,1.999a.35044.35044,0,0,0,.03614.00636c.02132.003.04357-.00124.06443.00227.01874.00315.02184-.02386.00434-.02852a.31953.31953,0,0,1-.03463-.01646l-.00507-.00191c.01563-.00888.03089-.0184.04555-.02858a.19419.19419,0,0,1,.10492-.05131.14426.14426,0,0,0,.09811-.02514.0143.0143,0,0,0-.01722-.0228c-.02833.02006-.07239.00858-.10555.012a.50788.50788,0,0,0,.0463-.07815c.009-.01769-.01931-.02981-.02826-.0122a.27952.27952,0,0,1-.08752.09114.202.202,0,0,1-.02854.01642A.2488.2488,0,0,0,4.006,1.78289a.3857.3857,0,0,0,.06022-.09816c.00711-.01313-.01476-.0264-.02271-.01348a.24028.24028,0,0,1-.03421.043c.00034-.02664.00017-.05325.0026-.07985a.4137.4137,0,0,1,.01835-.10683c.00622-.01629-.01829-.027-.025-.01077-.01225.02989-.02841.05718-.03812.08824a.59281.59281,0,0,0-.021.0975l-.00653.05391c-.00759.02586-.0163.05146-.02476.07693a.2382.2382,0,0,1-.05692.1069.16183.16183,0,0,1-.05872.03021.38385.38385,0,0,0,.03611-.05969.363.363,0,0,0,.02686-.07575.26532.26532,0,0,0,.03289-.08474.46693.46693,0,0,0,.01811-.09611.37181.37181,0,0,0-.0348-.18376c-.00769-.017-.03479-.00638-.02707.01075a.28481.28481,0,0,1,.0169.178l-.00709.022a.29128.29128,0,0,0-.0224-.05874c-.01683-.03288-.06911-.01381-.05439.02159a.28506.28506,0,0,1-.02037.23955l-.00357.00627a1.273,1.273,0,0,1-.06338-.17722c-.00266-.01891-.03217-.01571-.02951.00323a.71271.71271,0,0,0,.01593.08573c.00787.02938.0177.0583.02366.08817a.29328.29328,0,0,1,.00594.06276.3938.3938,0,0,1-.10328.07448.33021.33021,0,0,0,.01354-.05318c.0112-.0655.01149-.13231.02162-.198a1.0582,1.0582,0,0,1,.04376-.17512L3.69179,1.592a.18687.18687,0,0,0,.04974-.01951.20247.20247,0,0,0,.0578-.05557c.0099-.01222-.00773-.03145-.01986-.0202a.16959.16959,0,0,1-.05777.03162L3.71861,1.5245q.01978-.03272.03622-.06727A.31559.31559,0,0,1,3.92861,1.402c.0248-.00087.023-.03683.00087-.04153a.20683.20683,0,0,0-.14451.02374q.01063-.03008.01871-.061a.1839.1839,0,0,0,.064-.03949c.01254-.01144-.0022-.0322-.01622-.02147a.2299.2299,0,0,1-.03911.02366l.00432-.02253c.00529-.03046-.041-.03707-.04717-.00718q-.00519.02521-.012.04987a.016.016,0,0,0-.00563.01924q-.00978.03195-.02227.06282l-.00479-.0049a.07185.07185,0,0,1-.0211-.0436c-.0015-.01706-.026-.01357-.02592.00283a.14456.14456,0,0,0,.01122.0609.08329.08329,0,0,0,.021.029.74768.74768,0,0,1-.08987.14272,1.03233,1.03233,0,0,1,.002-.12013.45489.45489,0,0,1,.08356-.24531.02678.02678,0,0,0-.04216-.033l-.0204.0275L3.6315,1.18278a.12983.12983,0,0,1-.01058-.04388c-.00135-.01728-.027-.014-.02647.00289a.14589.14589,0,0,0,.0299.09259.44064.44064,0,0,0-.02138.04356.20744.20744,0,0,1-.02184-.03252.18615.18615,0,0,1-.01769-.06088.01291.01291,0,0,0-.02565.0028.18876.18876,0,0,0,.05207.12521.55676.55676,0,0,0-.01582.05718.15426.15426,0,0,0-.02955-.02969l-.003-.00217a.08531.08531,0,0,0-.03-.02011l-.00373-.00235-.00784-.00754a.51074.51074,0,0,1-.08-.10061h0a.19911.19911,0,0,0,.04846-.07007.35652.35652,0,0,1,.14479-.054.01679.01679,0,0,0-.00365-.03337.23048.23048,0,0,0-.12541.04317A.30866.30866,0,0,0,3.49067.98489a.01471.01471,0,0,0-.02923.0032.25126.25126,0,0,1-.02242.11083.32537.32537,0,0,1-.04243.06675A.3228.3228,0,0,1,3.37,1.09914.01426.01426,0,0,0,3.38007,1.092.23515.23515,0,0,0,3.40218.99074.31553.31553,0,0,0,3.39135.89208C3.38777.87886,3.367.88476,3.36841.89777a.506.506,0,0,1,.00246.09629.51143.51143,0,0,1-.01082.06056A.55582.55582,0,0,0,3.32759.94745a.01263.01263,0,0,0-.02346.00931.51623.51623,0,0,1,.01633.15864l.0002.00286a.13507.13507,0,0,1-.03852-.03455.15256.15256,0,0,1-.02846-.0784,1.38289,1.38289,0,0,1,.01971-.2034c.00089-.01508-.02283-.02506-.02777-.008a.57214.57214,0,0,0-.02685.24036.25253.25253,0,0,0,.01457.05291l-.01607-.01833A.20916.20916,0,0,1,3.17865.88306C3.18415.866,3.15848.85478,3.15294.872a.24761.24761,0,0,0-.01424.10956.22637.22637,0,0,0,.03636.09761l.00093.00133a.13222.13222,0,0,1-.03811.00105.12617.12617,0,0,1-.06153-.02624c-.013-.01045-.02678.00873-.01555.01988a.13966.13966,0,0,0,.14121.03835.54626.54626,0,0,0,.13575.10166L3.34,1.21625a.26142.26142,0,0,0,.01783.03824.48187.48187,0,0,0,.04774.06859.19726.19726,0,0,1-.0789.01366A.17346.17346,0,0,1,3.289,1.32881a.14328.14328,0,0,0-.02425-.07689c-.008-.01318-.03029-.0006-.02372.01334a.0964.0964,0,0,1,.00954.04156l-.00012.00433a.19571.19571,0,0,1-.086-.10685c-.00936-.02971-.05206-.0114-.04434.0176a.21192.21192,0,0,0,.03488.07173l-.01248.00909a.17356.17356,0,0,1-.03807.01618.14026.14026,0,0,1-.08576-.00278.01485.01485,0,0,0-.01176.02724.19583.19583,0,0,0,.11348.02559.15152.15152,0,0,0,.07911-.03008.23946.23946,0,0,0,.07773.03953.245.245,0,0,0,.09753.00894A.24149.24149,0,0,1,3.29822,1.5c-.01507.01242.00294.03665.01839.02435a.28866.28866,0,0,0,.09812-.145.30763.30763,0,0,1,.03559-.00774A.30233.30233,0,0,0,3.4952,1.411a.18639.18639,0,0,0,.03616.01833l.00324.00789a.38491.38491,0,0,1,.01518.07615A.10288.10288,0,0,1,3.51991,1.479a.01388.01388,0,0,0-.02578.01023.13621.13621,0,0,0,.03215.053.12637.12637,0,0,0,.02942.02076q-.00013.02828.00059.05631c.00119.0496.0057.10713.00481.16457l-.00034-.00056a.38352.38352,0,0,1-.05554-.09706c-.00337-.01345-.02614-.00772-.02374.0059a.42029.42029,0,0,0,.02207.08962.41107.41107,0,0,1,.03017.08938.29766.29766,0,0,1,.003.06867.20884.20884,0,0,1-.09505.11329.30857.30857,0,0,1-.055.0237.18235.18235,0,0,0,.01784-.02164c.00992-.01425.01527-.03061.02394-.04549.00943-.01618-.0174-.02756-.02674-.01154a.22667.22667,0,0,1-.06265.05682.38356.38356,0,0,1-.05386.03231l-.05142.00165a.183.183,0,0,0,.07-.06474A.26713.26713,0,0,0,3.33462,1.954a.14933.14933,0,0,0,.143-.0907.02414.02414,0,0,0-.04431-.01912.10214.10214,0,0,1-.08594.05624c.00285-.0598.05318-.11035.08209-.15928a.2911.2911,0,0,0,.03069-.21645c-.007-.0284-.05223-.02519-.0466.0051a.26561.26561,0,0,1-.05326.20854L3.342,1.76413,3.33726,1.7279c-.00533-.03855-.00841-.07732-.01293-.116a.0254.0254,0,0,0-.05047.00552c.00317.07128.00725.14245.0092.2138a.25979.25979,0,0,1-.043.17243A.15263.15263,0,0,1,3.176,2.049a.74817.74817,0,0,0,.0418-.10871.014.014,0,0,0-.02572-.0111.37952.37952,0,0,1-.06254.09219L3.119,2.03265a1.1426,1.1426,0,0,0,.03927-.12256.90648.90648,0,0,0,.028-.16.75676.75676,0,0,0,.00241-.08679.20406.20406,0,0,0-.00516-.03806L3.17845,1.6101,3.18,1.60478a.09816.09816,0,0,0,.03411-.0524.23061.23061,0,0,0-.0067-.11323c-.00339-.01676-.02976-.01426-.02675.00293a.206.206,0,0,1,.0006.08757.07248.07248,0,0,1-.00944.02144.448.448,0,0,0-.03851-.11729.01458.01458,0,0,0-.01572-.00885l-.00958-.0247c-.0057-.01568-.02918-.00615-.024.00952a.60077.60077,0,0,1,.01925.1221.81359.81359,0,0,1,.00507.08392l-.00759-.005c-.01414-.00972-.02763-.02045-.04114-.031a.0149.0149,0,0,0-.021.02063.30559.30559,0,0,0,.04019.04335.32706.32706,0,0,0,.028.02434.85739.85739,0,0,1-.01928.14044l-.00152-.00018a.17893.17893,0,0,0-.03353-.11312c-.01944-.02655-.05946.00382-.04073.03076.03707.05333.00851.12421-.01282.18415l-.01692-.01492a.57206.57206,0,0,1-.0576-.06469c-.00923-.01212-.01763-.02471-.02562-.03756l-.01156-.04666a.77345.77345,0,0,0,.093-.13128.29473.29473,0,0,0,.02179-.157.02512.02512,0,0,0-.04991.00546.2443.2443,0,0,1-.02539.14016.3418.3418,0,0,1-.05295.06734c-.00264-.02-.00456-.04016-.00562-.06043a.7081.7081,0,0,1,.01995-.21109l.0117-.01035A.34991.34991,0,0,0,2.95582,1.311c.01-.01643-.01372-.03528-.02381-.01863a.15014.15014,0,0,1-.03286.0372L2.89693,1.328q.0082-.02224.01812-.044l.01837-.03821a.33249.33249,0,0,0,.048-.0116.07409.07409,0,0,0,.044.02718.01225.01225,0,0,0,.00667-.02327.02681.02681,0,0,1-.01465-.012l-.00192-.00473a.30321.30321,0,0,0,.05433-.03577c.01447-.01127-.00267-.03414-.01722-.0228a.13653.13653,0,0,1-.06359.025.09114.09114,0,0,1-.0262.00043.97605.97605,0,0,0,.05912-.1321A.48554.48554,0,0,0,3.04377.9613a.11735.11735,0,0,0,.0341-.03379A.13706.13706,0,0,0,3.09493.8634.01207.01207,0,0,0,3.07107.85976a.1266.1266,0,0,1-.02323.04647.71794.71794,0,0,0-.01521-.157.014.014,0,0,0-.02785.003c-.00011.04245-.00089.085-.00519.127a.25958.25958,0,0,1-.02429-.0344.20975.20975,0,0,1-.0255-.12127A.01207.01207,0,0,0,2.92593.71995a.21889.21889,0,0,0,.01442.1334l.00587.01292L2.93407.87045A.07258.07258,0,0,1,2.90056.8701c-.01648-.005-.02758.01814-.01088.02521A.10749.10749,0,0,0,2.9655.90189l.00325.00553a.17345.17345,0,0,0,.02173.03206.43664.43664,0,0,1-.0285.09074c-.009.02017-.019.03982-.02956.0592L2.92926,1.086A.30075.30075,0,0,1,2.90259,1.05.24242.24242,0,0,1,2.86718.95987.0143.0143,0,0,0,2.83878.963a.287.287,0,0,0,.029.10663.26281.26281,0,0,0,.04143.061c-.01721.02976-.03484.05931-.05108.08958a.3181.3181,0,0,1-.10545-.14957c-.00337-.01321-.02632-.00761-.02348.00583a.65494.65494,0,0,0,.02235.09054l-.01523-.004a.08257.08257,0,0,1-.04062-.02931c-.00936-.01456-.02983-.00065-.02515.01415a.08268.08268,0,0,0,.0405.05051.14867.14867,0,0,0,.06586.01923.30105.30105,0,0,0,.05222.06206A.65452.65452,0,0,0,2.8,1.36266l-.01308-.011A.23178.23178,0,0,1,2.75674,1.307c-.00791-.015-.03254-.00594-.025.00993a.28111.28111,0,0,0,.03585.05761l.014.01951.008.01072a.90481.90481,0,0,0-.00982.2957l-.02116-.01705a.4467.4467,0,0,1-.0811-.10464c-.00637-.01113-.02486-.00052-.01964.01105.01538.03412.02728.06921.04453.10221a.09256.09256,0,0,1-.05136-.01065c-.01383-.00782-.02813.01587-.01432.02413a.15689.15689,0,0,0,.09238.02858.29837.29837,0,0,0,.03192.03541.16785.16785,0,0,0,.03431.02722l.003.01536c.0089.04583.02061.091.03388.1358a.95332.95332,0,0,0,.03353.11091l.00478.0361-.0205-.00942a.2561.2561,0,0,1-.07794-.06507.01457.01457,0,0,0-.02324.01756.37977.37977,0,0,0,.07562.09747.18923.18923,0,0,0,.04987.03027A.6025.6025,0,0,1,2.8701,2.237l-.00115.00861c-.01161.02381-.02335.04756-.03316.072a.5715.5715,0,0,0-.0225.06978.20932.20932,0,0,1-.03958-.05415l.0088-.01092c.01169-.02634.02145-.05357.03183-.08046a.02456.02456,0,0,0-.04507-.01945l-.01873.045a.25316.25316,0,0,1-.00031-.1046c.00682-.03272-.04372-.03987-.051-.00776a.2899.2899,0,0,0-.00694.055l-.00546-.01038a.238.238,0,0,1-.02112-.08006c-.001-.01584-.02795-.01694-.02832-.0006a.2175.2175,0,0,0,.01533.0942.17354.17354,0,0,0,.04586.06895.31253.31253,0,0,0,.02573.07492.39988.39988,0,0,0,.072.10572c-.00572.02762-.01136.05527-.01835.08257a1.26051,1.26051,0,0,1-.076.20627l-.008.01734a.57448.57448,0,0,0-.01462-.12733,1.1737,1.1737,0,0,0-.13193-.313.24723.24723,0,0,0,.03941-.07867.35572.35572,0,0,0,.01185-.15715l-.00184-.01124a.26174.26174,0,0,0,.143-.23087c-.00224-.03049-.04643-.02424-.04633.00506a.13282.13282,0,0,1-.01986.07035.08024.08024,0,0,1-.01621-.02072.1651.1651,0,0,1-.01472-.08324c.0005-.01759-.02672-.02206-.02742-.00417a.28859.28859,0,0,0,.00584.10864.12265.12265,0,0,0,.02168.03811.52852.52852,0,0,1-.06008.04988.47976.47976,0,0,1-.01436-.27494c.011-.02969-.03394-.04938-.04532-.01956a.33715.33715,0,0,0-.0181.06936l-.0096-.01383a.15307.15307,0,0,1-.01547-.08239.01429.01429,0,0,0-.02825-.0043.16591.16591,0,0,0,.005.09855c.00719.01859.02173.05586.04336.06707-.00017.0235.00109.04706.003.07069a.15322.15322,0,0,1-.03087-.02089.14846.14846,0,0,1-.04448-.07466c-.00412-.01638-.0326-.00943-.02908.00722A.18819.18819,0,0,0,2.5078,1.977c.003.02983.00591.05978.00717.08988a.49659.49659,0,0,1-.01246.13449.76874.76874,0,0,0-.079-.09837.83166.83166,0,0,1-.0759-.23255V1.87007a.31681.31681,0,0,1,.00582-.03981.59819.59819,0,0,1,.0629-.157L2.43623,1.638a1.15294,1.15294,0,0,0,.0975-.08279l.0122.00088a.14957.14957,0,0,0,.03249.065c.01068.01364.02951-.0016.021-.01589A.09647.09647,0,0,1,2.587,1.56709l-.001-.013a.25982.25982,0,0,0,.0395-.00836.194.194,0,0,0,.05116-.02336.14732.14732,0,0,0,.041-.04586.01457.01457,0,0,0-.02294-.01795.11644.11644,0,0,1-.05075.02568.07875.07875,0,0,1-.049-.006l-.00138-.00047.00261-.00438a.50827.50827,0,0,0,.1081-.10123c.01911-.024-.01732-.05207-.03736-.02923q-.0135.01539-.02808.02966a.50663.50663,0,0,0,.01975-.14149c-.00007-.02974-.05129-.03108-.05252-.00111a.406.406,0,0,1-.09919.24721l-.001-.00075a.31462.31462,0,0,0,.03832-.24241.19841.19841,0,0,1,.05067-.07385A.48158.48158,0,0,0,2.683,1.04989a.14351.14351,0,0,0,.03688-.00816.26756.26756,0,0,0,.06025-.02524c.01268-.00734.00063-.02787-.01253-.02228a.13389.13389,0,0,1-.05832.01287l-.00449-.00031.00784-.015.002-.00425L2.72577.976,2.74969.96056A.32429.32429,0,0,0,2.80916.90842a.30452.30452,0,0,0,.06975-.139C2.88272.7528,2.85753.74977,2.85313.76552a.30785.30785,0,0,1-.07047.12216.27447.27447,0,0,1-.03082.02849C2.758.88795,2.76.85768,2.76735.8302l.01258-.043.00439-.003A.36875.36875,0,0,0,2.82083.75832.28018.28018,0,0,0,2.87738.69268c.009-.01433-.01011-.0304-.02116-.01662a.32915.32915,0,0,1-.05868.05716L2.79713.73352A.12782.12782,0,0,0,2.799.66283C2.7952.64893,2.77423.65543,2.77523.66872a.14751.14751,0,0,1-.01845.07872L2.74827.762,2.735.77079l0,0L2.73064.76222a.28506.28506,0,0,0-.02972-.091A.01318.01318,0,0,0,2.67643.6809.43654.43654,0,0,1,2.704.85618l-.00233.021A.1849.1849,0,0,1,2.64531.81923.16727.16727,0,0,1,2.6215.71383.013.013,0,0,0,2.59572.7099a.22238.22238,0,0,0,.002.08939.14778.14778,0,0,1-.0807-.102C2.51347.68339,2.49385.69067,2.494.703a.14781.14781,0,0,0,.1153.13562l.003.00037a.18877.18877,0,0,0,.07633.08243.389.389,0,0,1-.01843.04276L2.66895.96506,2.667.96677a.07209.07209,0,0,1-.0204-.01186A.26787.26787,0,0,1,2.608.91517C2.5982.90289,2.58139.91658,2.589.92955a.19135.19135,0,0,0,.05986.07053.30449.30449,0,0,1-.06527.06885A.81032.81032,0,0,0,2.58909.98787C2.58971.96947,2.56266.96421,2.56.98345a.51854.51854,0,0,1-.02848.12753l-.00219.00391-.00216.00593a.20227.20227,0,0,1-.02126.036L2.50128,1.159l-.00808.00041c-.00768-.02176-.016-.04317-.02433-.06413A.49741.49741,0,0,1,2.44363,1.014C2.48787.999,2.51524.9414,2.52837.90114,2.53363.885,2.50944.87428,2.50392.89059a.13371.13371,0,0,1-.03817.05767.28783.28783,0,0,1-.0281.02088.192.192,0,0,1,.01462-.088.01346.01346,0,0,0-.0247-.01066.35109.35109,0,0,0-.02547.19447.74043.74043,0,0,0,.01625.09166h0a.27638.27638,0,0,1-.07217-.07568c-.00771-.01279-.02942-.00057-.023.01294a.38557.38557,0,0,0,.06217.09877.0836.0836,0,0,0-.03553.02651c-.00927.01053.0058.02416.01658.01687a.0932.0932,0,0,1,.04956-.01228l.0203.0154.00474.03031a.26712.26712,0,0,1-.02888.16718.26366.26366,0,0,1-.03755.05233.39793.39793,0,0,1,.02361-.068c.01409-.03014-.0333-.05052-.04736-.02044-.01515.03241-.03314.06331-.04711.09632a.72875.72875,0,0,0-.0333.09986l-.00917.03956a.14239.14239,0,0,1-.042-.047.02345.02345,0,0,0-.01121-.024.23619.23619,0,0,1-.015-.08345c.0141-.00509.02774-.01341.04165-.01977a.13276.13276,0,0,0,.058-.04936c.00942-.0146-.01122-.03152-.02163-.01692a.08688.08688,0,0,1-.05991.03381.0505.0505,0,0,1-.01274-.00068h0c.00651-.02355.014-.04675.02075-.07018a.28008.28008,0,0,0,.1106-.19493.01735.01735,0,0,0-.03428-.00522.24715.24715,0,0,1-.0588.1164l.00322-.03807a.58505.58505,0,0,1,.02754-.09952c.015-.03659.03935-.06824.05351-.10541A.32857.32857,0,0,0,2.33643.9783.46527.46527,0,0,0,2.34025.916C2.3414.89779,2.31316.89338,2.312.91174a.31393.31393,0,0,1-.03571.11354.67292.67292,0,0,1-.04.06181l-.002-.03245c-.001-.0173-.02985-.01836-.0308-.00065a1.14719,1.14719,0,0,1-.03569.25579.08459.08459,0,0,1-.03227-.04036c-.00567-.0175-.0322-.00689-.02655.01054a.35055.35055,0,0,0,.01738.05333.15893.15893,0,0,0,.02217.03285.58093.58093,0,0,0-.02981.09676.26089.26089,0,0,0-.02042-.03115l-.01738-.02194-.01055-.02491a.39369.39369,0,0,1-.02592-.12036l.00139-.01691a.13171.13171,0,0,0,.04454-.02255.18883.18883,0,0,0,.06141-.07891.01449.01449,0,0,0-.0246-.0146.12969.12969,0,0,1-.068.04259l-.00178.00045.00791-.01536A.33179.33179,0,0,1,2.111,1.10092.58014.58014,0,0,0,2.18679,1,.28377.28377,0,0,0,2.27615.901.24042.24042,0,0,1,2.3514.83863a.12777.12777,0,0,1,.0567-.00307A.38722.38722,0,0,0,2.46663.834a.01421.01421,0,0,0,.00059-.028A.4501.4501,0,0,0,2.40315.79626L2.417.784a.10013.10013,0,0,0,.03-.10631C2.44145.66231,2.41968.6718,2.42384.68693c.017.06186-.05242.09342-.10557.11749A.383.383,0,0,0,2.33094.655a.01457.01457,0,0,0-.029.00317A.39824.39824,0,0,1,2.2649.83545a.384.384,0,0,1-.044.073A.4892.4892,0,0,0,2.21013.64641a.01282.01282,0,0,0-.02489.0059.64146.64146,0,0,1,.00534.2081A.24652.24652,0,0,1,2.14807.76515a.01471.01471,0,0,0-.02923.0032.21821.21821,0,0,0,.05764.13873l.002.00161a.273.273,0,0,1-.03309.06752.91211.91211,0,0,1-.082.0972c.00476-.0294.00944-.05882.013-.08843A1.4768,1.4768,0,0,0,2.0811.73475C2.08.71287,2.04674.71686,2.04746.73843a.77231.77231,0,0,1-.00277.0932l-.0042-.004A.17118.17118,0,0,1,2.00133.74872C1.99709.73161,1.97.73344,1.9732.75179a.30666.30666,0,0,0,.0204.08583.20991.20991,0,0,0,.02123.03429A.12872.12872,0,0,0,2.03625.899c-.00421.02611-.0094.052-.01538.07756a1.91273,1.91273,0,0,0-.05239.21836A.53149.53149,0,0,0,2.083,1.572c.01039.0141.02129.0278.03252.04124.00908.01749.01769.03522.02556.0533a.644.644,0,0,1,.04544.14861c.00481.02827.00789.05644.01242.08434-.02431-.01945-.04864-.0392-.07211-.0598l-.00575-.044c-.00659-.0465-.01689-.09245-.02259-.139a.02568.02568,0,0,0-.051.00558c.00441.03606.00619.07242.00891.10868a.47968.47968,0,0,1-.07206-.10329.28175.28175,0,0,0,.02839-.10671.01212.01212,0,0,0-.023-.0066.45155.45155,0,0,1-.02854.05762.28257.28257,0,0,1-.0027-.18038c.01019-.02944-.0339-.049-.04481-.01934a.36055.36055,0,0,0,.01683.27014.437.437,0,0,1-.06876-.06675.28845.28845,0,0,1-.02381-.0368.32913.32913,0,0,0,.02111-.115.3402.3402,0,0,0-.01363-.12281.01439.01439,0,0,0-.0274.00312c-.0031.039-.0013.07808-.00421.11707-.00122.01629-.00329.03248-.00542.04866-.00654-.01922-.01221-.03878-.01759-.05828-.00709-.02567-.0518-.01484-.04588.01139a.54323.54323,0,0,0,.06339.184c.03818.058.10231.09061.14613.14345a.5486.5486,0,0,1,.05506.0822l.01686.03077-.02129.002H2.00443a.10557.10557,0,0,1-.06281-.02219.32746.32746,0,0,1-.04-.04732A.19243.19243,0,0,1,1.861,1.76658c-.00426-.01782-.03273-.01543-.029.00317a.33379.33379,0,0,0,.05561.13921.3865.3865,0,0,1-.03888-.00679.33129.33129,0,0,1-.07223-.02571.10861.10861,0,0,0,.00561-.03092.43053.43053,0,0,0-.01286-.21322c-.00938-.02947-.05278-.01149-.04434.0176a.39209.39209,0,0,1,.01295.06506.26235.26235,0,0,1-.02407-.02611.12154.12154,0,0,1-.02067-.05053A.64209.64209,0,0,1,1.68871,1.535c-.00025-.014-.0212-.01323-.02365-.0005a.287.287,0,0,0,.01651.18574.32751.32751,0,0,1,.03886.0858.16159.16159,0,0,1,.00263.03734.25972.25972,0,0,1-.10351-.16879.02387.02387,0,0,0-.04743.00519.29933.29933,0,0,0,.01261.05734.06257.06257,0,0,1-.02526-.00759.18043.18043,0,0,1-.04056-.03285c-.00981-.01087-.03241-.00145-.02444.01375a.13643.13643,0,0,0,.06213.06086c.02249.01221.04256.0279.06434.04063a.338.338,0,0,0,.06542.07287.34828.34828,0,0,1-.1569-.09c-.01768-.01779-.04837.01214-.03158.031a.36837.36837,0,0,0,.035.03437A.13668.13668,0,0,1,1.489,1.85548c-.01579-.00444-.02364.02258-.008.02777a.14967.14967,0,0,0,.08894.005.34135.34135,0,0,0,.04457.02469l-.007.01a.18946.18946,0,0,1-.02066.022.01362.01362,0,0,0,.01752.0207.13521.13521,0,0,0,.02837-.02388l.01-.0133.0025-.00324a.35843.35843,0,0,0,.13852.01841l.00091-.0001.012.00466a.49986.49986,0,0,0,.117.02592.09625.09625,0,0,1-.01176.02207c-.01.01362.01039.02976.02075.01624a.43026.43026,0,0,0,.02613-.03484l.03985.00311c.03227.00241.06462.00079.09694.00341.03051.03593.06256.07048.09394.10566A.238.238,0,0,1,2.1519,2.109a.63457.63457,0,0,1-.07935.0337A.0156.0156,0,0,0,2.08,2.17256a.26121.26121,0,0,0,.08933-.02717.44.44,0,0,0,.04035-.02132c.01445.01685.02859.034.04218.05163a1.27063,1.27063,0,0,1,.14489.23308,1.234,1.234,0,0,1,.07635.20695l-.0013.03834a.33644.33644,0,0,1-.04729-.045c-.02156-.025-.06259.00508-.04139.03127a1.09006,1.09006,0,0,0,.08209.09165.66824.66824,0,0,1-.021.10371.63958.63958,0,0,1-.04858.1205c-.007-.01866-.01472-.03706-.02336-.055a.60429.60429,0,0,0-.0905-.13719.292.292,0,0,0,.01849-.07655.34287.34287,0,0,0-.02009-.15022c-.01052-.0317-.05869-.01246-.0482.01914a.2367.2367,0,0,1-.00586.152.89529.89529,0,0,0-.13582-.09495l-.03074-.01782A.15855.15855,0,0,1,2.0762,2.5721c.01614-.01837.035-.03414.05141-.05231l.019-.0232.00835-.00688a.125.125,0,0,1,.11411-.02949.27627.27627,0,0,1,.05742.02307.17824.17824,0,0,1,.05752.03719.01457.01457,0,0,0,.02324-.01756.62223.62223,0,0,0-.04315-.06212.16364.16364,0,0,0-.02-.01782.0223.0223,0,0,0-.01293-.01157l-.01208-.00417-.02078-.009a.19749.19749,0,0,0-.05556-.01093l-.01134-.00277L2.239,2.36736a.229.229,0,0,0,.0155-.1486c-.00887-.02819-.04815-.01432-.04749.01179a.189.189,0,0,1-.03524.13392.35177.35177,0,0,1-.065.06266l.00731-.02348A.23952.23952,0,0,0,2.12258,2.303c-.00192-.016-.02786-.0177-.02915-.00062a.28136.28136,0,0,1-.022.09057.2348.2348,0,0,1-.06123.07256c-.02138.0202-.04617.03793-.0687.05755l-.008-.00572a.27411.27411,0,0,1,.00725-.033l.01789-.04049a.54283.54283,0,0,1,.03444-.0703.24891.24891,0,0,1,.09712-.09773.01457.01457,0,0,0-.01075-.02707.28685.28685,0,0,0-.08135.04469A.32532.32532,0,0,0,1.99133,2.229c.00441-.023.01348-.04492.02-.06771A.26007.26007,0,0,0,2.01959,2.065a.01449.01449,0,0,0-.0286-.0006.4015.4015,0,0,1-.02165.09051c-.00592-.01533-.0125-.03037-.0195-.045-.0141-.02953-.06123-.01145-.04769.01893a.32038.32038,0,0,1,.02956.2198l-.00349.00958a.10154.10154,0,0,1-.03835-.02874.11823.11823,0,0,1-.026-.06648c-.00179-.02131-.03395-.01748-.03282.00359a.182.182,0,0,0,.0739.13417.57853.57853,0,0,0-.03709.06026.607.607,0,0,1-.0677-.07987A.67751.67751,0,0,1,1.73795,2.273a.26619.26619,0,0,0,.03126-.08648l.00236-.00215c.01049-.01148.02148-.02288.03306-.03327.01132-.01014.02366-.01888.03429-.0298.01019-.01047-.00423-.02819-.01684-.02251a.14527.14527,0,0,0-.04526.03422l.00106-.0199a.51926.51926,0,0,0-.00593-.06953.0143.0143,0,0,0-.0284.00311.40151.40151,0,0,1-.0171.12048.32924.32924,0,0,1-.0149.0412l-.00247-.00671a.50483.50483,0,0,1-.03154-.20127c.00239-.03067-.045-.038-.04744-.00722a.81832.81832,0,0,0-.00009.183.72829.72829,0,0,0,.0245.10859,1.171,1.171,0,0,1-.09714-.111c-.01514-.01932-.03014-.03939-.04391-.06026A.21475.21475,0,0,0,1.551,2.04119a.18968.18968,0,0,0,.00843-.04542.37335.37335,0,0,0-.00511-.05119A.01527.01527,0,0,0,1.524,1.9479a.14185.14185,0,0,1-.02244.07195.11409.11409,0,0,1-.02429.02911l-.01165-.02928-.01249-.04085a.83663.83663,0,0,0-.01843-.15464.47144.47144,0,0,1,.0356-.15558l.00993-.01327a.16921.16921,0,0,0,.05891-.0113.2578.2578,0,0,0,.07747-.04445c.01288-.00942.00077-.03283-.01415-.02515a.23558.23558,0,0,1-.07561.0201l-.00924.00076.01166-.02c.03018-.02451.06035-.049.09089-.07313a1.0119,1.0119,0,0,0,.14068-.12637.44294.44294,0,0,0,.06406-.09722.10892.10892,0,0,0,.03234-.004A.17356.17356,0,0,0,1.912,1.24979a.01467.01467,0,0,0-.01036-.0261.34594.34594,0,0,1-.05517.003l0,0a.53258.53258,0,0,0,.01608-.05583A.34708.34708,0,0,0,1.91243,1.093.72753.72753,0,0,0,1.95614.97863c.00644-.02048-.024-.03421-.03107-.01341a.472.472,0,0,1-.04764.09754l.00118-.037c.00006-.01033-.00012-.02064-.00048-.03092A.25015.25015,0,0,0,1.93708.88921.28911.28911,0,0,0,1.94544.75527C1.9423.73674,1.91376.73958,1.9162.75847a.27706.27706,0,0,1-.011.12069.28048.28048,0,0,1-.02185.05037L1.87474.94314C1.87033.89667,1.86259.85058,1.85369.80453,1.84957.78326,1.81683.78621,1.81977.80824a1.08021,1.08021,0,0,1,.00944.22559.24222.24222,0,0,1-.10375-.149C1.721.86406,1.6883.867,1.69209.88848a.33428.33428,0,0,0,.04219.11235A.12076.12076,0,0,1,1.69264.98847c-.01617-.0083-.02676.01721-.0111.02572a.29867.29867,0,0,0,.05171.02446.09857.09857,0,0,0,.03546.00826.20885.20885,0,0,0,.05384.04222.54168.54168,0,0,1-.02021.08322.44051.44051,0,0,1-.08793.154.83555.83555,0,0,1-.10183.0942l.018-.03552a.81967.81967,0,0,0,.03593-.084l.007-.0059a.70261.70261,0,0,0,.09238-.142c.00358-.012-.01319-.02567-.02105-.0125A.3486.3486,0,0,1,1.6943,1.2.45528.45528,0,0,0,1.7,1.06458a.01277.01277,0,0,0-.02537.00278.45674.45674,0,0,1-.02382.16514A.70714.70714,0,0,1,1.5887,1.361a.34188.34188,0,0,0-.00512-.03774.64428.64428,0,0,0-.02282-.08014.22879.22879,0,0,0,.04775-.07286.38906.38906,0,0,0,.03472-.10557A.372.372,0,0,0,1.61572.85153.01471.01471,0,0,0,1.5884.86238a.3529.3529,0,0,1,.012.19576.34793.34793,0,0,1-.03241.091.30247.30247,0,0,1-.01967.03244l-.0045-.00392-.00528-.03022a.48761.48761,0,0,1,.007-.17851A.01532.01532,0,0,0,1.51644.96057a.395.395,0,0,0-.02544.15337l.002.02358L1.47927,1.123a.18442.18442,0,0,1-.04569-.10768c-.00119-.0189-.02945-.01533-.029.00317a.30385.30385,0,0,0,.00324.03707.14171.14171,0,0,1-.05668-.00386c-.01325-.00334-.01741.01641-.00629.02195a.14441.14441,0,0,0,.06947.01347l.00016,0a.26332.26332,0,0,0,.02534.06082A.19808.19808,0,0,0,1.483,1.2a.20411.20411,0,0,0,.0223.01741c.00378.02186.00736.04376.00947.06585a.51948.51948,0,0,1,.00069.15918A.18232.18232,0,0,1,1.4816,1.515a.40511.40511,0,0,0,.00227-.05279.39.39,0,0,0-.04812-.177.44711.44711,0,0,0-.047-.17525.0129.0129,0,0,0-.024.00952.41777.41777,0,0,1,.02191.09337.48822.48822,0,0,0-.08472-.0802.01651.01651,0,0,0-.02034.026.36177.36177,0,0,1,.08616.13288.30934.30934,0,0,1-.16417-.09142c-.01183-.01286-.0335.00252-.02214.01672a.36221.36221,0,0,0,.12933.10214l-.01369.005a.06733.06733,0,0,1-.06159-.01236c-.01089-.00981-.02728.00657-.01824.01793a.10365.10365,0,0,0,.1411.0067L1.3839,1.342a.47646.47646,0,0,1,.01384.0885A.4076.4076,0,0,1,1.35343,1.427a.32111.32111,0,0,1-.21352-.15421c-.011-.01963-.04414-.00734-.03325.0132a.41978.41978,0,0,0,.12311.143l-.0154.00987a.1728.1728,0,0,1-.05556.01587.34276.34276,0,0,1-.132-.01365c-.01684-.00455-.02474.02341-.00842.02935a.72578.72578,0,0,0,.0858.02754l-.003.0105a.072.072,0,0,1-.02008.0292c-.01066.00829-.00079.02828.01213.02156A.09013.09013,0,0,0,1.131,1.52829.0959.0959,0,0,0,1.14249,1.504a.2237.2237,0,0,0,.02869.00064.16452.16452,0,0,0,.10844-.04447.40545.40545,0,0,0,.0509.02308.3213.3213,0,0,0,.06565.02044.49412.49412,0,0,1-.03231.121A.1299.1299,0,0,1,1.315,1.53905c-.00124-.01722-.02632-.01374-.0262.00286a.19356.19356,0,0,0,.0286.10868l.00239.011.01731.03412-.00334.003a.23047.23047,0,0,1-.03856-.0273.47349.47349,0,0,1-.08334-.127c-.01353-.02607-.05577-.01064-.04331.01719a.682.682,0,0,0,.0697.12779.28259.28259,0,0,0,.04679.05c.00579.00479.01786.011.02844.01788a.24761.24761,0,0,0-.01039.08206l-.01646-.00568a.26807.26807,0,0,0-.06157-.03124c-.02283-.00755-.04469-.01781-.06736-.02589a.278.278,0,0,1-.02162-.0659.23675.23675,0,0,0-.03361-.07944c-.01747-.025-.05228.00289-.03719.02809a.29849.29849,0,0,1,.02785.08743.17052.17052,0,0,1-.03023-.00615.12785.12785,0,0,1-.04683-.02771.342.342,0,0,0,.00885-.06594.24013.24013,0,0,0-.01088-.09139c-.00574-.0184-.03184-.007-.02732.01085a.2242.2242,0,0,1,.00076.08713l-.00357.01724a.39162.39162,0,0,1-.03735-.10731c-.007-.03173-.05747-.02707-.051.00558a.39889.39889,0,0,0,.06957.1815.04751.04751,0,0,1-.0187.00786.09338.09338,0,0,1-.042-.00248.25035.25035,0,0,1-.08918-.0601c-.02353-.02057-.05078.0165-.0294.03758A.393.393,0,0,0,.85121,1.788a.11032.11032,0,0,0,.05675.0338.13445.13445,0,0,0,.03982.003.15894.15894,0,0,1-.03587.02952.01166.01166,0,0,0,.0086.02165.18311.18311,0,0,0,.09512-.05894.16328.16328,0,0,1,.05907.00911.27622.27622,0,0,1-.02451.028.18245.18245,0,0,1-.07249.0423c-.01491.00415-.00856.03039.00662.02668A.461.461,0,0,0,1.058,1.90062l.00233.0135c.00113.0123.00116.02419.00315.03641a.01385.01385,0,0,0,.02625.00395.07835.07835,0,0,0,.00795-.042.10735.10735,0,0,0-.00444-.0304.11914.11914,0,0,0,.03829-.033.46234.46234,0,0,1,.07616.04328.30706.30706,0,0,1,.11648.15147.99751.99751,0,0,1,.024.13073l-.00932-.005-.00489-.0027a.32461.32461,0,0,1-.0434-.11632.28215.28215,0,0,0-.08485-.12447c-.01321-.01241-.03.00964-.01726.02206a.289.289,0,0,1,.067.14431l.00777.03037a.16718.16718,0,0,1-.07508-.1113.02457.02457,0,0,0-.04881.00534.24078.24078,0,0,0,.11959.16973c.05517.03748.1147.06826.17212.10229L1.42453,2.289q-.05756.00049-.11511-.0002a.35578.35578,0,0,0-.04765-.00915.1424.1424,0,0,1-.1057-.11189.01541.01541,0,0,0-.03061.00335.18266.18266,0,0,0,.05867.11693c-.0214-.00047-.04279-.00146-.06395-.0035a.47684.47684,0,0,1-.08555-.02225l-.00841-.00177a.35973.35973,0,0,1-.00462-.11507l-.00022-.00718a.21463.21463,0,0,0,.02936-.13943c-.00125-.01276-.02253-.014-.0231-.00049a.19593.19593,0,0,1-.01481.069.46464.46464,0,0,0-.03446-.10308c-.01391-.02963-.06029-.01191-.04769.01893a.41657.41657,0,0,1,.02462.2057.3442.3442,0,0,0-.00163.0485.30594.30594,0,0,1-.065-.04389L.884,2.18921a.01942.01942,0,0,0,.01217-.01113.16708.16708,0,0,0,.00458-.08274.36961.36961,0,0,0-.01927-.08272l-.0022-.00585c-.00134-.02792-.00418-.05544-.00839-.084a.2175.2175,0,0,0-.039-.1022c-.01-.01321-.02839.00157-.02014.01522A.21863.21863,0,0,1,.841,1.9347.36.36,0,0,0,.78831,1.875c-.01216-.01107-.03205.008-.02079.02044A.35586.35586,0,0,1,.842,2.02459a.32117.32117,0,0,1,.01444.07213C.8582,2.11737.85455,2.1394.856,2.16013a.34867.34867,0,0,1-.07015-.12938c-.00851-.02908-.05069-.01122-.04331.01719a.42262.42262,0,0,0,.09288.17192.17117.17117,0,0,1-.04752.005.18048.18048,0,0,1-.09923-.0328.01124.01124,0,0,0-.01384.0177A.20248.20248,0,0,0,.78205,2.26319Z"/><text x="0" y="20" fill="#000000" font-size="5px" font-weight="bold" font-family="'Helvetica Neue', Helvetica, Arial-Unicode, Arial, Sans-serif">Created by Alice Noir</text><text x="0" y="25" fill="#000000" font-size="5px" font-weight="bold" font-family="'Helvetica Neue', Helvetica, Arial-Unicode, Arial, Sans-serif">from the Noun Project</text></svg>