<?xml version="1.0" encoding="iso-8859-1"?>
<!-- Generator: Adobe Illustrator 17.1.0, SVG Export Plug-In . SVG Version: 6.00 Build 0)  -->
<!DOCTYPE svg PUBLIC "-//W3C//DTD SVG 1.1//EN" "http://www.w3.org/Graphics/SVG/1.1/DTD/svg11.dtd">
<svg xmlns="http://www.w3.org/2000/svg" xmlns:xlink="http://www.w3.org/1999/xlink" version="1.1" id="Capa_1" x="0px" y="0px" viewBox="0 0 196.986 196.986" style="enable-background:new 0 0 196.986 196.986;" xml:space="preserve" width="512px" height="512px">
<path d="M158.662,80.16c0,3.891-2.963,7.09-6.755,7.464v27.856c0,4.143-3.358,7.5-7.5,7.5H90.527c-4.142,0-7.5-3.357-7.5-7.5V87.621  c-2.749-0.281-5.147-2.062-6.194-4.664c-1.142-2.841-0.442-6.091,1.768-8.21l33.674-32.292c2.901-2.783,7.48-2.783,10.382,0  l33.355,31.985C157.633,75.815,158.662,77.868,158.662,80.16z M172.855,138.784c-14.925,14.476-34.593,22.447-55.379,22.447  c-0.001,0-0.001,0-0.002,0c-17.168,0-33.429-5.384-46.961-15.332l-48.31,46.854c-1.4,1.358-3.274,2.116-5.222,2.116  c-0.038,0-0.077,0-0.115-0.001c-1.989-0.03-3.884-0.85-5.269-2.277l-9.481-9.776c-2.883-2.974-2.811-7.722,0.163-10.605  l48.537-47.073c-8.625-13.167-13.142-28.593-12.896-44.68c0.325-21.248,8.905-41.098,24.16-55.893  C77.005,10.088,96.672,2.117,117.46,2.117c21.717,0,42.001,8.584,57.117,24.17C205.117,57.777,204.344,108.243,172.855,138.784z   M163.809,36.73c-12.266-12.647-28.727-19.613-46.35-19.613c-16.867,0-32.826,6.469-44.937,18.215  C60.144,47.336,53.182,63.444,52.918,80.686c-0.264,17.242,6.203,33.555,18.208,45.933c12.265,12.646,28.726,19.612,46.349,19.612  c16.867,0.001,32.826-6.468,44.938-18.215C187.964,103.234,188.591,62.283,163.809,36.73z" fill="#FFFFFF"/>
<g>
</g>
<g>
</g>
<g>
</g>
<g>
</g>
<g>
</g>
<g>
</g>
<g>
</g>
<g>
</g>
<g>
</g>
<g>
</g>
<g>
</g>
<g>
</g>
<g>
</g>
<g>
</g>
<g>
</g>
</svg>
